G04*
G04 #@! TF.GenerationSoftware,Altium Limited,Altium Designer,20.1.14 (287)*
G04*
G04 Layer_Color=16711935*
%FSLAX44Y44*%
%MOMM*%
G71*
G04*
G04 #@! TF.SameCoordinates,01BF520F-FA88-4C74-87B3-3C0DA752D8B3*
G04*
G04*
G04 #@! TF.FilePolarity,Negative*
G04*
G01*
G75*
%ADD45R,1.7032X1.7032*%
%ADD46C,1.7032*%
%ADD47R,1.7032X1.7032*%
G04:AMPARAMS|DCode=48|XSize=0.7032mm|YSize=1.3032mm|CornerRadius=0.2266mm|HoleSize=0mm|Usage=FLASHONLY|Rotation=90.000|XOffset=0mm|YOffset=0mm|HoleType=Round|Shape=RoundedRectangle|*
%AMROUNDEDRECTD48*
21,1,0.7032,0.8500,0,0,90.0*
21,1,0.2500,1.3032,0,0,90.0*
1,1,0.4532,0.4250,0.1250*
1,1,0.4532,0.4250,-0.1250*
1,1,0.4532,-0.4250,-0.1250*
1,1,0.4532,-0.4250,0.1250*
%
%ADD48ROUNDEDRECTD48*%
G04:AMPARAMS|DCode=49|XSize=0.9032mm|YSize=1.0032mm|CornerRadius=0.3641mm|HoleSize=0mm|Usage=FLASHONLY|Rotation=90.000|XOffset=0mm|YOffset=0mm|HoleType=Round|Shape=RoundedRectangle|*
%AMROUNDEDRECTD49*
21,1,0.9032,0.2750,0,0,90.0*
21,1,0.1750,1.0032,0,0,90.0*
1,1,0.7282,0.1375,0.0875*
1,1,0.7282,0.1375,-0.0875*
1,1,0.7282,-0.1375,-0.0875*
1,1,0.7282,-0.1375,0.0875*
%
%ADD49ROUNDEDRECTD49*%
%ADD50C,1.4732*%
D45*
X1010920Y1197610D02*
D03*
X1506220Y1294130D02*
D03*
X1544320Y993140D02*
D03*
X1478280Y1319530D02*
D03*
D46*
X1010920Y1172210D02*
D03*
Y1146810D02*
D03*
Y1121410D02*
D03*
Y1096010D02*
D03*
Y1070610D02*
D03*
Y1045210D02*
D03*
Y1019810D02*
D03*
Y994410D02*
D03*
Y969010D02*
D03*
Y943610D02*
D03*
Y918210D02*
D03*
Y892810D02*
D03*
Y867410D02*
D03*
Y842010D02*
D03*
Y816610D02*
D03*
X1189990Y1353820D02*
D03*
X1504950Y1380490D02*
D03*
X1240790Y791210D02*
D03*
X1266190D02*
D03*
X1291590D02*
D03*
X1316990D02*
D03*
X1342390D02*
D03*
X1367790D02*
D03*
X1393190D02*
D03*
X1418590D02*
D03*
X1443990D02*
D03*
X1469390D02*
D03*
X1494790D02*
D03*
X1520190D02*
D03*
X1545590D02*
D03*
X1570990D02*
D03*
X1596390D02*
D03*
X1506220Y1319530D02*
D03*
X1544320Y967740D02*
D03*
X1478280Y1294130D02*
D03*
D47*
X1215390Y1353820D02*
D03*
X1530350Y1380490D02*
D03*
X1215390Y791210D02*
D03*
D48*
X1656160Y1353510D02*
D03*
Y1270010D02*
D03*
D49*
X1626160Y1334010D02*
D03*
Y1289510D02*
D03*
D50*
X1055370Y986790D02*
D03*
X1116330Y943610D02*
D03*
X1096010Y925830D02*
D03*
X1130300Y928370D02*
D03*
X1109980Y1003300D02*
D03*
X1135380Y995680D02*
D03*
X1149350Y928370D02*
D03*
X1172210D02*
D03*
X1195070Y929640D02*
D03*
X928343Y994437D02*
D03*
X914400Y1019810D02*
D03*
X897890Y1049020D02*
D03*
X1202690Y1088390D02*
D03*
X1191260Y1068070D02*
D03*
X1220470Y1065530D02*
D03*
X1202690Y996950D02*
D03*
X1220470Y986790D02*
D03*
X1234440Y976630D02*
D03*
X1316990Y872490D02*
D03*
X1268730Y1009650D02*
D03*
X1075690Y1102360D02*
D03*
X1323340Y981710D02*
D03*
X1493520Y1137920D02*
D03*
X1450340Y1363980D02*
D03*
X1403350Y1168400D02*
D03*
X1377950Y1169670D02*
D03*
X1234440Y1240790D02*
D03*
X1215390Y1223010D02*
D03*
X1212850Y1200150D02*
D03*
Y1177290D02*
D03*
X1178560Y1184910D02*
D03*
X1518920Y1134110D02*
D03*
X1555750Y1069340D02*
D03*
X1485900Y1112520D02*
D03*
X1461770Y1135380D02*
D03*
X1544320Y1045210D02*
D03*
X1466850Y1061720D02*
D03*
X1520190Y1115060D02*
D03*
X1461770Y1104900D02*
D03*
X1445260Y1076960D02*
D03*
X1427628Y1091078D02*
D03*
X1412379Y1101229D02*
D03*
X1494790Y1054100D02*
D03*
X1357630Y895350D02*
D03*
X1377950Y892810D02*
D03*
X1395730Y908050D02*
D03*
X1407160Y923290D02*
D03*
X1336040Y1000760D02*
D03*
X1376680Y982980D02*
D03*
X1361440Y1000760D02*
D03*
X1348740Y984250D02*
D03*
X1508760Y1037590D02*
D03*
X1592580Y1027430D02*
D03*
X1581150Y1370330D02*
D03*
X1402080Y1266190D02*
D03*
X1286510Y1300480D02*
D03*
X1210310Y948690D02*
D03*
X1626870Y1240790D02*
D03*
X1569720Y938530D02*
D03*
X1417320Y1140460D02*
D03*
X1504950Y1214120D02*
D03*
X1236980Y1306830D02*
D03*
X1239520Y1217930D02*
D03*
X1451610Y970280D02*
D03*
X1461770Y1002030D02*
D03*
X1466850Y1028700D02*
D03*
X1487170Y1037590D02*
D03*
X1291590Y925830D02*
D03*
X1270000Y927100D02*
D03*
X1249680Y923290D02*
D03*
X1229360Y938530D02*
D03*
X1254760Y986790D02*
D03*
X1303020Y1247140D02*
D03*
X1398270Y1346200D02*
D03*
X1477010Y1156970D02*
D03*
X1670050Y1047750D02*
D03*
X1587500Y1296670D02*
D03*
X1586230Y1319530D02*
D03*
X1404620Y1211580D02*
D03*
X1466850Y1182370D02*
D03*
M02*
