G04*
G04 #@! TF.GenerationSoftware,Altium Limited,Altium Designer,20.1.14 (287)*
G04*
G04 Layer_Physical_Order=1*
G04 Layer_Color=255*
%FSLAX44Y44*%
%MOMM*%
G71*
G04*
G04 #@! TF.SameCoordinates,01BF520F-FA88-4C74-87B3-3C0DA752D8B3*
G04*
G04*
G04 #@! TF.FilePolarity,Positive*
G04*
G01*
G75*
%ADD16C,0.1500*%
%ADD20R,1.1000X1.4000*%
%ADD21R,1.5000X2.5000*%
%ADD22R,1.9000X1.1750*%
%ADD23R,1.9000X1.8000*%
%ADD24R,1.3500X0.4000*%
G04:AMPARAMS|DCode=25|XSize=1.49mm|YSize=0.28mm|CornerRadius=0.07mm|HoleSize=0mm|Usage=FLASHONLY|Rotation=270.000|XOffset=0mm|YOffset=0mm|HoleType=Round|Shape=RoundedRectangle|*
%AMROUNDEDRECTD25*
21,1,1.4900,0.1400,0,0,270.0*
21,1,1.3500,0.2800,0,0,270.0*
1,1,0.1400,-0.0700,-0.6750*
1,1,0.1400,-0.0700,0.6750*
1,1,0.1400,0.0700,0.6750*
1,1,0.1400,0.0700,-0.6750*
%
%ADD25ROUNDEDRECTD25*%
G04:AMPARAMS|DCode=26|XSize=1.49mm|YSize=0.28mm|CornerRadius=0.07mm|HoleSize=0mm|Usage=FLASHONLY|Rotation=180.000|XOffset=0mm|YOffset=0mm|HoleType=Round|Shape=RoundedRectangle|*
%AMROUNDEDRECTD26*
21,1,1.4900,0.1400,0,0,180.0*
21,1,1.3500,0.2800,0,0,180.0*
1,1,0.1400,-0.6750,0.0700*
1,1,0.1400,0.6750,0.0700*
1,1,0.1400,0.6750,-0.0700*
1,1,0.1400,-0.6750,-0.0700*
%
%ADD26ROUNDEDRECTD26*%
%ADD27R,1.4000X0.7500*%
%ADD28R,0.7366X2.7940*%
%ADD29R,1.4000X1.2000*%
%ADD30R,1.2000X1.4000*%
%ADD31R,0.5080X1.0033*%
%ADD32R,1.4000X1.1000*%
%ADD51R,1.5000X1.5000*%
%ADD52C,1.5000*%
%ADD53R,1.5000X1.5000*%
G04:AMPARAMS|DCode=54|XSize=0.5mm|YSize=1.1mm|CornerRadius=0.125mm|HoleSize=0mm|Usage=FLASHONLY|Rotation=90.000|XOffset=0mm|YOffset=0mm|HoleType=Round|Shape=RoundedRectangle|*
%AMROUNDEDRECTD54*
21,1,0.5000,0.8500,0,0,90.0*
21,1,0.2500,1.1000,0,0,90.0*
1,1,0.2500,0.4250,0.1250*
1,1,0.2500,0.4250,-0.1250*
1,1,0.2500,-0.4250,-0.1250*
1,1,0.2500,-0.4250,0.1250*
%
%ADD54ROUNDEDRECTD54*%
G04:AMPARAMS|DCode=55|XSize=0.7mm|YSize=0.8mm|CornerRadius=0.2625mm|HoleSize=0mm|Usage=FLASHONLY|Rotation=90.000|XOffset=0mm|YOffset=0mm|HoleType=Round|Shape=RoundedRectangle|*
%AMROUNDEDRECTD55*
21,1,0.7000,0.2750,0,0,90.0*
21,1,0.1750,0.8000,0,0,90.0*
1,1,0.5250,0.1375,0.0875*
1,1,0.5250,0.1375,-0.0875*
1,1,0.5250,-0.1375,-0.0875*
1,1,0.5250,-0.1375,0.0875*
%
%ADD55ROUNDEDRECTD55*%
%ADD56C,1.2700*%
G36*
X1663291Y1358507D02*
X1663421Y1358496D01*
X1663551Y1358479D01*
X1663680Y1358455D01*
X1663807Y1358425D01*
X1663933Y1358388D01*
X1664056Y1358344D01*
X1664177Y1358294D01*
X1664295Y1358237D01*
X1664410Y1358175D01*
X1664522Y1358107D01*
X1664630Y1358033D01*
X1664733Y1357953D01*
X1664833Y1357868D01*
X1664928Y1357778D01*
X1665018Y1357683D01*
X1665103Y1357583D01*
X1665182Y1357480D01*
X1665257Y1357372D01*
X1665325Y1357260D01*
X1665388Y1357145D01*
X1665444Y1357027D01*
X1665494Y1356906D01*
X1665538Y1356783D01*
X1665575Y1356657D01*
X1665605Y1356530D01*
X1665629Y1356401D01*
X1665646Y1356271D01*
X1665657Y1356141D01*
X1665660Y1356010D01*
Y1350510D01*
Y1349510D01*
X1646660D01*
Y1350510D01*
Y1356010D01*
X1646663Y1356141D01*
X1646674Y1356271D01*
X1646691Y1356401D01*
X1646715Y1356530D01*
X1646745Y1356657D01*
X1646782Y1356783D01*
X1646826Y1356906D01*
X1646876Y1357027D01*
X1646933Y1357145D01*
X1646995Y1357260D01*
X1647063Y1357372D01*
X1647137Y1357480D01*
X1647217Y1357583D01*
X1647302Y1357683D01*
X1647392Y1357778D01*
X1647487Y1357868D01*
X1647587Y1357953D01*
X1647691Y1358033D01*
X1647798Y1358107D01*
X1647910Y1358175D01*
X1648025Y1358237D01*
X1648143Y1358294D01*
X1648264Y1358344D01*
X1648387Y1358388D01*
X1648513Y1358425D01*
X1648640Y1358455D01*
X1648769Y1358479D01*
X1648899Y1358496D01*
X1649029Y1358507D01*
X1649160Y1358510D01*
X1663160D01*
X1663291Y1358507D01*
D02*
G37*
G36*
X1665660Y1273010D02*
Y1267510D01*
X1665657Y1267379D01*
X1665646Y1267249D01*
X1665629Y1267119D01*
X1665605Y1266990D01*
X1665575Y1266863D01*
X1665538Y1266737D01*
X1665494Y1266614D01*
X1665444Y1266493D01*
X1665388Y1266375D01*
X1665325Y1266260D01*
X1665257Y1266148D01*
X1665182Y1266040D01*
X1665103Y1265937D01*
X1665018Y1265837D01*
X1664928Y1265742D01*
X1664833Y1265652D01*
X1664733Y1265567D01*
X1664630Y1265487D01*
X1664522Y1265413D01*
X1664410Y1265345D01*
X1664295Y1265283D01*
X1664177Y1265226D01*
X1664056Y1265176D01*
X1663933Y1265132D01*
X1663807Y1265095D01*
X1663680Y1265065D01*
X1663551Y1265041D01*
X1663421Y1265024D01*
X1663291Y1265013D01*
X1663160Y1265010D01*
X1649160D01*
X1649029Y1265013D01*
X1648899Y1265024D01*
X1648769Y1265041D01*
X1648640Y1265065D01*
X1648513Y1265095D01*
X1648387Y1265132D01*
X1648264Y1265176D01*
X1648143Y1265226D01*
X1648025Y1265283D01*
X1647910Y1265345D01*
X1647798Y1265413D01*
X1647691Y1265487D01*
X1647587Y1265567D01*
X1647487Y1265652D01*
X1647392Y1265742D01*
X1647302Y1265837D01*
X1647217Y1265937D01*
X1647137Y1266040D01*
X1647063Y1266148D01*
X1646995Y1266260D01*
X1646933Y1266375D01*
X1646876Y1266493D01*
X1646826Y1266614D01*
X1646782Y1266737D01*
X1646745Y1266863D01*
X1646715Y1266990D01*
X1646691Y1267119D01*
X1646674Y1267249D01*
X1646663Y1267379D01*
X1646660Y1267510D01*
Y1273010D01*
Y1274010D01*
X1665660D01*
Y1273010D01*
D02*
G37*
G36*
X1642110Y1386840D02*
Y1248410D01*
X1653540Y1236980D01*
X1687830D01*
X1692910Y1231900D01*
Y737870D01*
X1684020Y728980D01*
X961390D01*
Y730250D01*
X883920Y807720D01*
Y1313180D01*
X969010Y1398270D01*
X1630680D01*
X1642110Y1386840D01*
D02*
G37*
%LPC*%
G36*
X1659660Y1356510D02*
X1652660D01*
X1652503Y1356506D01*
X1652346Y1356494D01*
X1652191Y1356473D01*
X1652036Y1356444D01*
X1651884Y1356408D01*
X1651733Y1356363D01*
X1651585Y1356311D01*
X1651440Y1356251D01*
X1651298Y1356183D01*
X1651160Y1356108D01*
X1651026Y1356026D01*
X1650897Y1355937D01*
X1650772Y1355841D01*
X1650653Y1355739D01*
X1650539Y1355631D01*
X1650431Y1355517D01*
X1650329Y1355398D01*
X1650233Y1355273D01*
X1650144Y1355144D01*
X1650062Y1355010D01*
X1649987Y1354872D01*
X1649919Y1354730D01*
X1649859Y1354585D01*
X1649807Y1354437D01*
X1649762Y1354286D01*
X1649726Y1354134D01*
X1649697Y1353979D01*
X1649677Y1353824D01*
X1649664Y1353667D01*
X1649660Y1353510D01*
X1649664Y1353353D01*
X1649677Y1353196D01*
X1649697Y1353041D01*
X1649726Y1352886D01*
X1649762Y1352733D01*
X1649807Y1352583D01*
X1649859Y1352435D01*
X1649919Y1352290D01*
X1649987Y1352148D01*
X1650062Y1352010D01*
X1650144Y1351876D01*
X1650233Y1351747D01*
X1650329Y1351622D01*
X1650431Y1351503D01*
X1650539Y1351389D01*
X1650653Y1351281D01*
X1650772Y1351179D01*
X1650897Y1351083D01*
X1651026Y1350994D01*
X1651160Y1350912D01*
X1651298Y1350837D01*
X1651440Y1350769D01*
X1651585Y1350709D01*
X1651733Y1350657D01*
X1651884Y1350612D01*
X1652036Y1350576D01*
X1652191Y1350547D01*
X1652346Y1350526D01*
X1652503Y1350514D01*
X1652660Y1350510D01*
X1659660D01*
X1659817Y1350514D01*
X1659974Y1350526D01*
X1660129Y1350547D01*
X1660284Y1350576D01*
X1660437Y1350612D01*
X1660587Y1350657D01*
X1660735Y1350709D01*
X1660880Y1350769D01*
X1661022Y1350837D01*
X1661160Y1350912D01*
X1661294Y1350994D01*
X1661423Y1351083D01*
X1661548Y1351179D01*
X1661667Y1351281D01*
X1661781Y1351389D01*
X1661889Y1351503D01*
X1661991Y1351622D01*
X1662087Y1351747D01*
X1662176Y1351876D01*
X1662258Y1352010D01*
X1662333Y1352148D01*
X1662401Y1352290D01*
X1662461Y1352435D01*
X1662513Y1352583D01*
X1662558Y1352733D01*
X1662594Y1352886D01*
X1662623Y1353041D01*
X1662644Y1353196D01*
X1662656Y1353353D01*
X1662660Y1353510D01*
X1662656Y1353667D01*
X1662644Y1353824D01*
X1662623Y1353979D01*
X1662594Y1354134D01*
X1662558Y1354286D01*
X1662513Y1354437D01*
X1662461Y1354585D01*
X1662401Y1354730D01*
X1662333Y1354872D01*
X1662258Y1355010D01*
X1662176Y1355144D01*
X1662087Y1355273D01*
X1661991Y1355398D01*
X1661889Y1355517D01*
X1661781Y1355631D01*
X1661667Y1355739D01*
X1661548Y1355841D01*
X1661423Y1355937D01*
X1661294Y1356026D01*
X1661160Y1356108D01*
X1661022Y1356183D01*
X1660880Y1356251D01*
X1660735Y1356311D01*
X1660587Y1356363D01*
X1660437Y1356408D01*
X1660284Y1356444D01*
X1660129Y1356473D01*
X1659974Y1356494D01*
X1659817Y1356506D01*
X1659660Y1356510D01*
D02*
G37*
G36*
Y1273010D02*
X1652660D01*
X1652503Y1273006D01*
X1652346Y1272993D01*
X1652191Y1272973D01*
X1652036Y1272944D01*
X1651884Y1272908D01*
X1651733Y1272863D01*
X1651585Y1272811D01*
X1651440Y1272751D01*
X1651298Y1272683D01*
X1651160Y1272608D01*
X1651026Y1272526D01*
X1650897Y1272437D01*
X1650772Y1272341D01*
X1650653Y1272239D01*
X1650539Y1272131D01*
X1650431Y1272017D01*
X1650329Y1271898D01*
X1650233Y1271773D01*
X1650144Y1271644D01*
X1650062Y1271510D01*
X1649987Y1271372D01*
X1649919Y1271230D01*
X1649859Y1271085D01*
X1649807Y1270937D01*
X1649762Y1270786D01*
X1649726Y1270634D01*
X1649697Y1270479D01*
X1649677Y1270324D01*
X1649664Y1270167D01*
X1649660Y1270010D01*
X1649664Y1269853D01*
X1649677Y1269696D01*
X1649697Y1269541D01*
X1649726Y1269386D01*
X1649762Y1269233D01*
X1649807Y1269083D01*
X1649859Y1268935D01*
X1649919Y1268790D01*
X1649987Y1268648D01*
X1650062Y1268510D01*
X1650144Y1268376D01*
X1650233Y1268247D01*
X1650329Y1268122D01*
X1650431Y1268003D01*
X1650539Y1267889D01*
X1650653Y1267781D01*
X1650772Y1267679D01*
X1650897Y1267583D01*
X1651026Y1267494D01*
X1651160Y1267412D01*
X1651298Y1267337D01*
X1651440Y1267269D01*
X1651585Y1267209D01*
X1651733Y1267157D01*
X1651884Y1267112D01*
X1652036Y1267076D01*
X1652191Y1267047D01*
X1652346Y1267026D01*
X1652503Y1267014D01*
X1652660Y1267010D01*
X1659660D01*
X1659817Y1267014D01*
X1659974Y1267026D01*
X1660129Y1267047D01*
X1660284Y1267076D01*
X1660437Y1267112D01*
X1660587Y1267157D01*
X1660735Y1267209D01*
X1660880Y1267269D01*
X1661022Y1267337D01*
X1661160Y1267412D01*
X1661294Y1267494D01*
X1661423Y1267583D01*
X1661548Y1267679D01*
X1661667Y1267781D01*
X1661781Y1267889D01*
X1661889Y1268003D01*
X1661991Y1268122D01*
X1662087Y1268247D01*
X1662176Y1268376D01*
X1662258Y1268510D01*
X1662333Y1268648D01*
X1662401Y1268790D01*
X1662461Y1268935D01*
X1662513Y1269083D01*
X1662558Y1269233D01*
X1662594Y1269386D01*
X1662623Y1269541D01*
X1662644Y1269696D01*
X1662656Y1269853D01*
X1662660Y1270010D01*
X1662656Y1270167D01*
X1662644Y1270324D01*
X1662623Y1270479D01*
X1662594Y1270634D01*
X1662558Y1270786D01*
X1662513Y1270937D01*
X1662461Y1271085D01*
X1662401Y1271230D01*
X1662333Y1271372D01*
X1662258Y1271510D01*
X1662176Y1271644D01*
X1662087Y1271773D01*
X1661991Y1271898D01*
X1661889Y1272017D01*
X1661781Y1272131D01*
X1661667Y1272239D01*
X1661548Y1272341D01*
X1661423Y1272437D01*
X1661294Y1272526D01*
X1661160Y1272608D01*
X1661022Y1272683D01*
X1660880Y1272751D01*
X1660735Y1272811D01*
X1660587Y1272863D01*
X1660437Y1272908D01*
X1660284Y1272944D01*
X1660129Y1272973D01*
X1659974Y1272993D01*
X1659817Y1273006D01*
X1659660Y1273010D01*
D02*
G37*
G36*
X1582420Y1379129D02*
Y1371600D01*
X1589949D01*
X1589811Y1372651D01*
X1588915Y1374813D01*
X1587490Y1376670D01*
X1585633Y1378095D01*
X1583471Y1378991D01*
X1582420Y1379129D01*
D02*
G37*
G36*
X1579880D02*
X1578829Y1378991D01*
X1576667Y1378095D01*
X1574810Y1376670D01*
X1573385Y1374813D01*
X1572489Y1372651D01*
X1572350Y1371600D01*
X1579880D01*
Y1379129D01*
D02*
G37*
G36*
X1540390Y1390530D02*
X1520310D01*
Y1370450D01*
X1540390D01*
Y1390530D01*
D02*
G37*
G36*
X1504950Y1390617D02*
X1502329Y1390272D01*
X1499887Y1389260D01*
X1497789Y1387651D01*
X1496180Y1385553D01*
X1495168Y1383111D01*
X1494931Y1381304D01*
X1482090D01*
X1480806Y1381049D01*
X1479718Y1380322D01*
X1466730Y1367334D01*
X1458573D01*
X1458105Y1368463D01*
X1456680Y1370320D01*
X1454823Y1371745D01*
X1452661Y1372641D01*
X1450340Y1372947D01*
X1448019Y1372641D01*
X1445857Y1371745D01*
X1444000Y1370320D01*
X1442575Y1368463D01*
X1441679Y1366301D01*
X1441373Y1363980D01*
X1441679Y1361659D01*
X1442575Y1359497D01*
X1444000Y1357640D01*
X1445857Y1356215D01*
X1448019Y1355319D01*
X1450340Y1355013D01*
X1452661Y1355319D01*
X1454823Y1356215D01*
X1456680Y1357640D01*
X1458105Y1359497D01*
X1458573Y1360625D01*
X1468120D01*
X1469404Y1360881D01*
X1470492Y1361608D01*
X1483479Y1374595D01*
X1496818D01*
X1497789Y1373329D01*
X1499887Y1371720D01*
X1502329Y1370708D01*
X1504950Y1370363D01*
X1507571Y1370708D01*
X1510013Y1371720D01*
X1512111Y1373329D01*
X1513720Y1375427D01*
X1514732Y1377869D01*
X1515077Y1380490D01*
X1514732Y1383111D01*
X1513720Y1385553D01*
X1512111Y1387651D01*
X1510013Y1389260D01*
X1507571Y1390272D01*
X1504950Y1390617D01*
D02*
G37*
G36*
X1589949Y1369060D02*
X1582420D01*
Y1361530D01*
X1583471Y1361669D01*
X1585633Y1362565D01*
X1587490Y1363990D01*
X1588915Y1365847D01*
X1589811Y1368009D01*
X1589949Y1369060D01*
D02*
G37*
G36*
X1579880D02*
X1572350D01*
X1572489Y1368009D01*
X1573385Y1365847D01*
X1574810Y1363990D01*
X1576667Y1362565D01*
X1578829Y1361669D01*
X1579880Y1361530D01*
Y1369060D01*
D02*
G37*
G36*
X1225430Y1363860D02*
X1216660D01*
Y1355090D01*
X1225430D01*
Y1363860D01*
D02*
G37*
G36*
X1191260Y1363779D02*
Y1355090D01*
X1199949D01*
X1199772Y1356441D01*
X1198760Y1358883D01*
X1197151Y1360981D01*
X1195053Y1362590D01*
X1192611Y1363602D01*
X1191260Y1363779D01*
D02*
G37*
G36*
X1188720D02*
X1187369Y1363602D01*
X1184927Y1362590D01*
X1182829Y1360981D01*
X1181220Y1358883D01*
X1180208Y1356441D01*
X1180031Y1355090D01*
X1188720D01*
Y1363779D01*
D02*
G37*
G36*
X1214120Y1363860D02*
X1205350D01*
Y1355090D01*
X1214120D01*
Y1363860D01*
D02*
G37*
G36*
X1199949Y1352550D02*
X1191260D01*
Y1343861D01*
X1192611Y1344038D01*
X1195053Y1345050D01*
X1197151Y1346659D01*
X1198760Y1348757D01*
X1199772Y1351199D01*
X1199949Y1352550D01*
D02*
G37*
G36*
X1188720D02*
X1180031D01*
X1180208Y1351199D01*
X1181220Y1348757D01*
X1182829Y1346659D01*
X1184927Y1345050D01*
X1187369Y1344038D01*
X1188720Y1343861D01*
Y1352550D01*
D02*
G37*
G36*
X1225430D02*
X1216660D01*
Y1343780D01*
X1225430D01*
Y1352550D01*
D02*
G37*
G36*
X1214120D02*
X1205350D01*
Y1343780D01*
X1214120D01*
Y1352550D01*
D02*
G37*
G36*
X1627160Y1340850D02*
X1625160D01*
X1625126Y1340843D01*
X1625092Y1340849D01*
X1624870Y1340843D01*
X1624803Y1340828D01*
X1624734Y1340836D01*
X1624512Y1340818D01*
X1624446Y1340800D01*
X1624378Y1340804D01*
X1624157Y1340775D01*
X1624092Y1340753D01*
X1624023Y1340754D01*
X1623805Y1340714D01*
X1623741Y1340688D01*
X1623672Y1340685D01*
X1623456Y1340633D01*
X1623393Y1340605D01*
X1623324Y1340598D01*
X1623111Y1340535D01*
X1623050Y1340503D01*
X1622982Y1340493D01*
X1622773Y1340419D01*
X1622713Y1340384D01*
X1622646Y1340370D01*
X1622440Y1340285D01*
X1622383Y1340247D01*
X1622316Y1340230D01*
X1622116Y1340134D01*
X1622061Y1340093D01*
X1621995Y1340073D01*
X1621799Y1339966D01*
X1621746Y1339922D01*
X1621682Y1339899D01*
X1621492Y1339783D01*
X1621442Y1339736D01*
X1621378Y1339709D01*
X1621195Y1339583D01*
X1621147Y1339533D01*
X1621086Y1339503D01*
X1620909Y1339368D01*
X1620863Y1339316D01*
X1620803Y1339282D01*
X1620634Y1339138D01*
X1620592Y1339084D01*
X1620534Y1339047D01*
X1620372Y1338894D01*
X1620332Y1338838D01*
X1620276Y1338798D01*
X1620123Y1338636D01*
X1620086Y1338578D01*
X1620032Y1338536D01*
X1619888Y1338367D01*
X1619854Y1338306D01*
X1619802Y1338261D01*
X1619667Y1338084D01*
X1619637Y1338023D01*
X1619588Y1337975D01*
X1619462Y1337792D01*
X1619434Y1337728D01*
X1619388Y1337678D01*
X1619271Y1337488D01*
X1619247Y1337424D01*
X1619203Y1337371D01*
X1619097Y1337175D01*
X1619077Y1337110D01*
X1619036Y1337054D01*
X1618940Y1336854D01*
X1618923Y1336787D01*
X1618885Y1336730D01*
X1618800Y1336524D01*
X1618786Y1336457D01*
X1618751Y1336398D01*
X1618677Y1336188D01*
X1618667Y1336120D01*
X1618635Y1336059D01*
X1618572Y1335845D01*
X1618565Y1335777D01*
X1618537Y1335715D01*
X1618485Y1335498D01*
X1618482Y1335429D01*
X1618457Y1335365D01*
X1618416Y1335147D01*
X1618417Y1335078D01*
X1618395Y1335013D01*
X1618366Y1334792D01*
X1618370Y1334724D01*
X1618351Y1334657D01*
X1618334Y1334435D01*
X1618342Y1334367D01*
X1618327Y1334300D01*
X1618321Y1334078D01*
X1618333Y1334010D01*
X1618321Y1333942D01*
X1618327Y1333720D01*
X1618342Y1333653D01*
X1618334Y1333584D01*
X1618351Y1333363D01*
X1618370Y1333296D01*
X1618366Y1333228D01*
X1618395Y1333007D01*
X1618417Y1332942D01*
X1618416Y1332873D01*
X1618457Y1332655D01*
X1618482Y1332591D01*
X1618485Y1332522D01*
X1618537Y1332305D01*
X1618565Y1332243D01*
X1618572Y1332175D01*
X1618635Y1331961D01*
X1618667Y1331900D01*
X1618677Y1331832D01*
X1618751Y1331622D01*
X1618786Y1331563D01*
X1618800Y1331496D01*
X1618885Y1331290D01*
X1618923Y1331233D01*
X1618940Y1331167D01*
X1619036Y1330966D01*
X1619077Y1330910D01*
X1619097Y1330845D01*
X1619203Y1330649D01*
X1619247Y1330596D01*
X1619271Y1330532D01*
X1619388Y1330342D01*
X1619434Y1330292D01*
X1619461Y1330228D01*
X1619587Y1330045D01*
X1620120Y1329300D01*
Y1326030D01*
X1629410D01*
X1638700D01*
Y1329300D01*
X1633739D01*
X1633343Y1329718D01*
X1633049Y1330532D01*
X1633073Y1330596D01*
X1633117Y1330649D01*
X1633223Y1330845D01*
X1633243Y1330910D01*
X1633284Y1330966D01*
X1633380Y1331166D01*
X1633397Y1331233D01*
X1633435Y1331290D01*
X1633520Y1331496D01*
X1633534Y1331563D01*
X1633569Y1331622D01*
X1633643Y1331832D01*
X1633653Y1331900D01*
X1633685Y1331961D01*
X1633748Y1332175D01*
X1633755Y1332243D01*
X1633783Y1332305D01*
X1633835Y1332522D01*
X1633838Y1332590D01*
X1633864Y1332654D01*
X1633904Y1332873D01*
X1633903Y1332942D01*
X1633925Y1333007D01*
X1633954Y1333228D01*
X1633950Y1333296D01*
X1633969Y1333363D01*
X1633986Y1333584D01*
X1633978Y1333653D01*
X1633993Y1333720D01*
X1633999Y1333942D01*
X1633987Y1334010D01*
X1633999Y1334078D01*
X1633993Y1334300D01*
X1633978Y1334367D01*
X1633986Y1334435D01*
X1633969Y1334657D01*
X1633950Y1334724D01*
X1633954Y1334792D01*
X1633925Y1335013D01*
X1633903Y1335078D01*
X1633904Y1335147D01*
X1633864Y1335366D01*
X1633838Y1335430D01*
X1633835Y1335498D01*
X1633783Y1335715D01*
X1633755Y1335777D01*
X1633748Y1335845D01*
X1633685Y1336059D01*
X1633653Y1336120D01*
X1633643Y1336188D01*
X1633569Y1336398D01*
X1633534Y1336457D01*
X1633520Y1336524D01*
X1633435Y1336729D01*
X1633397Y1336787D01*
X1633380Y1336854D01*
X1633284Y1337055D01*
X1633243Y1337110D01*
X1633223Y1337175D01*
X1633117Y1337370D01*
X1633073Y1337424D01*
X1633049Y1337488D01*
X1632932Y1337678D01*
X1632886Y1337728D01*
X1632859Y1337791D01*
X1632733Y1337975D01*
X1632683Y1338023D01*
X1632653Y1338085D01*
X1632518Y1338261D01*
X1632466Y1338306D01*
X1632432Y1338367D01*
X1632288Y1338536D01*
X1632234Y1338578D01*
X1632197Y1338636D01*
X1632044Y1338798D01*
X1631988Y1338838D01*
X1631948Y1338894D01*
X1631787Y1339047D01*
X1631728Y1339084D01*
X1631686Y1339138D01*
X1631517Y1339282D01*
X1631456Y1339316D01*
X1631411Y1339368D01*
X1631235Y1339503D01*
X1631173Y1339533D01*
X1631125Y1339583D01*
X1630941Y1339709D01*
X1630878Y1339736D01*
X1630828Y1339783D01*
X1630638Y1339899D01*
X1630574Y1339922D01*
X1630521Y1339966D01*
X1630325Y1340073D01*
X1630260Y1340093D01*
X1630204Y1340134D01*
X1630003Y1340230D01*
X1629937Y1340247D01*
X1629880Y1340285D01*
X1629674Y1340370D01*
X1629607Y1340384D01*
X1629547Y1340419D01*
X1629338Y1340493D01*
X1629270Y1340503D01*
X1629209Y1340535D01*
X1628996Y1340598D01*
X1628927Y1340605D01*
X1628865Y1340633D01*
X1628648Y1340685D01*
X1628579Y1340688D01*
X1628515Y1340714D01*
X1628297Y1340754D01*
X1628228Y1340753D01*
X1628163Y1340775D01*
X1627942Y1340804D01*
X1627874Y1340800D01*
X1627808Y1340818D01*
X1627586Y1340836D01*
X1627517Y1340828D01*
X1627450Y1340843D01*
X1627228Y1340849D01*
X1627194Y1340843D01*
X1627160Y1340850D01*
D02*
G37*
G36*
X1488320Y1329570D02*
X1468240D01*
Y1322885D01*
X1459230D01*
X1457946Y1322629D01*
X1456858Y1321902D01*
X1451778Y1316822D01*
X1451051Y1315734D01*
X1450795Y1314450D01*
Y1270000D01*
X1451051Y1268716D01*
X1451778Y1267628D01*
X1459933Y1259473D01*
X1459941Y1259435D01*
X1460668Y1258347D01*
X1461547Y1257468D01*
X1462635Y1256741D01*
X1463919Y1256486D01*
X1513721D01*
X1533058Y1237148D01*
X1534146Y1236421D01*
X1535430Y1236165D01*
X1583571D01*
X1594018Y1225718D01*
X1594306Y1225526D01*
Y1202070D01*
X1583810D01*
Y1192530D01*
Y1182990D01*
X1594185D01*
Y1155700D01*
Y1133719D01*
X1594441Y1132435D01*
X1595168Y1131347D01*
X1596047Y1130468D01*
X1597135Y1129741D01*
X1598419Y1129485D01*
X1605161D01*
X1606396Y1128251D01*
Y1123442D01*
X1604670D01*
Y1108329D01*
X1617980D01*
Y1115885D01*
Y1123442D01*
X1613104D01*
Y1129640D01*
X1612849Y1130924D01*
X1612122Y1132012D01*
X1608922Y1135212D01*
X1607834Y1135939D01*
X1606550Y1136195D01*
X1600894D01*
Y1152346D01*
X1620401D01*
X1626055Y1146691D01*
Y1123442D01*
X1620520D01*
Y1115885D01*
Y1108329D01*
X1633830D01*
Y1123442D01*
X1632764D01*
Y1148080D01*
X1632509Y1149364D01*
X1631782Y1150452D01*
X1624162Y1158072D01*
X1623074Y1158799D01*
X1621790Y1159054D01*
X1600894D01*
Y1182990D01*
X1605580D01*
Y1202070D01*
X1601015D01*
Y1227211D01*
X1600759Y1228495D01*
X1600032Y1229583D01*
X1599153Y1230462D01*
X1598065Y1231189D01*
X1598027Y1231197D01*
X1587332Y1241892D01*
X1586244Y1242619D01*
X1584960Y1242875D01*
X1536819D01*
X1517482Y1262212D01*
X1516394Y1262939D01*
X1515110Y1263195D01*
X1465604D01*
X1465412Y1263482D01*
X1457504Y1271389D01*
Y1313060D01*
X1460620Y1316176D01*
X1468240D01*
Y1309490D01*
X1488320D01*
Y1329570D01*
D02*
G37*
G36*
X1238250Y1315629D02*
Y1308100D01*
X1245779D01*
X1245641Y1309151D01*
X1244745Y1311313D01*
X1243320Y1313170D01*
X1241463Y1314595D01*
X1239301Y1315491D01*
X1238250Y1315629D01*
D02*
G37*
G36*
X1235710D02*
X1234659Y1315491D01*
X1232497Y1314595D01*
X1230640Y1313170D01*
X1229215Y1311313D01*
X1228319Y1309151D01*
X1228180Y1308100D01*
X1235710D01*
Y1315629D01*
D02*
G37*
G36*
X1245779Y1305560D02*
X1238250D01*
Y1298031D01*
X1239301Y1298169D01*
X1241463Y1299065D01*
X1243320Y1300490D01*
X1244745Y1302347D01*
X1245641Y1304509D01*
X1245779Y1305560D01*
D02*
G37*
G36*
X1235710D02*
X1228180D01*
X1228319Y1304509D01*
X1229215Y1302347D01*
X1230640Y1300490D01*
X1232497Y1299065D01*
X1234659Y1298169D01*
X1235710Y1298031D01*
Y1305560D01*
D02*
G37*
G36*
X1516260Y1304170D02*
X1507490D01*
Y1295400D01*
X1516260D01*
Y1304170D01*
D02*
G37*
G36*
X1479550Y1304089D02*
Y1295400D01*
X1488239D01*
X1488062Y1296751D01*
X1487050Y1299193D01*
X1485441Y1301291D01*
X1483343Y1302900D01*
X1480901Y1303912D01*
X1479550Y1304089D01*
D02*
G37*
G36*
X1477010D02*
X1475659Y1303912D01*
X1473217Y1302900D01*
X1471119Y1301291D01*
X1469510Y1299193D01*
X1468498Y1296751D01*
X1468321Y1295400D01*
X1477010D01*
Y1304089D01*
D02*
G37*
G36*
X1504950Y1304170D02*
X1496180D01*
Y1295400D01*
X1504950D01*
Y1304170D01*
D02*
G37*
G36*
X1488239Y1292860D02*
X1479550D01*
Y1284171D01*
X1480901Y1284348D01*
X1483343Y1285360D01*
X1485441Y1286969D01*
X1487050Y1289067D01*
X1488062Y1291509D01*
X1488239Y1292860D01*
D02*
G37*
G36*
X1477010D02*
X1468321D01*
X1468498Y1291509D01*
X1469510Y1289067D01*
X1471119Y1286969D01*
X1473217Y1285360D01*
X1475659Y1284348D01*
X1477010Y1284171D01*
Y1292860D01*
D02*
G37*
G36*
X1516260D02*
X1507490D01*
Y1284090D01*
X1516260D01*
Y1292860D01*
D02*
G37*
G36*
X1504950D02*
X1496180D01*
Y1284090D01*
X1504950D01*
Y1292860D01*
D02*
G37*
G36*
X1506220Y1329657D02*
X1503599Y1329312D01*
X1501157Y1328300D01*
X1499059Y1326691D01*
X1497450Y1324593D01*
X1496438Y1322151D01*
X1496093Y1319530D01*
X1496438Y1316909D01*
X1497450Y1314467D01*
X1499059Y1312369D01*
X1501157Y1310760D01*
X1503599Y1309748D01*
X1506220Y1309403D01*
X1508841Y1309748D01*
X1511283Y1310760D01*
X1513381Y1312369D01*
X1514990Y1314467D01*
X1516002Y1316909D01*
X1516072Y1317446D01*
X1526420D01*
X1530806Y1313060D01*
Y1271270D01*
X1531061Y1269986D01*
X1531788Y1268898D01*
X1539408Y1261278D01*
X1540496Y1260551D01*
X1541780Y1260295D01*
X1602740D01*
X1604024Y1260551D01*
X1605112Y1261278D01*
X1612732Y1268898D01*
X1613459Y1269986D01*
X1613714Y1271270D01*
Y1291470D01*
X1617649Y1295405D01*
X1619810D01*
X1620093Y1294182D01*
X1619587Y1293475D01*
X1619461Y1293291D01*
X1619434Y1293228D01*
X1619388Y1293178D01*
X1619271Y1292988D01*
X1619247Y1292924D01*
X1619203Y1292871D01*
X1619097Y1292675D01*
X1619077Y1292610D01*
X1619036Y1292554D01*
X1618940Y1292353D01*
X1618923Y1292287D01*
X1618885Y1292230D01*
X1618800Y1292024D01*
X1618786Y1291957D01*
X1618751Y1291897D01*
X1618677Y1291688D01*
X1618667Y1291620D01*
X1618635Y1291559D01*
X1618572Y1291346D01*
X1618565Y1291277D01*
X1618537Y1291214D01*
X1618485Y1290998D01*
X1618482Y1290929D01*
X1618457Y1290865D01*
X1618416Y1290647D01*
X1618417Y1290578D01*
X1618395Y1290513D01*
X1618366Y1290292D01*
X1618370Y1290224D01*
X1618351Y1290157D01*
X1618334Y1289935D01*
X1618342Y1289867D01*
X1618327Y1289800D01*
X1618321Y1289578D01*
X1618333Y1289510D01*
X1618321Y1289442D01*
X1618327Y1289220D01*
X1618342Y1289153D01*
X1618334Y1289084D01*
X1618351Y1288863D01*
X1618370Y1288796D01*
X1618366Y1288728D01*
X1618395Y1288507D01*
X1618417Y1288442D01*
X1618416Y1288373D01*
X1618457Y1288154D01*
X1618482Y1288091D01*
X1618485Y1288022D01*
X1618537Y1287805D01*
X1618565Y1287743D01*
X1618572Y1287674D01*
X1618635Y1287461D01*
X1618667Y1287400D01*
X1618677Y1287332D01*
X1618751Y1287122D01*
X1618786Y1287063D01*
X1618800Y1286996D01*
X1618885Y1286790D01*
X1618923Y1286733D01*
X1618940Y1286666D01*
X1619036Y1286466D01*
X1619077Y1286411D01*
X1619097Y1286345D01*
X1619203Y1286149D01*
X1619247Y1286096D01*
X1619271Y1286032D01*
X1619388Y1285842D01*
X1619434Y1285792D01*
X1619462Y1285728D01*
X1619588Y1285545D01*
X1619637Y1285497D01*
X1619667Y1285435D01*
X1619802Y1285259D01*
X1619854Y1285214D01*
X1619888Y1285154D01*
X1620032Y1284984D01*
X1620086Y1284942D01*
X1620123Y1284884D01*
X1620276Y1284722D01*
X1620332Y1284682D01*
X1620372Y1284626D01*
X1620534Y1284473D01*
X1620592Y1284436D01*
X1620634Y1284382D01*
X1620803Y1284238D01*
X1620863Y1284204D01*
X1620909Y1284152D01*
X1621086Y1284017D01*
X1621147Y1283987D01*
X1621195Y1283938D01*
X1621378Y1283811D01*
X1621442Y1283784D01*
X1621492Y1283737D01*
X1621682Y1283621D01*
X1621746Y1283598D01*
X1621799Y1283553D01*
X1621995Y1283447D01*
X1622061Y1283427D01*
X1622116Y1283386D01*
X1622316Y1283290D01*
X1622383Y1283273D01*
X1622440Y1283235D01*
X1622646Y1283150D01*
X1622713Y1283136D01*
X1622773Y1283101D01*
X1622982Y1283027D01*
X1623050Y1283017D01*
X1623111Y1282985D01*
X1623324Y1282922D01*
X1623393Y1282915D01*
X1623456Y1282887D01*
X1623672Y1282835D01*
X1623741Y1282832D01*
X1623805Y1282806D01*
X1624023Y1282766D01*
X1624092Y1282767D01*
X1624157Y1282745D01*
X1624378Y1282716D01*
X1624446Y1282720D01*
X1624512Y1282702D01*
X1624734Y1282684D01*
X1624803Y1282692D01*
X1624870Y1282677D01*
X1625092Y1282671D01*
X1625126Y1282677D01*
X1625160Y1282670D01*
X1627160D01*
X1627194Y1282677D01*
X1627228Y1282671D01*
X1627450Y1282677D01*
X1627517Y1282692D01*
X1627586Y1282684D01*
X1627808Y1282702D01*
X1627874Y1282720D01*
X1627942Y1282716D01*
X1628163Y1282745D01*
X1628228Y1282767D01*
X1628297Y1282766D01*
X1628515Y1282807D01*
X1628579Y1282832D01*
X1628648Y1282835D01*
X1628865Y1282887D01*
X1628927Y1282915D01*
X1628996Y1282922D01*
X1629209Y1282985D01*
X1629270Y1283017D01*
X1629338Y1283027D01*
X1629547Y1283101D01*
X1629607Y1283136D01*
X1629674Y1283150D01*
X1629880Y1283235D01*
X1629937Y1283273D01*
X1630003Y1283290D01*
X1630204Y1283386D01*
X1630260Y1283427D01*
X1630325Y1283447D01*
X1630521Y1283553D01*
X1630574Y1283598D01*
X1630638Y1283621D01*
X1630828Y1283737D01*
X1630878Y1283784D01*
X1630941Y1283811D01*
X1631125Y1283937D01*
X1631173Y1283987D01*
X1631235Y1284017D01*
X1631411Y1284153D01*
X1631456Y1284204D01*
X1631517Y1284238D01*
X1631686Y1284382D01*
X1631728Y1284436D01*
X1631787Y1284473D01*
X1631948Y1284626D01*
X1631988Y1284682D01*
X1632044Y1284722D01*
X1632197Y1284884D01*
X1632234Y1284942D01*
X1632288Y1284984D01*
X1632432Y1285154D01*
X1632466Y1285213D01*
X1632518Y1285259D01*
X1632653Y1285435D01*
X1632683Y1285497D01*
X1632733Y1285545D01*
X1632859Y1285728D01*
X1632886Y1285791D01*
X1632932Y1285842D01*
X1633049Y1286032D01*
X1633073Y1286096D01*
X1633117Y1286149D01*
X1633223Y1286345D01*
X1633243Y1286411D01*
X1633284Y1286465D01*
X1633380Y1286666D01*
X1633397Y1286733D01*
X1633435Y1286790D01*
X1633520Y1286996D01*
X1633534Y1287063D01*
X1633569Y1287122D01*
X1633643Y1287332D01*
X1633653Y1287400D01*
X1633685Y1287461D01*
X1633748Y1287674D01*
X1633755Y1287743D01*
X1633783Y1287805D01*
X1633835Y1288022D01*
X1633838Y1288090D01*
X1633864Y1288154D01*
X1633904Y1288373D01*
X1633903Y1288442D01*
X1633925Y1288507D01*
X1633954Y1288728D01*
X1633950Y1288796D01*
X1633969Y1288863D01*
X1633986Y1289084D01*
X1633978Y1289153D01*
X1633993Y1289220D01*
X1633999Y1289442D01*
X1633987Y1289510D01*
X1633999Y1289578D01*
X1633993Y1289800D01*
X1633978Y1289867D01*
X1633986Y1289935D01*
X1633969Y1290157D01*
X1633950Y1290224D01*
X1633954Y1290292D01*
X1633925Y1290513D01*
X1633903Y1290578D01*
X1633904Y1290647D01*
X1633864Y1290866D01*
X1633838Y1290930D01*
X1633835Y1290998D01*
X1633783Y1291214D01*
X1633755Y1291277D01*
X1633748Y1291346D01*
X1633685Y1291559D01*
X1633653Y1291620D01*
X1633643Y1291688D01*
X1633569Y1291897D01*
X1633534Y1291957D01*
X1633520Y1292024D01*
X1633435Y1292230D01*
X1633397Y1292287D01*
X1633380Y1292354D01*
X1633284Y1292554D01*
X1633243Y1292610D01*
X1633223Y1292675D01*
X1633117Y1292871D01*
X1633073Y1292924D01*
X1633049Y1292988D01*
X1633343Y1293802D01*
X1633739Y1294220D01*
X1638700D01*
Y1300720D01*
Y1307220D01*
Y1313720D01*
Y1320220D01*
Y1323490D01*
X1629410D01*
X1620120D01*
Y1320220D01*
Y1315114D01*
X1606819D01*
X1600032Y1321902D01*
X1598944Y1322629D01*
X1597660Y1322885D01*
X1594463D01*
X1593995Y1324013D01*
X1592570Y1325870D01*
X1590713Y1327295D01*
X1588551Y1328191D01*
X1586230Y1328497D01*
X1583909Y1328191D01*
X1581747Y1327295D01*
X1579890Y1325870D01*
X1578465Y1324013D01*
X1577569Y1321851D01*
X1577263Y1319530D01*
X1577569Y1317209D01*
X1578465Y1315047D01*
X1579890Y1313190D01*
X1581747Y1311765D01*
X1583909Y1310869D01*
X1586230Y1310563D01*
X1588551Y1310869D01*
X1590713Y1311765D01*
X1592570Y1313190D01*
X1593995Y1315047D01*
X1594463Y1316176D01*
X1596270D01*
X1601953Y1310494D01*
X1602104Y1310267D01*
X1602486Y1309884D01*
X1602473Y1309516D01*
X1602040Y1308535D01*
X1601156Y1308359D01*
X1600068Y1307632D01*
X1595444Y1303007D01*
X1593840Y1303010D01*
X1591983Y1304435D01*
X1589821Y1305331D01*
X1587500Y1305637D01*
X1585179Y1305331D01*
X1583017Y1304435D01*
X1581160Y1303010D01*
X1579735Y1301153D01*
X1578839Y1298991D01*
X1578533Y1296670D01*
X1578839Y1294349D01*
X1579735Y1292187D01*
X1581160Y1290330D01*
X1583017Y1288905D01*
X1585179Y1288009D01*
X1587500Y1287703D01*
X1589821Y1288009D01*
X1591983Y1288905D01*
X1593840Y1290330D01*
X1595265Y1292187D01*
X1596161Y1294349D01*
X1596316Y1295523D01*
X1597277Y1295714D01*
X1598365Y1296441D01*
X1603829Y1301906D01*
X1612866D01*
X1613392Y1300636D01*
X1607988Y1295232D01*
X1607261Y1294144D01*
X1607005Y1292860D01*
Y1272660D01*
X1601351Y1267004D01*
X1543170D01*
X1537514Y1272660D01*
Y1314450D01*
X1537259Y1315734D01*
X1536532Y1316822D01*
X1530182Y1323172D01*
X1529094Y1323899D01*
X1527810Y1324155D01*
X1515172D01*
X1514990Y1324593D01*
X1513381Y1326691D01*
X1511283Y1328300D01*
X1508841Y1329312D01*
X1506220Y1329657D01*
D02*
G37*
G36*
X1628140Y1249589D02*
Y1242060D01*
X1635670D01*
X1635531Y1243111D01*
X1634635Y1245273D01*
X1633210Y1247130D01*
X1631353Y1248555D01*
X1629191Y1249451D01*
X1628140Y1249589D01*
D02*
G37*
G36*
X1625600D02*
X1624549Y1249451D01*
X1622387Y1248555D01*
X1620530Y1247130D01*
X1619105Y1245273D01*
X1618209Y1243111D01*
X1618071Y1242060D01*
X1625600D01*
Y1249589D01*
D02*
G37*
G36*
X1635670Y1239520D02*
X1628140D01*
Y1231991D01*
X1629191Y1232129D01*
X1631353Y1233025D01*
X1633210Y1234450D01*
X1634635Y1236307D01*
X1635531Y1238469D01*
X1635670Y1239520D01*
D02*
G37*
G36*
X1625600D02*
X1618071D01*
X1618209Y1238469D01*
X1619105Y1236307D01*
X1620530Y1234450D01*
X1622387Y1233025D01*
X1624549Y1232129D01*
X1625600Y1231991D01*
Y1239520D01*
D02*
G37*
G36*
X1238250Y1226730D02*
X1237199Y1226591D01*
X1235037Y1225695D01*
X1233180Y1224270D01*
X1231755Y1222413D01*
X1230859Y1220251D01*
X1230721Y1219200D01*
X1238250D01*
Y1226730D01*
D02*
G37*
G36*
X1506220Y1222919D02*
Y1215390D01*
X1513750D01*
X1513611Y1216441D01*
X1512715Y1218603D01*
X1511290Y1220460D01*
X1509433Y1221885D01*
X1507271Y1222781D01*
X1506220Y1222919D01*
D02*
G37*
G36*
X1503680D02*
X1502629Y1222781D01*
X1500467Y1221885D01*
X1498610Y1220460D01*
X1497185Y1218603D01*
X1496289Y1216441D01*
X1496151Y1215390D01*
X1503680D01*
Y1222919D01*
D02*
G37*
G36*
X1248319Y1216660D02*
X1240790D01*
Y1209130D01*
X1241841Y1209269D01*
X1244003Y1210165D01*
X1245860Y1211590D01*
X1247285Y1213447D01*
X1248181Y1215609D01*
X1248319Y1216660D01*
D02*
G37*
G36*
X1513750Y1212850D02*
X1506220D01*
Y1205321D01*
X1507271Y1205459D01*
X1509433Y1206355D01*
X1511290Y1207780D01*
X1512715Y1209637D01*
X1513611Y1211799D01*
X1513750Y1212850D01*
D02*
G37*
G36*
X1503680D02*
X1496151D01*
X1496289Y1211799D01*
X1497185Y1209637D01*
X1498610Y1207780D01*
X1500467Y1206355D01*
X1502629Y1205459D01*
X1503680Y1205321D01*
Y1212850D01*
D02*
G37*
G36*
X1455720Y1213500D02*
X1448950D01*
Y1205230D01*
X1455720D01*
Y1213500D01*
D02*
G37*
G36*
Y1202690D02*
X1448950D01*
Y1194420D01*
X1455720D01*
Y1202690D01*
D02*
G37*
G36*
X1581270Y1202070D02*
X1574500D01*
Y1193800D01*
X1581270D01*
Y1202070D01*
D02*
G37*
G36*
X1643270Y1199530D02*
X1636000D01*
Y1191260D01*
X1643270D01*
Y1199530D01*
D02*
G37*
G36*
X1179830Y1193709D02*
Y1186180D01*
X1187359D01*
X1187221Y1187231D01*
X1186325Y1189393D01*
X1184900Y1191250D01*
X1183043Y1192675D01*
X1180881Y1193571D01*
X1179830Y1193709D01*
D02*
G37*
G36*
X1177290D02*
X1176239Y1193571D01*
X1174077Y1192675D01*
X1172220Y1191250D01*
X1170795Y1189393D01*
X1169899Y1187231D01*
X1169761Y1186180D01*
X1177290D01*
Y1193709D01*
D02*
G37*
G36*
X1581270Y1191260D02*
X1574500D01*
Y1182990D01*
X1581270D01*
Y1191260D01*
D02*
G37*
G36*
X1643270Y1188720D02*
X1636000D01*
Y1180450D01*
X1643270D01*
Y1188720D01*
D02*
G37*
G36*
X1187359Y1183640D02*
X1179830D01*
Y1176111D01*
X1180881Y1176249D01*
X1183043Y1177145D01*
X1184900Y1178570D01*
X1186325Y1180427D01*
X1187221Y1182589D01*
X1187359Y1183640D01*
D02*
G37*
G36*
X1177290D02*
X1169761D01*
X1169899Y1182589D01*
X1170795Y1180427D01*
X1172220Y1178570D01*
X1174077Y1177145D01*
X1176239Y1176249D01*
X1177290Y1176111D01*
Y1183640D01*
D02*
G37*
G36*
X1316990Y1371145D02*
X1277620D01*
X1276336Y1370889D01*
X1275248Y1370162D01*
X1254928Y1349842D01*
X1254201Y1348754D01*
X1253945Y1347470D01*
Y1235710D01*
X1254201Y1234426D01*
X1254928Y1233338D01*
X1275248Y1213018D01*
X1276336Y1212291D01*
X1277620Y1212036D01*
X1309250D01*
X1317565Y1203721D01*
Y1157189D01*
X1316620Y1156413D01*
X1315220D01*
X1313956Y1156162D01*
X1313420Y1155804D01*
X1312884Y1156162D01*
X1311620Y1156413D01*
X1310220D01*
X1309274Y1157189D01*
Y1169310D01*
X1309019Y1170594D01*
X1308292Y1171682D01*
X1242634Y1237340D01*
X1243101Y1238469D01*
X1243407Y1240790D01*
X1243101Y1243111D01*
X1242205Y1245273D01*
X1240780Y1247130D01*
X1238923Y1248555D01*
X1236761Y1249451D01*
X1234440Y1249757D01*
X1232119Y1249451D01*
X1229957Y1248555D01*
X1228100Y1247130D01*
X1226675Y1245273D01*
X1225779Y1243111D01*
X1225473Y1240790D01*
X1225779Y1238469D01*
X1226675Y1236307D01*
X1228100Y1234450D01*
X1229957Y1233025D01*
X1232119Y1232129D01*
X1234440Y1231823D01*
X1236761Y1232129D01*
X1237890Y1232596D01*
X1243001Y1227485D01*
X1242281Y1226409D01*
X1241841Y1226591D01*
X1240790Y1226730D01*
Y1219200D01*
X1248319D01*
X1248181Y1220251D01*
X1247999Y1220691D01*
X1249075Y1221411D01*
X1297558Y1172928D01*
X1297072Y1171755D01*
X1271389D01*
X1233074Y1210069D01*
X1233914Y1211026D01*
X1235037Y1210165D01*
X1237199Y1209269D01*
X1238250Y1209130D01*
Y1216660D01*
X1230721D01*
X1230859Y1215609D01*
X1231755Y1213447D01*
X1232616Y1212324D01*
X1231659Y1211485D01*
X1223584Y1219560D01*
X1224051Y1220689D01*
X1224357Y1223010D01*
X1224051Y1225331D01*
X1223155Y1227493D01*
X1221730Y1229350D01*
X1219873Y1230775D01*
X1217711Y1231671D01*
X1215390Y1231977D01*
X1213069Y1231671D01*
X1210907Y1230775D01*
X1209050Y1229350D01*
X1207625Y1227493D01*
X1206729Y1225331D01*
X1206423Y1223010D01*
X1206729Y1220689D01*
X1207625Y1218527D01*
X1209050Y1216670D01*
X1210907Y1215245D01*
X1213069Y1214349D01*
X1215390Y1214043D01*
X1217711Y1214349D01*
X1218840Y1214816D01*
X1266982Y1166674D01*
X1266456Y1165405D01*
X1258689D01*
X1221572Y1202522D01*
X1221459Y1202598D01*
X1220615Y1204633D01*
X1219190Y1206490D01*
X1217333Y1207915D01*
X1215171Y1208811D01*
X1212850Y1209117D01*
X1210529Y1208811D01*
X1208367Y1207915D01*
X1206510Y1206490D01*
X1205085Y1204633D01*
X1204189Y1202471D01*
X1203883Y1200150D01*
X1204189Y1197829D01*
X1205085Y1195667D01*
X1206510Y1193810D01*
X1208367Y1192385D01*
X1210529Y1191489D01*
X1212850Y1191183D01*
X1215171Y1191489D01*
X1217333Y1192385D01*
X1219190Y1193810D01*
X1219301Y1193954D01*
X1220569Y1194037D01*
X1230152Y1184454D01*
X1229626Y1183185D01*
X1219533D01*
X1219190Y1183630D01*
X1217333Y1185055D01*
X1215171Y1185951D01*
X1212850Y1186257D01*
X1210529Y1185951D01*
X1208367Y1185055D01*
X1206510Y1183630D01*
X1205085Y1181773D01*
X1204189Y1179611D01*
X1203883Y1177290D01*
X1204189Y1174969D01*
X1205085Y1172807D01*
X1206510Y1170950D01*
X1208367Y1169525D01*
X1210529Y1168629D01*
X1212850Y1168323D01*
X1215171Y1168629D01*
X1217333Y1169525D01*
X1219190Y1170950D01*
X1220615Y1172807D01*
X1221511Y1174969D01*
X1221710Y1176476D01*
X1229240D01*
X1250078Y1155638D01*
X1251166Y1154911D01*
X1252450Y1154656D01*
X1285945D01*
X1286971Y1153385D01*
X1286917Y1153110D01*
Y1139610D01*
X1287168Y1138346D01*
X1287884Y1137274D01*
X1288956Y1136558D01*
X1290220Y1136307D01*
X1291620D01*
X1292884Y1136558D01*
X1293420Y1136916D01*
X1293956Y1136558D01*
X1295220Y1136307D01*
X1296620D01*
X1297884Y1136558D01*
X1298420Y1136916D01*
X1298956Y1136558D01*
X1300220Y1136307D01*
X1301620D01*
X1302884Y1136558D01*
X1303420Y1136916D01*
X1303956Y1136558D01*
X1305220Y1136307D01*
X1306620D01*
X1307884Y1136558D01*
X1308420Y1136916D01*
X1308956Y1136558D01*
X1310220Y1136307D01*
X1311620D01*
X1312884Y1136558D01*
X1313420Y1136916D01*
X1313956Y1136558D01*
X1315220Y1136307D01*
X1316620D01*
X1317884Y1136558D01*
X1318420Y1136916D01*
X1318956Y1136558D01*
X1320220Y1136307D01*
X1321620D01*
X1322884Y1136558D01*
X1323420Y1136916D01*
X1323956Y1136558D01*
X1325220Y1136307D01*
X1326620D01*
X1327884Y1136558D01*
X1328420Y1136916D01*
X1328956Y1136558D01*
X1330220Y1136307D01*
X1331620D01*
X1332884Y1136558D01*
X1333420Y1136916D01*
X1333956Y1136558D01*
X1335220Y1136307D01*
X1336620D01*
X1337884Y1136558D01*
X1338420Y1136916D01*
X1338956Y1136558D01*
X1339650Y1136420D01*
Y1138312D01*
X1339673Y1138346D01*
X1339924Y1139610D01*
Y1146360D01*
Y1153110D01*
X1339673Y1154374D01*
X1339650Y1154408D01*
Y1156881D01*
X1339395Y1157091D01*
Y1176534D01*
X1356076Y1193215D01*
X1410790D01*
X1412074Y1193471D01*
X1413162Y1194198D01*
X1419570Y1200606D01*
X1424640D01*
Y1194420D01*
X1446410D01*
Y1203960D01*
Y1213500D01*
X1424640D01*
Y1207315D01*
X1418180D01*
X1416896Y1207059D01*
X1415808Y1206332D01*
X1409400Y1199924D01*
X1354687D01*
X1353403Y1199669D01*
X1352315Y1198942D01*
X1335953Y1182580D01*
X1334616Y1183039D01*
X1334528Y1183734D01*
X1359019Y1208225D01*
X1396387D01*
X1396855Y1207097D01*
X1398280Y1205240D01*
X1400137Y1203815D01*
X1402299Y1202919D01*
X1404620Y1202613D01*
X1406941Y1202919D01*
X1409103Y1203815D01*
X1410960Y1205240D01*
X1412385Y1207097D01*
X1413281Y1209259D01*
X1413587Y1211580D01*
X1413281Y1213901D01*
X1412385Y1216063D01*
X1410960Y1217920D01*
X1409103Y1219345D01*
X1406941Y1220241D01*
X1404620Y1220547D01*
X1402299Y1220241D01*
X1400137Y1219345D01*
X1398280Y1217920D01*
X1396855Y1216063D01*
X1396387Y1214934D01*
X1357630D01*
X1356346Y1214679D01*
X1355258Y1213952D01*
X1330448Y1189142D01*
X1329274Y1189628D01*
Y1226740D01*
X1341239Y1238706D01*
X1432951D01*
X1434235Y1238961D01*
X1435323Y1239688D01*
X1436202Y1240567D01*
X1436929Y1241655D01*
X1437184Y1242939D01*
Y1352550D01*
X1436929Y1353834D01*
X1436202Y1354922D01*
X1426042Y1365082D01*
X1424954Y1365809D01*
X1423670Y1366064D01*
X1342390D01*
X1341106Y1365809D01*
X1340018Y1365082D01*
X1333668Y1358732D01*
X1332941Y1357644D01*
X1332686Y1356360D01*
Y1332230D01*
X1329817D01*
Y1332230D01*
X1329563D01*
Y1332230D01*
X1326694D01*
Y1361440D01*
X1326439Y1362724D01*
X1325712Y1363812D01*
X1319362Y1370162D01*
X1318274Y1370889D01*
X1316990Y1371145D01*
D02*
G37*
G36*
X1136770Y1148730D02*
X1130000D01*
Y1140460D01*
X1136770D01*
Y1148730D01*
D02*
G37*
G36*
X1492250Y1146720D02*
X1491199Y1146581D01*
X1489037Y1145685D01*
X1487180Y1144260D01*
X1485755Y1142403D01*
X1484859Y1140241D01*
X1484720Y1139190D01*
X1492250D01*
Y1146720D01*
D02*
G37*
G36*
X1010920Y1156937D02*
X1008299Y1156592D01*
X1005857Y1155580D01*
X1003759Y1153971D01*
X1002150Y1151873D01*
X1001138Y1149431D01*
X1000793Y1146810D01*
X1001138Y1144189D01*
X1002150Y1141747D01*
X1003759Y1139649D01*
X1005857Y1138040D01*
X1008299Y1137028D01*
X1010920Y1136683D01*
X1013541Y1137028D01*
X1015983Y1138040D01*
X1018081Y1139649D01*
X1019690Y1141747D01*
X1020702Y1144189D01*
X1021047Y1146810D01*
X1020702Y1149431D01*
X1019690Y1151873D01*
X1018081Y1153971D01*
X1015983Y1155580D01*
X1013541Y1156592D01*
X1010920Y1156937D01*
D02*
G37*
G36*
X1136770Y1137920D02*
X1130000D01*
Y1129650D01*
X1136770D01*
Y1137920D01*
D02*
G37*
G36*
X1502319Y1136650D02*
X1494790D01*
Y1129120D01*
X1495841Y1129259D01*
X1498003Y1130155D01*
X1499860Y1131580D01*
X1501285Y1133437D01*
X1502181Y1135599D01*
X1502319Y1136650D01*
D02*
G37*
G36*
X1492250D02*
X1484720D01*
X1484859Y1135599D01*
X1485755Y1133437D01*
X1487180Y1131580D01*
X1489037Y1130155D01*
X1491199Y1129259D01*
X1492250Y1129120D01*
Y1136650D01*
D02*
G37*
G36*
X1518920Y1143077D02*
X1516599Y1142771D01*
X1514437Y1141875D01*
X1512580Y1140450D01*
X1511155Y1138593D01*
X1510259Y1136431D01*
X1509953Y1134110D01*
X1510259Y1131789D01*
X1511155Y1129627D01*
X1512580Y1127770D01*
X1514437Y1126345D01*
X1516599Y1125449D01*
X1518920Y1125143D01*
X1521241Y1125449D01*
X1523029Y1126190D01*
X1525364Y1123855D01*
X1524673Y1122825D01*
X1522511Y1123721D01*
X1520190Y1124027D01*
X1517869Y1123721D01*
X1515707Y1122825D01*
X1513850Y1121400D01*
X1512425Y1119543D01*
X1511529Y1117381D01*
X1511223Y1115060D01*
X1511529Y1112739D01*
X1512425Y1110577D01*
X1513850Y1108720D01*
X1515707Y1107295D01*
X1517869Y1106399D01*
X1520190Y1106093D01*
X1522511Y1106399D01*
X1524673Y1107295D01*
X1526530Y1108720D01*
X1527955Y1110577D01*
X1528851Y1112739D01*
X1529157Y1115060D01*
X1528851Y1117381D01*
X1527955Y1119543D01*
X1528985Y1120234D01*
X1552395Y1096824D01*
Y1077573D01*
X1551267Y1077105D01*
X1549410Y1075680D01*
X1547985Y1073823D01*
X1547089Y1071661D01*
X1546783Y1069340D01*
X1547089Y1067019D01*
X1547985Y1064857D01*
X1549410Y1063000D01*
X1551267Y1061575D01*
X1553429Y1060679D01*
X1555750Y1060373D01*
X1558071Y1060679D01*
X1560233Y1061575D01*
X1562090Y1063000D01*
X1563515Y1064857D01*
X1564411Y1067019D01*
X1564717Y1069340D01*
X1564411Y1071661D01*
X1563515Y1073823D01*
X1562090Y1075680D01*
X1560233Y1077105D01*
X1559104Y1077573D01*
Y1098213D01*
X1558849Y1099497D01*
X1558122Y1100585D01*
X1527387Y1131320D01*
X1527581Y1131789D01*
X1527887Y1134110D01*
X1527581Y1136431D01*
X1526685Y1138593D01*
X1525260Y1140450D01*
X1523403Y1141875D01*
X1521241Y1142771D01*
X1518920Y1143077D01*
D02*
G37*
G36*
X1010920Y1131537D02*
X1008299Y1131192D01*
X1005857Y1130180D01*
X1003759Y1128571D01*
X1002150Y1126473D01*
X1001138Y1124031D01*
X1000793Y1121410D01*
X1001138Y1118789D01*
X1002150Y1116347D01*
X1003759Y1114249D01*
X1005857Y1112640D01*
X1008299Y1111628D01*
X1010920Y1111283D01*
X1013541Y1111628D01*
X1015983Y1112640D01*
X1018081Y1114249D01*
X1019690Y1116347D01*
X1020702Y1118789D01*
X1021047Y1121410D01*
X1020702Y1124031D01*
X1019690Y1126473D01*
X1018081Y1128571D01*
X1015983Y1130180D01*
X1013541Y1131192D01*
X1010920Y1131537D01*
D02*
G37*
G36*
X1076960Y1111160D02*
Y1103630D01*
X1084490D01*
X1084351Y1104681D01*
X1083455Y1106843D01*
X1082030Y1108700D01*
X1080173Y1110125D01*
X1078011Y1111021D01*
X1076960Y1111160D01*
D02*
G37*
G36*
X1074420D02*
X1073369Y1111021D01*
X1071207Y1110125D01*
X1069350Y1108700D01*
X1067925Y1106843D01*
X1067029Y1104681D01*
X1066890Y1103630D01*
X1074420D01*
Y1111160D01*
D02*
G37*
G36*
X1138040Y1111900D02*
X1131270D01*
Y1103630D01*
X1138040D01*
Y1111900D01*
D02*
G37*
G36*
X1084490Y1101090D02*
X1076960D01*
Y1093560D01*
X1078011Y1093699D01*
X1080173Y1094595D01*
X1082030Y1096020D01*
X1083455Y1097877D01*
X1084351Y1100039D01*
X1084490Y1101090D01*
D02*
G37*
G36*
X1074420D02*
X1066890D01*
X1067029Y1100039D01*
X1067925Y1097877D01*
X1069350Y1096020D01*
X1071207Y1094595D01*
X1073369Y1093699D01*
X1074420Y1093560D01*
Y1101090D01*
D02*
G37*
G36*
X1138040D02*
X1131270D01*
Y1092820D01*
X1138040D01*
Y1101090D01*
D02*
G37*
G36*
X1010920Y1106137D02*
X1008299Y1105792D01*
X1005857Y1104780D01*
X1003759Y1103171D01*
X1002150Y1101073D01*
X1001138Y1098631D01*
X1000793Y1096010D01*
X1001138Y1093389D01*
X1002150Y1090947D01*
X1003759Y1088849D01*
X1005857Y1087240D01*
X1008299Y1086228D01*
X1010920Y1085883D01*
X1013541Y1086228D01*
X1015983Y1087240D01*
X1018081Y1088849D01*
X1019690Y1090947D01*
X1020702Y1093389D01*
X1021047Y1096010D01*
X1020702Y1098631D01*
X1019690Y1101073D01*
X1018081Y1103171D01*
X1015983Y1104780D01*
X1013541Y1105792D01*
X1010920Y1106137D01*
D02*
G37*
G36*
X1020960Y1207650D02*
X1000880D01*
Y1187570D01*
X1020960D01*
Y1194256D01*
X1059061D01*
X1093925Y1159390D01*
Y1115060D01*
X1094181Y1113776D01*
X1094908Y1112688D01*
X1122202Y1085395D01*
X1121676Y1084125D01*
X1118989D01*
X1028532Y1174582D01*
X1027444Y1175309D01*
X1026160Y1175564D01*
X1020398D01*
X1019690Y1177273D01*
X1018081Y1179371D01*
X1015983Y1180980D01*
X1013541Y1181992D01*
X1010920Y1182337D01*
X1008299Y1181992D01*
X1005857Y1180980D01*
X1003759Y1179371D01*
X1002150Y1177273D01*
X1001138Y1174831D01*
X1000793Y1172210D01*
X1001138Y1169589D01*
X1002150Y1167147D01*
X1003759Y1165049D01*
X1005857Y1163440D01*
X1008299Y1162428D01*
X1010920Y1162083D01*
X1013541Y1162428D01*
X1015983Y1163440D01*
X1018081Y1165049D01*
X1019690Y1167147D01*
X1020398Y1168856D01*
X1024771D01*
X1115228Y1078398D01*
X1116316Y1077671D01*
X1117600Y1077415D01*
X1178560D01*
X1179844Y1077671D01*
X1180932Y1078398D01*
X1192673Y1090139D01*
X1193875Y1089545D01*
X1193723Y1088390D01*
X1194029Y1086069D01*
X1194925Y1083907D01*
X1196350Y1082050D01*
X1198207Y1080625D01*
X1200369Y1079729D01*
X1202690Y1079423D01*
X1205011Y1079729D01*
X1205451Y1079911D01*
X1206171Y1078835D01*
X1200166Y1072830D01*
X1198621Y1073081D01*
X1197600Y1074410D01*
X1195743Y1075835D01*
X1193581Y1076731D01*
X1191260Y1077037D01*
X1188939Y1076731D01*
X1186777Y1075835D01*
X1184920Y1074410D01*
X1183495Y1072553D01*
X1182599Y1070391D01*
X1182293Y1068070D01*
X1182599Y1065749D01*
X1183495Y1063587D01*
X1184920Y1061730D01*
X1186777Y1060305D01*
X1188939Y1059409D01*
X1191260Y1059103D01*
X1192415Y1059255D01*
X1193009Y1058053D01*
X1183521Y1048565D01*
X1157905D01*
Y1054720D01*
X1169550D01*
Y1064260D01*
Y1073800D01*
X1147780D01*
Y1054720D01*
X1151196D01*
Y1048565D01*
X1129900D01*
Y1060250D01*
X1109820D01*
Y1030170D01*
X1129900D01*
Y1041855D01*
X1151196D01*
Y1039510D01*
X1146510D01*
Y1020430D01*
X1168280D01*
Y1029970D01*
Y1039510D01*
X1157905D01*
Y1041855D01*
X1184910D01*
X1186194Y1042111D01*
X1187282Y1042838D01*
X1210404Y1065960D01*
X1211534Y1065294D01*
X1211809Y1063209D01*
X1212648Y1061182D01*
X1181268Y1029802D01*
X1180541Y1028714D01*
X1180285Y1027430D01*
Y1023739D01*
X1178763Y1022217D01*
X1177590Y1022703D01*
Y1028700D01*
X1170820D01*
Y1020430D01*
X1175317D01*
X1175803Y1019257D01*
X1129198Y972652D01*
X1128471Y971564D01*
X1128215Y970280D01*
Y937062D01*
X1127979Y937031D01*
X1125817Y936135D01*
X1123960Y934710D01*
X1122535Y932853D01*
X1121639Y930691D01*
X1121333Y928370D01*
X1121639Y926049D01*
X1122535Y923887D01*
X1123960Y922030D01*
X1125817Y920605D01*
X1127979Y919709D01*
X1130300Y919403D01*
X1132621Y919709D01*
X1134783Y920605D01*
X1136640Y922030D01*
X1138065Y923887D01*
X1138961Y926049D01*
X1139182Y927725D01*
X1139185Y927746D01*
X1140465D01*
X1140468Y927725D01*
X1140689Y926049D01*
X1141585Y923887D01*
X1143010Y922030D01*
X1144867Y920605D01*
X1147029Y919709D01*
X1149350Y919403D01*
X1151671Y919709D01*
X1153833Y920605D01*
X1155690Y922030D01*
X1157115Y923887D01*
X1158011Y926049D01*
X1158317Y928370D01*
X1158011Y930691D01*
X1157115Y932853D01*
X1155690Y934710D01*
X1153833Y936135D01*
X1152704Y936603D01*
Y979051D01*
X1167682Y994028D01*
X1168856Y993542D01*
Y936603D01*
X1167727Y936135D01*
X1165870Y934710D01*
X1164445Y932853D01*
X1163549Y930691D01*
X1163243Y928370D01*
X1163549Y926049D01*
X1164445Y923887D01*
X1165870Y922030D01*
X1167727Y920605D01*
X1169889Y919709D01*
X1172210Y919403D01*
X1174531Y919709D01*
X1176693Y920605D01*
X1178550Y922030D01*
X1179975Y923887D01*
X1180871Y926049D01*
X1181177Y928370D01*
X1180871Y930691D01*
X1179975Y932853D01*
X1178550Y934710D01*
X1176693Y936135D01*
X1175564Y936603D01*
Y996197D01*
X1181652Y1002285D01*
X1182825Y1001799D01*
Y937260D01*
X1183081Y935976D01*
X1183808Y934888D01*
X1186505Y932192D01*
X1186409Y931961D01*
X1186103Y929640D01*
X1186409Y927319D01*
X1187305Y925157D01*
X1188730Y923300D01*
X1190587Y921875D01*
X1192749Y920979D01*
X1195070Y920673D01*
X1197391Y920979D01*
X1199553Y921875D01*
X1201410Y923300D01*
X1202835Y925157D01*
X1203731Y927319D01*
X1204037Y929640D01*
X1203731Y931961D01*
X1202835Y934123D01*
X1201410Y935980D01*
X1199553Y937405D01*
X1197391Y938301D01*
X1195070Y938607D01*
X1192749Y938301D01*
X1190722Y937462D01*
X1189535Y938650D01*
Y1004451D01*
X1190109Y1005025D01*
X1196525D01*
X1196956Y1003755D01*
X1196350Y1003290D01*
X1194925Y1001433D01*
X1194029Y999271D01*
X1193723Y996950D01*
X1194029Y994629D01*
X1194925Y992467D01*
X1196350Y990610D01*
X1198207Y989185D01*
X1200369Y988289D01*
X1202690Y987983D01*
X1205011Y988289D01*
X1207173Y989185D01*
X1209030Y990610D01*
X1210455Y992467D01*
X1211351Y994629D01*
X1211382Y994865D01*
X1214305D01*
X1214736Y993596D01*
X1214130Y993130D01*
X1212705Y991273D01*
X1211809Y989111D01*
X1211503Y986790D01*
X1211809Y984469D01*
X1212705Y982307D01*
X1214130Y980450D01*
X1215987Y979025D01*
X1218149Y978129D01*
X1220470Y977823D01*
X1222791Y978129D01*
X1224482Y978829D01*
X1225551Y978147D01*
X1225653Y977997D01*
X1225473Y976630D01*
X1225779Y974309D01*
X1226675Y972147D01*
X1228100Y970290D01*
X1229957Y968865D01*
X1232119Y967969D01*
X1234440Y967663D01*
X1236761Y967969D01*
X1238923Y968865D01*
X1240780Y970290D01*
X1242205Y972147D01*
X1243101Y974309D01*
X1243407Y976630D01*
X1243101Y978951D01*
X1242205Y981113D01*
X1240780Y982970D01*
X1238923Y984395D01*
X1238679Y984497D01*
X1238386Y985993D01*
X1250462Y998068D01*
X1251636Y997582D01*
Y995118D01*
X1250277Y994555D01*
X1248420Y993130D01*
X1246995Y991273D01*
X1246099Y989111D01*
X1245793Y986790D01*
X1246099Y984469D01*
X1246995Y982307D01*
X1248420Y980450D01*
X1249827Y979370D01*
X1249848Y979338D01*
X1250004Y979234D01*
X1250277Y979025D01*
X1250383Y978980D01*
X1250936Y978611D01*
X1251589Y978481D01*
X1252439Y978129D01*
X1254760Y977823D01*
X1257081Y978129D01*
X1259243Y979025D01*
X1261100Y980450D01*
X1262525Y982307D01*
X1263421Y984469D01*
X1263727Y986790D01*
X1263421Y989111D01*
X1262525Y991273D01*
X1261100Y993130D01*
X1259243Y994555D01*
X1258344Y994928D01*
Y1043740D01*
X1263290Y1048686D01*
X1263706Y1048408D01*
X1264970Y1048157D01*
X1278470D01*
X1279734Y1048408D01*
X1280806Y1049124D01*
X1281522Y1050196D01*
X1281774Y1051460D01*
Y1052860D01*
X1281522Y1054124D01*
X1281164Y1054660D01*
X1281522Y1055196D01*
X1281774Y1056460D01*
Y1057860D01*
X1281522Y1059124D01*
X1281164Y1059660D01*
X1281522Y1060196D01*
X1281774Y1061460D01*
Y1062860D01*
X1281522Y1064124D01*
X1281164Y1064660D01*
X1281522Y1065196D01*
X1281774Y1066460D01*
Y1067860D01*
X1281522Y1069124D01*
X1281164Y1069660D01*
X1281522Y1070196D01*
X1281774Y1071460D01*
Y1072860D01*
X1281522Y1074124D01*
X1281164Y1074660D01*
X1281522Y1075196D01*
X1281774Y1076460D01*
Y1077860D01*
X1281522Y1079124D01*
X1281164Y1079660D01*
X1281522Y1080196D01*
X1281774Y1081460D01*
Y1082860D01*
X1281522Y1084124D01*
X1281164Y1084660D01*
X1281522Y1085196D01*
X1281774Y1086460D01*
Y1087860D01*
X1281522Y1089124D01*
X1281164Y1089660D01*
X1281522Y1090196D01*
X1281774Y1091460D01*
Y1092860D01*
X1281522Y1094124D01*
X1281164Y1094660D01*
X1281522Y1095196D01*
X1281660Y1095890D01*
X1279768D01*
X1279734Y1095912D01*
X1278470Y1096164D01*
X1271720D01*
Y1098156D01*
X1278470D01*
X1279734Y1098408D01*
X1279768Y1098430D01*
X1281660D01*
X1281522Y1099124D01*
X1281164Y1099660D01*
X1281522Y1100196D01*
X1281774Y1101460D01*
Y1102860D01*
X1281522Y1104124D01*
X1281164Y1104660D01*
X1281522Y1105196D01*
X1281774Y1106460D01*
Y1107860D01*
X1281522Y1109124D01*
X1281164Y1109660D01*
X1281522Y1110196D01*
X1281774Y1111460D01*
Y1112860D01*
X1281522Y1114124D01*
X1281164Y1114660D01*
X1281522Y1115196D01*
X1281774Y1116460D01*
Y1117860D01*
X1281522Y1119124D01*
X1281164Y1119660D01*
X1281522Y1120196D01*
X1281774Y1121460D01*
Y1122860D01*
X1281522Y1124124D01*
X1281164Y1124660D01*
X1281522Y1125196D01*
X1281774Y1126460D01*
Y1127860D01*
X1281522Y1129124D01*
X1280806Y1130196D01*
X1279734Y1130912D01*
X1278470Y1131163D01*
X1264970D01*
X1264724Y1131115D01*
X1245990D01*
X1242532Y1134572D01*
X1241444Y1135299D01*
X1240160Y1135555D01*
X1219850D01*
Y1138490D01*
X1200770D01*
Y1136195D01*
X1185030D01*
X1179662Y1141562D01*
X1178574Y1142289D01*
X1177290Y1142544D01*
X1161080D01*
Y1148730D01*
X1139310D01*
Y1139190D01*
Y1129650D01*
X1161080D01*
Y1135835D01*
X1175901D01*
X1181268Y1130468D01*
X1182356Y1129741D01*
X1183640Y1129485D01*
X1200770D01*
Y1125910D01*
X1219850D01*
Y1128846D01*
X1238771D01*
X1242228Y1125388D01*
X1242876Y1124956D01*
X1243203Y1123487D01*
X1240670Y1120955D01*
X1219850D01*
Y1123890D01*
X1200770D01*
Y1120955D01*
X1188720D01*
X1187436Y1120699D01*
X1186348Y1119972D01*
X1182538Y1116162D01*
X1181811Y1115074D01*
X1181555Y1113790D01*
Y1108829D01*
X1178440Y1105714D01*
X1162350D01*
Y1111900D01*
X1140580D01*
Y1102360D01*
Y1092820D01*
X1162350D01*
Y1099006D01*
X1171342D01*
X1171828Y1097832D01*
X1164471Y1090474D01*
X1126609D01*
X1100635Y1116450D01*
Y1160780D01*
X1100379Y1162064D01*
X1099652Y1163152D01*
X1062822Y1199982D01*
X1061734Y1200709D01*
X1060450Y1200965D01*
X1020960D01*
Y1207650D01*
D02*
G37*
G36*
X1614830Y1096391D02*
X1604670D01*
Y1081278D01*
X1614830D01*
Y1096391D01*
D02*
G37*
G36*
X1178860Y1073800D02*
X1172090D01*
Y1065530D01*
X1178860D01*
Y1073800D01*
D02*
G37*
G36*
X1654000Y1199530D02*
X1653080D01*
X1652730Y1199530D01*
X1645810D01*
Y1189990D01*
Y1180450D01*
X1652730D01*
X1653080Y1180450D01*
X1654000D01*
X1654350Y1180450D01*
X1659186D01*
Y1156840D01*
X1652890D01*
Y1140110D01*
X1652890Y1139760D01*
Y1138840D01*
X1652890Y1138490D01*
Y1121760D01*
X1659075D01*
Y1070730D01*
X1652151Y1063804D01*
X1632104D01*
Y1081278D01*
X1633830D01*
Y1096391D01*
X1623670D01*
Y1081278D01*
X1625396D01*
Y1060450D01*
X1625651Y1059166D01*
X1626056Y1058561D01*
Y1045510D01*
X1619870D01*
Y1040824D01*
X1616319D01*
X1615035Y1040569D01*
X1613947Y1039842D01*
X1613068Y1038963D01*
X1612341Y1037875D01*
X1612086Y1036591D01*
Y988060D01*
X1612341Y986776D01*
X1613068Y985688D01*
X1623516Y975240D01*
Y973850D01*
X1617330D01*
Y957120D01*
X1617330Y956770D01*
Y955850D01*
X1617330Y955500D01*
Y949504D01*
X1598474D01*
Y989330D01*
X1598219Y990614D01*
X1597492Y991702D01*
X1593682Y995512D01*
X1574344Y1014849D01*
Y1137920D01*
X1574089Y1139204D01*
X1573362Y1140292D01*
X1563202Y1150452D01*
X1562114Y1151179D01*
X1560830Y1151434D01*
X1502529D01*
X1475044Y1178920D01*
X1475511Y1180049D01*
X1475817Y1182370D01*
X1475511Y1184691D01*
X1474615Y1186853D01*
X1473190Y1188710D01*
X1471333Y1190135D01*
X1469171Y1191031D01*
X1466850Y1191337D01*
X1464529Y1191031D01*
X1462367Y1190135D01*
X1460510Y1188710D01*
X1459085Y1186853D01*
X1458617Y1185724D01*
X1360170D01*
X1358886Y1185469D01*
X1357798Y1184742D01*
X1348548Y1175492D01*
X1347821Y1174404D01*
X1347566Y1173120D01*
Y1157189D01*
X1346620Y1156413D01*
X1345220D01*
X1343956Y1156162D01*
X1343420Y1155804D01*
X1342884Y1156162D01*
X1342190Y1156300D01*
Y1154408D01*
X1342168Y1154374D01*
X1341916Y1153110D01*
Y1146360D01*
Y1139610D01*
X1342168Y1138346D01*
X1342190Y1138312D01*
Y1136420D01*
X1342884Y1136558D01*
X1343420Y1136916D01*
X1343956Y1136558D01*
X1345220Y1136307D01*
X1346620D01*
X1347884Y1136558D01*
X1348420Y1136916D01*
X1348956Y1136558D01*
X1350220Y1136307D01*
X1351620D01*
X1352884Y1136558D01*
X1353420Y1136916D01*
X1353956Y1136558D01*
X1355220Y1136307D01*
X1356620D01*
X1357884Y1136558D01*
X1358420Y1136916D01*
X1358956Y1136558D01*
X1360220Y1136307D01*
X1361620D01*
X1362884Y1136558D01*
X1363420Y1136916D01*
X1363956Y1136558D01*
X1365220Y1136307D01*
X1365986D01*
X1366513Y1135036D01*
X1348548Y1117072D01*
X1347821Y1115984D01*
X1347566Y1114700D01*
Y1043790D01*
X1346620Y1043014D01*
X1345220D01*
X1343956Y1042762D01*
X1343420Y1042404D01*
X1342884Y1042762D01*
X1341620Y1043014D01*
X1340220D01*
X1338956Y1042762D01*
X1338420Y1042404D01*
X1337884Y1042762D01*
X1336620Y1043014D01*
X1335220D01*
X1333956Y1042762D01*
X1333420Y1042404D01*
X1332884Y1042762D01*
X1331620Y1043014D01*
X1330220D01*
X1328956Y1042762D01*
X1328420Y1042404D01*
X1327884Y1042762D01*
X1326620Y1043014D01*
X1325220D01*
X1323956Y1042762D01*
X1323420Y1042404D01*
X1322884Y1042762D01*
X1321620Y1043014D01*
X1320220D01*
X1318956Y1042762D01*
X1318420Y1042404D01*
X1317884Y1042762D01*
X1317190Y1042900D01*
Y1041008D01*
X1317167Y1040974D01*
X1316916Y1039710D01*
Y1032960D01*
Y1026210D01*
X1317167Y1024946D01*
X1317190Y1024912D01*
Y1023020D01*
X1317884Y1023158D01*
X1318420Y1023516D01*
X1318956Y1023158D01*
X1320220Y1022906D01*
X1321620D01*
X1322884Y1023158D01*
X1323420Y1023516D01*
X1323956Y1023158D01*
X1325220Y1022906D01*
X1326620D01*
X1327565Y1022131D01*
Y1007802D01*
X1327821Y1006518D01*
X1328488Y1005521D01*
X1328275Y1005243D01*
X1327379Y1003081D01*
X1327073Y1000760D01*
X1327379Y998439D01*
X1328275Y996277D01*
X1329700Y994420D01*
X1331557Y992995D01*
X1333719Y992099D01*
X1336040Y991793D01*
X1338361Y992099D01*
X1340523Y992995D01*
X1342380Y994420D01*
X1343805Y996277D01*
X1344115Y997025D01*
X1345385Y996773D01*
Y992483D01*
X1344257Y992015D01*
X1342400Y990590D01*
X1340975Y988733D01*
X1340079Y986571D01*
X1339773Y984250D01*
X1340079Y981929D01*
X1340975Y979767D01*
X1342400Y977910D01*
X1344257Y976485D01*
X1346419Y975589D01*
X1348740Y975283D01*
X1351061Y975589D01*
X1353223Y976485D01*
X1355080Y977910D01*
X1356505Y979767D01*
X1357401Y981929D01*
X1357707Y984250D01*
X1357401Y986571D01*
X1356505Y988733D01*
X1355080Y990590D01*
X1353223Y992015D01*
X1352095Y992483D01*
Y996773D01*
X1353365Y997025D01*
X1353675Y996277D01*
X1355100Y994420D01*
X1356957Y992995D01*
X1359119Y992099D01*
X1361440Y991793D01*
X1363761Y992099D01*
X1365923Y992995D01*
X1367780Y994420D01*
X1369205Y996277D01*
X1370101Y998439D01*
X1370407Y1000760D01*
X1370101Y1003081D01*
X1369205Y1005243D01*
X1367780Y1007100D01*
X1367174Y1007566D01*
X1367605Y1008836D01*
X1368940D01*
X1373326Y1004451D01*
Y991213D01*
X1372197Y990745D01*
X1370340Y989320D01*
X1368915Y987463D01*
X1368019Y985301D01*
X1367713Y982980D01*
X1368019Y980659D01*
X1368915Y978497D01*
X1370340Y976640D01*
X1372197Y975215D01*
X1374359Y974319D01*
X1376680Y974013D01*
X1379001Y974319D01*
X1381163Y975215D01*
X1383020Y976640D01*
X1384445Y978497D01*
X1385341Y980659D01*
X1385647Y982980D01*
X1385341Y985301D01*
X1384445Y987463D01*
X1383020Y989320D01*
X1381163Y990745D01*
X1380034Y991213D01*
Y1005840D01*
X1379779Y1007124D01*
X1379052Y1008212D01*
X1372702Y1014562D01*
X1371614Y1015289D01*
X1370330Y1015545D01*
X1355439D01*
X1349892Y1021092D01*
X1349962Y1022695D01*
X1350220Y1022906D01*
X1351620D01*
X1352884Y1023158D01*
X1353420Y1023516D01*
X1353956Y1023158D01*
X1355220Y1022906D01*
X1356620D01*
X1357884Y1023158D01*
X1358420Y1023516D01*
X1358956Y1023158D01*
X1360220Y1022906D01*
X1361620D01*
X1362884Y1023158D01*
X1363420Y1023516D01*
X1363956Y1023158D01*
X1365220Y1022906D01*
X1366620D01*
X1367884Y1023158D01*
X1368956Y1023874D01*
X1369672Y1024946D01*
X1369924Y1026210D01*
Y1039710D01*
X1369672Y1040974D01*
X1368956Y1042046D01*
X1367884Y1042762D01*
X1366620Y1043014D01*
X1365220D01*
X1363956Y1042762D01*
X1363420Y1042404D01*
X1362884Y1042762D01*
X1361620Y1043014D01*
X1360220D01*
X1359274Y1043790D01*
Y1111961D01*
X1373894Y1126580D01*
X1375150Y1126040D01*
X1375318Y1125196D01*
X1375676Y1124660D01*
X1375318Y1124124D01*
X1375180Y1123430D01*
X1377072D01*
X1377106Y1123408D01*
X1378370Y1123156D01*
X1385120D01*
X1391870D01*
X1393134Y1123408D01*
X1393168Y1123430D01*
X1395641D01*
X1395950Y1123806D01*
X1452280D01*
X1453564Y1124061D01*
X1454652Y1124788D01*
X1457241Y1127377D01*
X1458416Y1126890D01*
Y1118533D01*
X1458671Y1117249D01*
X1459398Y1116161D01*
X1460686Y1114873D01*
X1460278Y1113670D01*
X1459449Y1113561D01*
X1457287Y1112665D01*
X1455430Y1111240D01*
X1454005Y1109383D01*
X1453537Y1108254D01*
X1438149D01*
X1426872Y1119532D01*
X1425783Y1120259D01*
X1424500Y1120514D01*
X1395950D01*
X1395641Y1120890D01*
X1393168D01*
X1393134Y1120912D01*
X1391870Y1121164D01*
X1385120D01*
X1378370D01*
X1377106Y1120912D01*
X1377072Y1120890D01*
X1375180D01*
X1375318Y1120196D01*
X1375676Y1119660D01*
X1375318Y1119124D01*
X1375067Y1117860D01*
Y1116460D01*
X1375318Y1115196D01*
X1375676Y1114660D01*
X1375318Y1114124D01*
X1375067Y1112860D01*
Y1111460D01*
X1375318Y1110196D01*
X1375676Y1109660D01*
X1375318Y1109124D01*
X1375067Y1107860D01*
Y1106460D01*
X1375318Y1105196D01*
X1375676Y1104660D01*
X1375318Y1104124D01*
X1375067Y1102860D01*
Y1101460D01*
X1375318Y1100196D01*
X1375676Y1099660D01*
X1375318Y1099124D01*
X1375067Y1097860D01*
Y1096460D01*
X1375318Y1095196D01*
X1375676Y1094660D01*
X1375318Y1094124D01*
X1375067Y1092860D01*
Y1091460D01*
X1375318Y1090196D01*
X1375676Y1089660D01*
X1375318Y1089124D01*
X1375067Y1087860D01*
Y1086460D01*
X1375318Y1085196D01*
X1375676Y1084660D01*
X1375318Y1084124D01*
X1375067Y1082860D01*
Y1081460D01*
X1375318Y1080196D01*
X1375676Y1079660D01*
X1375318Y1079124D01*
X1375067Y1077860D01*
Y1076460D01*
X1375318Y1075196D01*
X1375676Y1074660D01*
X1375318Y1074124D01*
X1375067Y1072860D01*
Y1071460D01*
X1375318Y1070196D01*
X1375676Y1069660D01*
X1375318Y1069124D01*
X1375067Y1067860D01*
Y1066460D01*
X1375318Y1065196D01*
X1375676Y1064660D01*
X1375318Y1064124D01*
X1375067Y1062860D01*
Y1061460D01*
X1375318Y1060196D01*
X1375676Y1059660D01*
X1375318Y1059124D01*
X1375067Y1057860D01*
Y1056460D01*
X1375318Y1055196D01*
X1375676Y1054660D01*
X1375318Y1054124D01*
X1375180Y1053430D01*
X1377072D01*
X1377106Y1053408D01*
X1378370Y1053156D01*
X1385120D01*
Y1052160D01*
X1386390D01*
Y1048157D01*
X1391870D01*
X1393134Y1048408D01*
X1394206Y1049124D01*
X1394922Y1050196D01*
X1395173Y1051460D01*
Y1052860D01*
X1395379Y1053110D01*
X1396986Y1053180D01*
X1398725Y1051441D01*
Y1013460D01*
Y1001410D01*
X1395550D01*
Y982330D01*
X1400116D01*
Y973470D01*
X1395430D01*
Y954390D01*
X1417200D01*
Y963930D01*
Y973470D01*
X1406824D01*
Y982330D01*
X1417320D01*
Y991870D01*
Y1001410D01*
X1405435D01*
Y1010106D01*
X1431745D01*
Y946304D01*
X1403710D01*
X1402426Y946049D01*
X1401338Y945322D01*
X1371590Y915574D01*
X1313994D01*
Y930096D01*
X1317960D01*
Y923910D01*
X1339730D01*
Y933450D01*
Y942990D01*
X1317960D01*
Y936805D01*
X1313994D01*
Y954226D01*
X1317960D01*
Y948040D01*
X1339730D01*
Y957580D01*
Y967120D01*
X1317960D01*
Y960935D01*
X1313994D01*
Y977723D01*
X1315264Y977975D01*
X1315575Y977227D01*
X1317000Y975370D01*
X1318857Y973945D01*
X1321019Y973049D01*
X1322070Y972911D01*
Y981710D01*
Y990509D01*
X1321019Y990371D01*
X1318857Y989475D01*
X1317000Y988050D01*
X1315575Y986193D01*
X1315264Y985445D01*
X1313994Y985697D01*
Y1022149D01*
X1314650Y1022687D01*
Y1024912D01*
X1314672Y1024946D01*
X1314924Y1026210D01*
Y1032960D01*
Y1039710D01*
X1314672Y1040974D01*
X1314650Y1041008D01*
Y1042900D01*
X1313956Y1042762D01*
X1313420Y1042404D01*
X1312884Y1042762D01*
X1311620Y1043014D01*
X1310220D01*
X1308956Y1042762D01*
X1308420Y1042404D01*
X1307884Y1042762D01*
X1306620Y1043014D01*
X1305220D01*
X1303956Y1042762D01*
X1303420Y1042404D01*
X1302884Y1042762D01*
X1301620Y1043014D01*
X1300220D01*
X1298956Y1042762D01*
X1298420Y1042404D01*
X1297884Y1042762D01*
X1296620Y1043014D01*
X1295220D01*
X1293956Y1042762D01*
X1293420Y1042404D01*
X1292884Y1042762D01*
X1291620Y1043014D01*
X1290220D01*
X1288956Y1042762D01*
X1287884Y1042046D01*
X1287168Y1040974D01*
X1286917Y1039710D01*
Y1026210D01*
X1287168Y1024946D01*
X1287565Y1024351D01*
Y1015450D01*
X1278285Y1006169D01*
X1277209Y1006889D01*
X1277391Y1007329D01*
X1277530Y1008380D01*
X1270000D01*
Y1000851D01*
X1271051Y1000989D01*
X1271491Y1001171D01*
X1272211Y1000095D01*
X1266358Y994242D01*
X1265631Y993154D01*
X1265376Y991870D01*
Y969129D01*
X1248290Y952045D01*
X1238250D01*
X1236966Y951789D01*
X1235878Y951062D01*
X1231912Y947095D01*
X1231681Y947191D01*
X1229360Y947497D01*
X1227039Y947191D01*
X1224877Y946295D01*
X1223020Y944870D01*
X1221595Y943013D01*
X1220699Y940851D01*
X1220393Y938530D01*
X1220699Y936209D01*
X1221595Y934047D01*
X1223020Y932190D01*
X1224877Y930765D01*
X1227039Y929869D01*
X1229360Y929563D01*
X1231681Y929869D01*
X1233843Y930765D01*
X1235700Y932190D01*
X1237125Y934047D01*
X1238021Y936209D01*
X1238327Y938530D01*
X1238021Y940851D01*
X1237182Y942878D01*
X1239640Y945335D01*
X1249680D01*
X1250964Y945591D01*
X1252052Y946318D01*
X1271102Y965368D01*
X1271829Y966456D01*
X1272085Y967740D01*
Y990480D01*
X1291392Y1009788D01*
X1292565Y1009302D01*
Y1003939D01*
X1276518Y987892D01*
X1275791Y986804D01*
X1275536Y985520D01*
Y958969D01*
X1263531Y946964D01*
X1257300D01*
X1256016Y946709D01*
X1254928Y945982D01*
X1247308Y938362D01*
X1246581Y937274D01*
X1246326Y935990D01*
Y931523D01*
X1245197Y931055D01*
X1243340Y929630D01*
X1241915Y927773D01*
X1241019Y925611D01*
X1240713Y923290D01*
X1241019Y920969D01*
X1241915Y918807D01*
X1243340Y916950D01*
X1245197Y915525D01*
X1247359Y914629D01*
X1249680Y914323D01*
X1252001Y914629D01*
X1254163Y915525D01*
X1256020Y916950D01*
X1257445Y918807D01*
X1258341Y920969D01*
X1258647Y923290D01*
X1258341Y925611D01*
X1257445Y927773D01*
X1256020Y929630D01*
X1254163Y931055D01*
X1253035Y931523D01*
Y934601D01*
X1258689Y940256D01*
X1264920D01*
X1266204Y940511D01*
X1267292Y941238D01*
X1281262Y955208D01*
X1281989Y956296D01*
X1282245Y957580D01*
Y984130D01*
X1296392Y998278D01*
X1297566Y997792D01*
Y994969D01*
X1289218Y986622D01*
X1288491Y985534D01*
X1288235Y984250D01*
Y955160D01*
X1269013Y935937D01*
X1267679Y935761D01*
X1265517Y934865D01*
X1263660Y933440D01*
X1262235Y931583D01*
X1261339Y929421D01*
X1261033Y927100D01*
X1261339Y924779D01*
X1262235Y922617D01*
X1263660Y920760D01*
X1265517Y919335D01*
X1267679Y918439D01*
X1270000Y918133D01*
X1272321Y918439D01*
X1274483Y919335D01*
X1276340Y920760D01*
X1277765Y922617D01*
X1278661Y924779D01*
X1278967Y927100D01*
X1278661Y929421D01*
X1277765Y931583D01*
X1276340Y933440D01*
X1276320Y933756D01*
X1293962Y951398D01*
X1294689Y952486D01*
X1294944Y953770D01*
Y982860D01*
X1301392Y989308D01*
X1302565Y988822D01*
Y986000D01*
X1298108Y981542D01*
X1297381Y980454D01*
X1297126Y979170D01*
Y947540D01*
X1289218Y939632D01*
X1288491Y938544D01*
X1288235Y937260D01*
Y934063D01*
X1287107Y933595D01*
X1285250Y932170D01*
X1283825Y930313D01*
X1282929Y928151D01*
X1282623Y925830D01*
X1282929Y923509D01*
X1283825Y921347D01*
X1285250Y919490D01*
X1287107Y918065D01*
X1289269Y917169D01*
X1291590Y916863D01*
X1293911Y917169D01*
X1296073Y918065D01*
X1297930Y919490D01*
X1299355Y921347D01*
X1300251Y923509D01*
X1300557Y925830D01*
X1300251Y928151D01*
X1299355Y930313D01*
X1297930Y932170D01*
X1296073Y933595D01*
X1294944Y934063D01*
Y935871D01*
X1302852Y943778D01*
X1303579Y944866D01*
X1303835Y946150D01*
Y977781D01*
X1306112Y980058D01*
X1307285Y979572D01*
Y957580D01*
Y933450D01*
Y915789D01*
X1299091Y907595D01*
X1094859D01*
X1076505Y925949D01*
Y1030170D01*
X1094900D01*
Y1060250D01*
X1074820D01*
Y1039914D01*
X1070778Y1035872D01*
X1070051Y1034784D01*
X1069796Y1033500D01*
Y924560D01*
X1070051Y923276D01*
X1070778Y922188D01*
X1091098Y901868D01*
X1092186Y901141D01*
X1093470Y900885D01*
X1300480D01*
X1301764Y901141D01*
X1302852Y901868D01*
X1309849Y908865D01*
X1372979D01*
X1374263Y909121D01*
X1375351Y909848D01*
X1405099Y939596D01*
X1509370D01*
X1510654Y939851D01*
X1511742Y940578D01*
X1526372Y955208D01*
X1527099Y956296D01*
X1527354Y957580D01*
Y1056303D01*
X1527099Y1057587D01*
X1526372Y1058675D01*
X1481844Y1103203D01*
X1482563Y1104280D01*
X1483579Y1103859D01*
X1485900Y1103553D01*
X1488221Y1103859D01*
X1490383Y1104755D01*
X1492240Y1106180D01*
X1493665Y1108037D01*
X1494561Y1110199D01*
X1494867Y1112520D01*
X1494561Y1114841D01*
X1493665Y1117003D01*
X1492240Y1118860D01*
X1490383Y1120285D01*
X1489254Y1120753D01*
Y1122680D01*
X1488999Y1123964D01*
X1488272Y1125052D01*
X1480365Y1132960D01*
Y1148737D01*
X1481493Y1149205D01*
X1483350Y1150630D01*
X1484775Y1152487D01*
X1485671Y1154649D01*
X1485946Y1156734D01*
X1487076Y1157400D01*
X1497001Y1147475D01*
X1496281Y1146399D01*
X1495841Y1146581D01*
X1494790Y1146720D01*
Y1139190D01*
X1502319D01*
X1502181Y1140241D01*
X1501285Y1142403D01*
X1500381Y1143582D01*
X1501098Y1144734D01*
X1501140Y1144725D01*
X1559440D01*
X1567635Y1136531D01*
Y1013460D01*
X1567891Y1012176D01*
X1568618Y1011088D01*
X1582038Y997668D01*
X1581552Y996495D01*
X1554360D01*
Y1003180D01*
X1534280D01*
Y983100D01*
X1554360D01*
Y989786D01*
X1589921D01*
X1591765Y987941D01*
Y946150D01*
X1592021Y944866D01*
X1592748Y943778D01*
X1593836Y943051D01*
X1595120Y942795D01*
X1617330D01*
Y938770D01*
X1636410D01*
Y955500D01*
X1636410Y955850D01*
Y956770D01*
X1636410Y957120D01*
Y973850D01*
X1630224D01*
Y976630D01*
X1629969Y977914D01*
X1629242Y979002D01*
X1618795Y989449D01*
Y1013961D01*
X1619870Y1014430D01*
Y1014430D01*
X1628140D01*
Y1022470D01*
X1629410D01*
Y1023740D01*
X1638950D01*
Y1029430D01*
Y1034116D01*
X1659770D01*
X1661054Y1034371D01*
X1662142Y1035098D01*
X1666600Y1039556D01*
X1667729Y1039089D01*
X1670050Y1038783D01*
X1672371Y1039089D01*
X1674533Y1039985D01*
X1676390Y1041410D01*
X1677815Y1043267D01*
X1678711Y1045429D01*
X1679017Y1047750D01*
X1678711Y1050071D01*
X1677815Y1052233D01*
X1676390Y1054090D01*
X1674533Y1055515D01*
X1672371Y1056411D01*
X1670050Y1056717D01*
X1667729Y1056411D01*
X1665567Y1055515D01*
X1663710Y1054090D01*
X1662285Y1052233D01*
X1661389Y1050071D01*
X1661083Y1047750D01*
X1661389Y1045429D01*
X1661856Y1044300D01*
X1658380Y1040824D01*
X1638950D01*
Y1045510D01*
X1632764D01*
Y1057095D01*
X1653540D01*
X1654824Y1057351D01*
X1655912Y1058078D01*
X1664802Y1066968D01*
X1665529Y1068056D01*
X1665784Y1069340D01*
Y1121760D01*
X1671970D01*
Y1138490D01*
X1671970Y1138840D01*
Y1139760D01*
X1671970Y1140110D01*
Y1156840D01*
X1665894D01*
Y1180450D01*
X1671080D01*
Y1199530D01*
X1654350D01*
X1654000Y1199530D01*
D02*
G37*
G36*
X1010920Y1080737D02*
X1008299Y1080392D01*
X1005857Y1079380D01*
X1003759Y1077771D01*
X1002150Y1075673D01*
X1001138Y1073231D01*
X1000793Y1070610D01*
X1001138Y1067989D01*
X1002150Y1065547D01*
X1003759Y1063449D01*
X1005857Y1061840D01*
X1008299Y1060828D01*
X1010920Y1060483D01*
X1013541Y1060828D01*
X1015983Y1061840D01*
X1018081Y1063449D01*
X1019690Y1065547D01*
X1020702Y1067989D01*
X1021047Y1070610D01*
X1020702Y1073231D01*
X1019690Y1075673D01*
X1018081Y1077771D01*
X1015983Y1079380D01*
X1013541Y1080392D01*
X1010920Y1080737D01*
D02*
G37*
G36*
X1178860Y1062990D02*
X1172090D01*
Y1054720D01*
X1178860D01*
Y1062990D01*
D02*
G37*
G36*
X1383850Y1050890D02*
X1375180D01*
X1375318Y1050196D01*
X1376034Y1049124D01*
X1377106Y1048408D01*
X1378370Y1048157D01*
X1383850D01*
Y1050890D01*
D02*
G37*
G36*
X1545590Y1054009D02*
Y1046480D01*
X1553120D01*
X1552981Y1047531D01*
X1552085Y1049693D01*
X1550660Y1051550D01*
X1548803Y1052975D01*
X1546641Y1053871D01*
X1545590Y1054009D01*
D02*
G37*
G36*
X1543050D02*
X1541999Y1053871D01*
X1539837Y1052975D01*
X1537980Y1051550D01*
X1536555Y1049693D01*
X1535659Y1047531D01*
X1535520Y1046480D01*
X1543050D01*
Y1054009D01*
D02*
G37*
G36*
X1553120Y1043940D02*
X1545590D01*
Y1036411D01*
X1546641Y1036549D01*
X1548803Y1037445D01*
X1550660Y1038870D01*
X1552085Y1040727D01*
X1552981Y1042889D01*
X1553120Y1043940D01*
D02*
G37*
G36*
X1543050D02*
X1535520D01*
X1535659Y1042889D01*
X1536555Y1040727D01*
X1537980Y1038870D01*
X1539837Y1037445D01*
X1541999Y1036549D01*
X1543050Y1036411D01*
Y1043940D01*
D02*
G37*
G36*
X897890Y1057987D02*
X895569Y1057681D01*
X893407Y1056785D01*
X891550Y1055360D01*
X890125Y1053503D01*
X889229Y1051341D01*
X888923Y1049020D01*
X889229Y1046699D01*
X890125Y1044537D01*
X891550Y1042680D01*
X893407Y1041255D01*
X895569Y1040359D01*
X897890Y1040053D01*
X900211Y1040359D01*
X902373Y1041255D01*
X904230Y1042680D01*
X905060Y1043761D01*
X1000984D01*
X1001138Y1042589D01*
X1002150Y1040147D01*
X1003759Y1038049D01*
X1005857Y1036440D01*
X1008299Y1035428D01*
X1010920Y1035083D01*
X1013541Y1035428D01*
X1015983Y1036440D01*
X1018081Y1038049D01*
X1019690Y1040147D01*
X1020702Y1042589D01*
X1021047Y1045210D01*
X1020702Y1047831D01*
X1019690Y1050273D01*
X1018081Y1052371D01*
X1015983Y1053980D01*
X1013541Y1054992D01*
X1010920Y1055337D01*
X1008299Y1054992D01*
X1005857Y1053980D01*
X1003759Y1052371D01*
X1002301Y1050470D01*
X906666D01*
X906551Y1051341D01*
X905655Y1053503D01*
X904230Y1055360D01*
X902373Y1056785D01*
X900211Y1057681D01*
X897890Y1057987D01*
D02*
G37*
G36*
X1177590Y1039510D02*
X1170820D01*
Y1031240D01*
X1177590D01*
Y1039510D01*
D02*
G37*
G36*
X1593850Y1036229D02*
Y1028700D01*
X1601380D01*
X1601241Y1029751D01*
X1600345Y1031913D01*
X1598920Y1033770D01*
X1597063Y1035195D01*
X1594901Y1036091D01*
X1593850Y1036229D01*
D02*
G37*
G36*
X1591310D02*
X1590259Y1036091D01*
X1588097Y1035195D01*
X1586240Y1033770D01*
X1584815Y1031913D01*
X1583919Y1029751D01*
X1583781Y1028700D01*
X1591310D01*
Y1036229D01*
D02*
G37*
G36*
X1010920Y1029937D02*
X1008299Y1029592D01*
X1005857Y1028580D01*
X1003759Y1026971D01*
X1002150Y1024873D01*
X1001442Y1023165D01*
X922633D01*
X922165Y1024293D01*
X920740Y1026150D01*
X918883Y1027575D01*
X916721Y1028471D01*
X914400Y1028777D01*
X912079Y1028471D01*
X909917Y1027575D01*
X908060Y1026150D01*
X906635Y1024293D01*
X905739Y1022131D01*
X905433Y1019810D01*
X905739Y1017489D01*
X906635Y1015327D01*
X908060Y1013470D01*
X909917Y1012045D01*
X912079Y1011149D01*
X914400Y1010843D01*
X916721Y1011149D01*
X918883Y1012045D01*
X920740Y1013470D01*
X922165Y1015327D01*
X922633Y1016456D01*
X1001442D01*
X1002150Y1014747D01*
X1003759Y1012649D01*
X1005857Y1011040D01*
X1008299Y1010028D01*
X1010920Y1009683D01*
X1013541Y1010028D01*
X1015983Y1011040D01*
X1018081Y1012649D01*
X1019690Y1014747D01*
X1020702Y1017189D01*
X1021047Y1019810D01*
X1020702Y1022431D01*
X1019690Y1024873D01*
X1018081Y1026971D01*
X1015983Y1028580D01*
X1013541Y1029592D01*
X1010920Y1029937D01*
D02*
G37*
G36*
X1601380Y1026160D02*
X1593850D01*
Y1018631D01*
X1594901Y1018769D01*
X1597063Y1019665D01*
X1598920Y1021090D01*
X1600345Y1022947D01*
X1601241Y1025109D01*
X1601380Y1026160D01*
D02*
G37*
G36*
X1591310D02*
X1583781D01*
X1583919Y1025109D01*
X1584815Y1022947D01*
X1586240Y1021090D01*
X1588097Y1019665D01*
X1590259Y1018769D01*
X1591310Y1018631D01*
Y1026160D01*
D02*
G37*
G36*
X1638950Y1021200D02*
X1630680D01*
Y1014430D01*
X1638950D01*
Y1021200D01*
D02*
G37*
G36*
X1270000Y1018449D02*
Y1010920D01*
X1277530D01*
X1277391Y1011971D01*
X1276495Y1014133D01*
X1275070Y1015990D01*
X1273213Y1017415D01*
X1271051Y1018311D01*
X1270000Y1018449D01*
D02*
G37*
G36*
X1267460D02*
X1266409Y1018311D01*
X1264247Y1017415D01*
X1262390Y1015990D01*
X1260965Y1014133D01*
X1260069Y1011971D01*
X1259930Y1010920D01*
X1267460D01*
Y1018449D01*
D02*
G37*
G36*
Y1008380D02*
X1259930D01*
X1260069Y1007329D01*
X1260965Y1005167D01*
X1262390Y1003310D01*
X1264247Y1001885D01*
X1266409Y1000989D01*
X1267460Y1000851D01*
Y1008380D01*
D02*
G37*
G36*
X1010920Y1004537D02*
X1008299Y1004192D01*
X1005857Y1003180D01*
X1003759Y1001571D01*
X1002150Y999473D01*
X1001448Y997778D01*
X936581D01*
X936108Y998921D01*
X934683Y1000778D01*
X932826Y1002203D01*
X930663Y1003099D01*
X928343Y1003404D01*
X926022Y1003099D01*
X923859Y1002203D01*
X922002Y1000778D01*
X920577Y998921D01*
X919681Y996758D01*
X919376Y994437D01*
X919681Y992117D01*
X920577Y989954D01*
X922002Y988097D01*
X923859Y986672D01*
X926022Y985776D01*
X928343Y985471D01*
X930663Y985776D01*
X932826Y986672D01*
X934683Y988097D01*
X936108Y989954D01*
X936570Y991069D01*
X1001437D01*
X1002150Y989347D01*
X1003759Y987249D01*
X1005857Y985640D01*
X1008299Y984628D01*
X1010920Y984283D01*
X1013541Y984628D01*
X1015983Y985640D01*
X1018081Y987249D01*
X1019690Y989347D01*
X1020702Y991789D01*
X1021047Y994410D01*
X1020702Y997031D01*
X1019690Y999473D01*
X1018081Y1001571D01*
X1015983Y1003180D01*
X1013541Y1004192D01*
X1010920Y1004537D01*
D02*
G37*
G36*
X1426630Y1001410D02*
X1419860D01*
Y993140D01*
X1426630D01*
Y1001410D01*
D02*
G37*
G36*
X1056640Y995590D02*
Y988060D01*
X1064169D01*
X1064031Y989111D01*
X1063135Y991273D01*
X1061710Y993130D01*
X1059853Y994555D01*
X1057691Y995451D01*
X1056640Y995590D01*
D02*
G37*
G36*
X1054100D02*
X1053049Y995451D01*
X1050887Y994555D01*
X1049030Y993130D01*
X1047605Y991273D01*
X1046709Y989111D01*
X1046571Y988060D01*
X1054100D01*
Y995590D01*
D02*
G37*
G36*
X1135380Y1004647D02*
X1133059Y1004341D01*
X1130897Y1003445D01*
X1129040Y1002020D01*
X1127615Y1000163D01*
X1126719Y998001D01*
X1126413Y995680D01*
X1126719Y993359D01*
X1127186Y992230D01*
X1116498Y981542D01*
X1115771Y980454D01*
X1115516Y979170D01*
Y952469D01*
X1114009Y952271D01*
X1111847Y951375D01*
X1109990Y949950D01*
X1108565Y948093D01*
X1107669Y945931D01*
X1107363Y943610D01*
X1107669Y941289D01*
X1108565Y939127D01*
X1109990Y937270D01*
X1111847Y935845D01*
X1114009Y934949D01*
X1116330Y934643D01*
X1118651Y934949D01*
X1120813Y935845D01*
X1122670Y937270D01*
X1124095Y939127D01*
X1124991Y941289D01*
X1125297Y943610D01*
X1124991Y945931D01*
X1124095Y948093D01*
X1122670Y949950D01*
X1122225Y950293D01*
Y977781D01*
X1131930Y987486D01*
X1133059Y987019D01*
X1135380Y986713D01*
X1137701Y987019D01*
X1139863Y987915D01*
X1141720Y989340D01*
X1143145Y991197D01*
X1144041Y993359D01*
X1144347Y995680D01*
X1144041Y998001D01*
X1143145Y1000163D01*
X1141720Y1002020D01*
X1139863Y1003445D01*
X1137701Y1004341D01*
X1135380Y1004647D01*
D02*
G37*
G36*
X1324610Y990509D02*
Y982980D01*
X1332139D01*
X1332001Y984031D01*
X1331105Y986193D01*
X1329680Y988050D01*
X1327823Y989475D01*
X1325661Y990371D01*
X1324610Y990509D01*
D02*
G37*
G36*
X1426630Y990600D02*
X1419860D01*
Y982330D01*
X1426630D01*
Y990600D01*
D02*
G37*
G36*
X1064169Y985520D02*
X1056640D01*
Y977990D01*
X1057691Y978129D01*
X1059853Y979025D01*
X1061710Y980450D01*
X1063135Y982307D01*
X1064031Y984469D01*
X1064169Y985520D01*
D02*
G37*
G36*
X1054100D02*
X1046571D01*
X1046709Y984469D01*
X1047605Y982307D01*
X1049030Y980450D01*
X1050887Y979025D01*
X1053049Y978129D01*
X1054100Y977990D01*
Y985520D01*
D02*
G37*
G36*
X1332139Y980440D02*
X1324610D01*
Y972911D01*
X1325661Y973049D01*
X1327823Y973945D01*
X1329680Y975370D01*
X1331105Y977227D01*
X1332001Y979389D01*
X1332139Y980440D01*
D02*
G37*
G36*
X1545590Y977699D02*
Y969010D01*
X1554279D01*
X1554102Y970361D01*
X1553090Y972803D01*
X1551481Y974901D01*
X1549383Y976510D01*
X1546941Y977522D01*
X1545590Y977699D01*
D02*
G37*
G36*
X1543050D02*
X1541699Y977522D01*
X1539257Y976510D01*
X1537159Y974901D01*
X1535550Y972803D01*
X1534538Y970361D01*
X1534361Y969010D01*
X1543050D01*
Y977699D01*
D02*
G37*
G36*
X1426510Y973470D02*
X1419740D01*
Y965200D01*
X1426510D01*
Y973470D01*
D02*
G37*
G36*
X1010920Y979137D02*
X1008299Y978792D01*
X1005857Y977780D01*
X1003759Y976171D01*
X1002150Y974073D01*
X1001138Y971631D01*
X1000793Y969010D01*
X1001138Y966389D01*
X1002150Y963947D01*
X1003759Y961849D01*
X1005857Y960240D01*
X1008299Y959228D01*
X1010920Y958883D01*
X1013541Y959228D01*
X1015983Y960240D01*
X1018081Y961849D01*
X1019690Y963947D01*
X1020702Y966389D01*
X1021047Y969010D01*
X1020702Y971631D01*
X1019690Y974073D01*
X1018081Y976171D01*
X1015983Y977780D01*
X1013541Y978792D01*
X1010920Y979137D01*
D02*
G37*
G36*
X1349040Y967120D02*
X1342270D01*
Y958850D01*
X1349040D01*
Y967120D01*
D02*
G37*
G36*
X1554279Y966470D02*
X1545590D01*
Y957781D01*
X1546941Y957958D01*
X1549383Y958970D01*
X1551481Y960579D01*
X1553090Y962677D01*
X1554102Y965119D01*
X1554279Y966470D01*
D02*
G37*
G36*
X1543050D02*
X1534361D01*
X1534538Y965119D01*
X1535550Y962677D01*
X1537159Y960579D01*
X1539257Y958970D01*
X1541699Y957958D01*
X1543050Y957781D01*
Y966470D01*
D02*
G37*
G36*
X1426510Y962660D02*
X1419740D01*
Y954390D01*
X1426510D01*
Y962660D01*
D02*
G37*
G36*
X1211580Y957489D02*
Y949960D01*
X1219109D01*
X1218971Y951011D01*
X1218075Y953173D01*
X1216650Y955030D01*
X1214793Y956455D01*
X1212631Y957351D01*
X1211580Y957489D01*
D02*
G37*
G36*
X1209040D02*
X1207989Y957351D01*
X1205827Y956455D01*
X1203970Y955030D01*
X1202545Y953173D01*
X1201649Y951011D01*
X1201510Y949960D01*
X1209040D01*
Y957489D01*
D02*
G37*
G36*
X1349040Y956310D02*
X1342270D01*
Y948040D01*
X1349040D01*
Y956310D01*
D02*
G37*
G36*
X1219109Y947420D02*
X1211580D01*
Y939891D01*
X1212631Y940029D01*
X1214793Y940925D01*
X1216650Y942350D01*
X1218075Y944207D01*
X1218971Y946369D01*
X1219109Y947420D01*
D02*
G37*
G36*
X1209040D02*
X1201510D01*
X1201649Y946369D01*
X1202545Y944207D01*
X1203970Y942350D01*
X1205827Y940925D01*
X1207989Y940029D01*
X1209040Y939891D01*
Y947420D01*
D02*
G37*
G36*
X1570990Y947329D02*
Y939800D01*
X1578519D01*
X1578381Y940851D01*
X1577485Y943013D01*
X1576060Y944870D01*
X1574203Y946295D01*
X1572041Y947191D01*
X1570990Y947329D01*
D02*
G37*
G36*
X1568450D02*
X1567399Y947191D01*
X1565237Y946295D01*
X1563380Y944870D01*
X1561955Y943013D01*
X1561059Y940851D01*
X1560921Y939800D01*
X1568450D01*
Y947329D01*
D02*
G37*
G36*
X1349040Y942990D02*
X1342270D01*
Y934720D01*
X1349040D01*
Y942990D01*
D02*
G37*
G36*
X1010920Y953737D02*
X1008299Y953392D01*
X1005857Y952380D01*
X1003759Y950771D01*
X1002150Y948673D01*
X1001138Y946231D01*
X1000793Y943610D01*
X1001138Y940989D01*
X1002150Y938547D01*
X1003759Y936449D01*
X1005857Y934840D01*
X1008299Y933828D01*
X1010920Y933483D01*
X1013541Y933828D01*
X1015983Y934840D01*
X1018081Y936449D01*
X1019690Y938547D01*
X1020702Y940989D01*
X1021047Y943610D01*
X1020702Y946231D01*
X1019690Y948673D01*
X1018081Y950771D01*
X1015983Y952380D01*
X1013541Y953392D01*
X1010920Y953737D01*
D02*
G37*
G36*
X1578519Y937260D02*
X1570990D01*
Y929731D01*
X1572041Y929869D01*
X1574203Y930765D01*
X1576060Y932190D01*
X1577485Y934047D01*
X1578381Y936209D01*
X1578519Y937260D01*
D02*
G37*
G36*
X1568450D02*
X1560921D01*
X1561059Y936209D01*
X1561955Y934047D01*
X1563380Y932190D01*
X1565237Y930765D01*
X1567399Y929869D01*
X1568450Y929731D01*
Y937260D01*
D02*
G37*
G36*
X1349040Y932180D02*
X1342270D01*
Y923910D01*
X1349040D01*
Y932180D01*
D02*
G37*
G36*
X1109980Y1012267D02*
X1107659Y1011961D01*
X1105497Y1011065D01*
X1103640Y1009640D01*
X1102215Y1007783D01*
X1101319Y1005621D01*
X1101013Y1003300D01*
X1101319Y1000979D01*
X1102215Y998817D01*
X1103640Y996960D01*
X1105497Y995535D01*
X1106626Y995067D01*
Y958969D01*
X1093638Y945982D01*
X1092911Y944894D01*
X1092655Y943610D01*
Y934063D01*
X1091527Y933595D01*
X1089670Y932170D01*
X1088245Y930313D01*
X1087349Y928151D01*
X1087043Y925830D01*
X1087349Y923509D01*
X1088245Y921347D01*
X1089670Y919490D01*
X1091527Y918065D01*
X1093689Y917169D01*
X1096010Y916863D01*
X1098331Y917169D01*
X1100493Y918065D01*
X1102350Y919490D01*
X1103775Y921347D01*
X1104671Y923509D01*
X1104977Y925830D01*
X1104671Y928151D01*
X1103775Y930313D01*
X1102350Y932170D01*
X1100493Y933595D01*
X1099364Y934063D01*
Y942221D01*
X1112352Y955208D01*
X1113079Y956296D01*
X1113335Y957580D01*
Y995067D01*
X1114463Y995535D01*
X1116320Y996960D01*
X1117745Y998817D01*
X1118641Y1000979D01*
X1118947Y1003300D01*
X1118641Y1005621D01*
X1117745Y1007783D01*
X1116320Y1009640D01*
X1114463Y1011065D01*
X1112301Y1011961D01*
X1109980Y1012267D01*
D02*
G37*
G36*
X1407160Y932257D02*
X1404839Y931951D01*
X1402677Y931055D01*
X1400820Y929630D01*
X1399395Y927773D01*
X1398499Y925611D01*
X1398193Y923290D01*
X1398499Y920969D01*
X1399395Y918807D01*
X1400820Y916950D01*
X1400984Y916824D01*
X1400213Y915815D01*
X1398051Y916711D01*
X1395730Y917017D01*
X1393409Y916711D01*
X1391247Y915815D01*
X1389390Y914390D01*
X1387965Y912533D01*
X1387069Y910371D01*
X1386763Y908050D01*
X1387069Y905729D01*
X1387965Y903567D01*
X1389390Y901710D01*
X1391247Y900285D01*
X1393409Y899389D01*
X1395730Y899083D01*
X1398051Y899389D01*
X1399180Y899856D01*
X1463208Y835828D01*
X1464296Y835101D01*
X1465580Y834846D01*
X1526420D01*
X1563424Y797842D01*
X1562220Y796273D01*
X1561208Y793831D01*
X1560863Y791210D01*
X1561208Y788589D01*
X1562220Y786147D01*
X1563829Y784049D01*
X1565927Y782440D01*
X1568369Y781428D01*
X1570990Y781083D01*
X1573611Y781428D01*
X1576053Y782440D01*
X1578151Y784049D01*
X1579760Y786147D01*
X1580772Y788589D01*
X1581117Y791210D01*
X1580772Y793831D01*
X1579760Y796273D01*
X1578151Y798371D01*
X1576053Y799980D01*
X1573611Y800992D01*
X1570990Y801337D01*
X1569600Y801154D01*
X1530182Y840572D01*
X1529094Y841299D01*
X1527810Y841554D01*
X1466969D01*
X1403924Y904600D01*
X1404391Y905729D01*
X1404697Y908050D01*
X1404391Y910371D01*
X1403495Y912533D01*
X1402070Y914390D01*
X1401906Y914516D01*
X1402677Y915525D01*
X1404839Y914629D01*
X1407160Y914323D01*
X1409481Y914629D01*
X1409712Y914725D01*
X1468840Y855596D01*
X1468845Y855575D01*
X1469572Y854487D01*
X1470450Y853608D01*
X1471539Y852881D01*
X1472822Y852626D01*
X1559440D01*
X1593035Y819031D01*
Y800688D01*
X1591327Y799980D01*
X1589229Y798371D01*
X1587620Y796273D01*
X1586608Y793831D01*
X1586263Y791210D01*
X1586608Y788589D01*
X1587620Y786147D01*
X1589229Y784049D01*
X1591327Y782440D01*
X1593769Y781428D01*
X1596390Y781083D01*
X1599011Y781428D01*
X1601453Y782440D01*
X1603551Y784049D01*
X1605160Y786147D01*
X1606172Y788589D01*
X1606517Y791210D01*
X1606172Y793831D01*
X1605160Y796273D01*
X1603551Y798371D01*
X1601453Y799980D01*
X1599745Y800688D01*
Y820420D01*
X1599489Y821704D01*
X1598762Y822792D01*
X1563202Y858352D01*
X1562114Y859079D01*
X1560830Y859334D01*
X1474499D01*
X1474316Y859608D01*
X1414982Y918942D01*
X1415821Y920969D01*
X1416127Y923290D01*
X1415821Y925611D01*
X1414925Y927773D01*
X1413500Y929630D01*
X1411643Y931055D01*
X1409481Y931951D01*
X1407160Y932257D01*
D02*
G37*
G36*
X1010920Y928337D02*
X1008299Y927992D01*
X1005857Y926980D01*
X1003759Y925371D01*
X1002150Y923273D01*
X1001138Y920831D01*
X1000793Y918210D01*
X1001138Y915589D01*
X1002150Y913147D01*
X1003759Y911049D01*
X1005857Y909440D01*
X1008299Y908428D01*
X1010920Y908083D01*
X1013541Y908428D01*
X1015983Y909440D01*
X1018081Y911049D01*
X1019690Y913147D01*
X1020702Y915589D01*
X1021047Y918210D01*
X1020702Y920831D01*
X1019690Y923273D01*
X1018081Y925371D01*
X1015983Y926980D01*
X1013541Y927992D01*
X1010920Y928337D01*
D02*
G37*
G36*
Y902937D02*
X1008299Y902592D01*
X1005857Y901580D01*
X1003759Y899971D01*
X1002150Y897873D01*
X1001138Y895431D01*
X1000793Y892810D01*
X1001138Y890189D01*
X1002150Y887747D01*
X1003759Y885649D01*
X1005857Y884040D01*
X1008299Y883028D01*
X1010920Y882683D01*
X1013541Y883028D01*
X1015983Y884040D01*
X1018081Y885649D01*
X1019690Y887747D01*
X1020702Y890189D01*
X1021047Y892810D01*
X1020702Y895431D01*
X1019690Y897873D01*
X1018081Y899971D01*
X1015983Y901580D01*
X1013541Y902592D01*
X1010920Y902937D01*
D02*
G37*
G36*
X1318260Y881290D02*
Y873760D01*
X1325789D01*
X1325651Y874811D01*
X1324755Y876973D01*
X1323330Y878830D01*
X1321473Y880255D01*
X1319311Y881151D01*
X1318260Y881290D01*
D02*
G37*
G36*
X1315720D02*
X1314669Y881151D01*
X1312507Y880255D01*
X1310650Y878830D01*
X1309225Y876973D01*
X1308329Y874811D01*
X1308190Y873760D01*
X1315720D01*
Y881290D01*
D02*
G37*
G36*
X1325789Y871220D02*
X1318260D01*
Y863690D01*
X1319311Y863829D01*
X1321473Y864725D01*
X1323330Y866150D01*
X1324755Y868007D01*
X1325651Y870169D01*
X1325789Y871220D01*
D02*
G37*
G36*
X1315720D02*
X1308190D01*
X1308329Y870169D01*
X1309225Y868007D01*
X1310650Y866150D01*
X1312507Y864725D01*
X1314669Y863829D01*
X1315720Y863690D01*
Y871220D01*
D02*
G37*
G36*
X1010920Y877537D02*
X1008299Y877192D01*
X1005857Y876180D01*
X1003759Y874571D01*
X1002150Y872473D01*
X1001138Y870031D01*
X1000793Y867410D01*
X1001138Y864789D01*
X1002150Y862347D01*
X1003759Y860249D01*
X1005857Y858640D01*
X1008299Y857628D01*
X1010920Y857283D01*
X1013541Y857628D01*
X1015983Y858640D01*
X1018081Y860249D01*
X1019690Y862347D01*
X1020702Y864789D01*
X1021047Y867410D01*
X1020702Y870031D01*
X1019690Y872473D01*
X1018081Y874571D01*
X1015983Y876180D01*
X1013541Y877192D01*
X1010920Y877537D01*
D02*
G37*
G36*
Y852137D02*
X1008299Y851792D01*
X1005857Y850780D01*
X1003759Y849171D01*
X1002150Y847073D01*
X1001138Y844631D01*
X1000793Y842010D01*
X1001138Y839389D01*
X1002150Y836947D01*
X1003759Y834849D01*
X1005857Y833240D01*
X1008299Y832228D01*
X1010920Y831883D01*
X1013541Y832228D01*
X1015983Y833240D01*
X1018081Y834849D01*
X1019690Y836947D01*
X1020702Y839389D01*
X1021047Y842010D01*
X1020702Y844631D01*
X1019690Y847073D01*
X1018081Y849171D01*
X1015983Y850780D01*
X1013541Y851792D01*
X1010920Y852137D01*
D02*
G37*
G36*
Y826737D02*
X1008299Y826392D01*
X1005857Y825380D01*
X1003759Y823771D01*
X1002150Y821673D01*
X1001138Y819231D01*
X1000793Y816610D01*
X1001138Y813989D01*
X1002150Y811547D01*
X1003759Y809449D01*
X1005857Y807840D01*
X1008299Y806828D01*
X1010920Y806483D01*
X1013541Y806828D01*
X1015983Y807840D01*
X1018081Y809449D01*
X1019690Y811547D01*
X1020702Y813989D01*
X1021047Y816610D01*
X1020702Y819231D01*
X1019690Y821673D01*
X1018081Y823771D01*
X1015983Y825380D01*
X1013541Y826392D01*
X1010920Y826737D01*
D02*
G37*
G36*
X1225430Y801250D02*
X1205350D01*
Y781170D01*
X1225430D01*
Y801250D01*
D02*
G37*
G36*
X1377950Y901777D02*
X1375629Y901471D01*
X1373467Y900575D01*
X1371610Y899150D01*
X1370185Y897293D01*
X1369289Y895131D01*
X1368983Y892810D01*
X1369289Y890489D01*
X1370185Y888327D01*
X1371610Y886470D01*
X1373467Y885045D01*
X1375629Y884149D01*
X1377950Y883843D01*
X1380271Y884149D01*
X1382433Y885045D01*
X1383043Y885513D01*
X1447333Y821223D01*
X1448421Y820496D01*
X1449705Y820240D01*
X1520706D01*
X1539915Y801031D01*
X1539759Y799391D01*
X1538429Y798371D01*
X1536820Y796273D01*
X1535808Y793831D01*
X1535463Y791210D01*
X1535808Y788589D01*
X1536820Y786147D01*
X1538429Y784049D01*
X1540527Y782440D01*
X1542969Y781428D01*
X1545590Y781083D01*
X1548211Y781428D01*
X1550653Y782440D01*
X1552751Y784049D01*
X1554360Y786147D01*
X1555372Y788589D01*
X1555717Y791210D01*
X1555372Y793831D01*
X1554360Y796273D01*
X1552751Y798371D01*
X1550653Y799980D01*
X1548211Y800992D01*
X1548075Y801010D01*
X1547829Y802244D01*
X1547102Y803332D01*
X1524467Y825967D01*
X1523379Y826694D01*
X1522095Y826949D01*
X1451095D01*
X1386721Y891323D01*
X1386917Y892810D01*
X1386611Y895131D01*
X1385715Y897293D01*
X1384290Y899150D01*
X1382433Y900575D01*
X1380271Y901471D01*
X1377950Y901777D01*
D02*
G37*
G36*
X1357630Y904317D02*
X1355309Y904011D01*
X1353147Y903115D01*
X1351290Y901690D01*
X1349865Y899833D01*
X1348969Y897671D01*
X1348663Y895350D01*
X1348969Y893029D01*
X1349865Y890867D01*
X1351290Y889010D01*
X1353147Y887585D01*
X1354276Y887117D01*
Y886460D01*
X1354531Y885176D01*
X1355258Y884088D01*
X1432093Y807253D01*
X1433181Y806526D01*
X1434465Y806271D01*
X1500385D01*
X1511116Y795540D01*
X1510408Y793831D01*
X1510063Y791210D01*
X1510408Y788589D01*
X1511420Y786147D01*
X1513029Y784049D01*
X1515127Y782440D01*
X1517569Y781428D01*
X1520190Y781083D01*
X1522811Y781428D01*
X1525253Y782440D01*
X1527351Y784049D01*
X1528960Y786147D01*
X1529972Y788589D01*
X1530317Y791210D01*
X1529972Y793831D01*
X1528960Y796273D01*
X1527351Y798371D01*
X1525253Y799980D01*
X1522811Y800992D01*
X1520190Y801337D01*
X1517569Y800992D01*
X1515860Y800284D01*
X1504147Y811997D01*
X1503059Y812724D01*
X1501775Y812980D01*
X1435854D01*
X1362390Y886444D01*
X1362641Y887989D01*
X1363970Y889010D01*
X1365395Y890867D01*
X1366291Y893029D01*
X1366597Y895350D01*
X1366291Y897671D01*
X1365395Y899833D01*
X1363970Y901690D01*
X1362113Y903115D01*
X1359951Y904011D01*
X1357630Y904317D01*
D02*
G37*
G36*
X1494790Y801337D02*
X1492169Y800992D01*
X1489727Y799980D01*
X1487629Y798371D01*
X1486020Y796273D01*
X1485008Y793831D01*
X1484663Y791210D01*
X1485008Y788589D01*
X1486020Y786147D01*
X1487629Y784049D01*
X1489727Y782440D01*
X1492169Y781428D01*
X1494790Y781083D01*
X1497411Y781428D01*
X1499853Y782440D01*
X1501951Y784049D01*
X1503560Y786147D01*
X1504572Y788589D01*
X1504917Y791210D01*
X1504572Y793831D01*
X1503560Y796273D01*
X1501951Y798371D01*
X1499853Y799980D01*
X1497411Y800992D01*
X1494790Y801337D01*
D02*
G37*
G36*
X1469390D02*
X1466769Y800992D01*
X1464327Y799980D01*
X1462229Y798371D01*
X1460620Y796273D01*
X1459608Y793831D01*
X1459263Y791210D01*
X1459608Y788589D01*
X1460620Y786147D01*
X1462229Y784049D01*
X1464327Y782440D01*
X1466769Y781428D01*
X1469390Y781083D01*
X1472011Y781428D01*
X1474453Y782440D01*
X1476551Y784049D01*
X1478160Y786147D01*
X1479172Y788589D01*
X1479517Y791210D01*
X1479172Y793831D01*
X1478160Y796273D01*
X1476551Y798371D01*
X1474453Y799980D01*
X1472011Y800992D01*
X1469390Y801337D01*
D02*
G37*
G36*
X1443990D02*
X1441369Y800992D01*
X1438927Y799980D01*
X1436829Y798371D01*
X1435220Y796273D01*
X1434208Y793831D01*
X1433863Y791210D01*
X1434208Y788589D01*
X1435220Y786147D01*
X1436829Y784049D01*
X1438927Y782440D01*
X1441369Y781428D01*
X1443990Y781083D01*
X1446611Y781428D01*
X1449053Y782440D01*
X1451151Y784049D01*
X1452760Y786147D01*
X1453772Y788589D01*
X1454117Y791210D01*
X1453772Y793831D01*
X1452760Y796273D01*
X1451151Y798371D01*
X1449053Y799980D01*
X1446611Y800992D01*
X1443990Y801337D01*
D02*
G37*
G36*
X1418590D02*
X1415969Y800992D01*
X1413527Y799980D01*
X1411429Y798371D01*
X1409820Y796273D01*
X1408808Y793831D01*
X1408463Y791210D01*
X1408808Y788589D01*
X1409820Y786147D01*
X1411429Y784049D01*
X1413527Y782440D01*
X1415969Y781428D01*
X1418590Y781083D01*
X1421211Y781428D01*
X1423653Y782440D01*
X1425751Y784049D01*
X1427360Y786147D01*
X1428372Y788589D01*
X1428717Y791210D01*
X1428372Y793831D01*
X1427360Y796273D01*
X1425751Y798371D01*
X1423653Y799980D01*
X1421211Y800992D01*
X1418590Y801337D01*
D02*
G37*
G36*
X1393190D02*
X1390569Y800992D01*
X1388127Y799980D01*
X1386029Y798371D01*
X1384420Y796273D01*
X1383408Y793831D01*
X1383063Y791210D01*
X1383408Y788589D01*
X1384420Y786147D01*
X1386029Y784049D01*
X1388127Y782440D01*
X1390569Y781428D01*
X1393190Y781083D01*
X1395811Y781428D01*
X1398253Y782440D01*
X1400351Y784049D01*
X1401960Y786147D01*
X1402972Y788589D01*
X1403317Y791210D01*
X1402972Y793831D01*
X1401960Y796273D01*
X1400351Y798371D01*
X1398253Y799980D01*
X1395811Y800992D01*
X1393190Y801337D01*
D02*
G37*
G36*
X1367790D02*
X1365169Y800992D01*
X1362727Y799980D01*
X1360629Y798371D01*
X1359020Y796273D01*
X1358008Y793831D01*
X1357663Y791210D01*
X1358008Y788589D01*
X1359020Y786147D01*
X1360629Y784049D01*
X1362727Y782440D01*
X1365169Y781428D01*
X1367790Y781083D01*
X1370411Y781428D01*
X1372853Y782440D01*
X1374951Y784049D01*
X1376560Y786147D01*
X1377572Y788589D01*
X1377917Y791210D01*
X1377572Y793831D01*
X1376560Y796273D01*
X1374951Y798371D01*
X1372853Y799980D01*
X1370411Y800992D01*
X1367790Y801337D01*
D02*
G37*
G36*
X1342390D02*
X1339769Y800992D01*
X1337327Y799980D01*
X1335229Y798371D01*
X1333620Y796273D01*
X1332608Y793831D01*
X1332263Y791210D01*
X1332608Y788589D01*
X1333620Y786147D01*
X1335229Y784049D01*
X1337327Y782440D01*
X1339769Y781428D01*
X1342390Y781083D01*
X1345011Y781428D01*
X1347453Y782440D01*
X1349551Y784049D01*
X1351160Y786147D01*
X1352172Y788589D01*
X1352517Y791210D01*
X1352172Y793831D01*
X1351160Y796273D01*
X1349551Y798371D01*
X1347453Y799980D01*
X1345011Y800992D01*
X1342390Y801337D01*
D02*
G37*
G36*
X1316990D02*
X1314369Y800992D01*
X1311927Y799980D01*
X1309829Y798371D01*
X1308220Y796273D01*
X1307208Y793831D01*
X1306863Y791210D01*
X1307208Y788589D01*
X1308220Y786147D01*
X1309829Y784049D01*
X1311927Y782440D01*
X1314369Y781428D01*
X1316990Y781083D01*
X1319611Y781428D01*
X1322053Y782440D01*
X1324151Y784049D01*
X1325760Y786147D01*
X1326772Y788589D01*
X1327117Y791210D01*
X1326772Y793831D01*
X1325760Y796273D01*
X1324151Y798371D01*
X1322053Y799980D01*
X1319611Y800992D01*
X1316990Y801337D01*
D02*
G37*
G36*
X1291590D02*
X1288969Y800992D01*
X1286527Y799980D01*
X1284429Y798371D01*
X1282820Y796273D01*
X1281808Y793831D01*
X1281463Y791210D01*
X1281808Y788589D01*
X1282820Y786147D01*
X1284429Y784049D01*
X1286527Y782440D01*
X1288969Y781428D01*
X1291590Y781083D01*
X1294211Y781428D01*
X1296653Y782440D01*
X1298751Y784049D01*
X1300360Y786147D01*
X1301372Y788589D01*
X1301717Y791210D01*
X1301372Y793831D01*
X1300360Y796273D01*
X1298751Y798371D01*
X1296653Y799980D01*
X1294211Y800992D01*
X1291590Y801337D01*
D02*
G37*
G36*
X1266190D02*
X1263569Y800992D01*
X1261127Y799980D01*
X1259029Y798371D01*
X1257420Y796273D01*
X1256408Y793831D01*
X1256063Y791210D01*
X1256408Y788589D01*
X1257420Y786147D01*
X1259029Y784049D01*
X1261127Y782440D01*
X1263569Y781428D01*
X1266190Y781083D01*
X1268811Y781428D01*
X1271253Y782440D01*
X1273351Y784049D01*
X1274960Y786147D01*
X1275972Y788589D01*
X1276317Y791210D01*
X1275972Y793831D01*
X1274960Y796273D01*
X1273351Y798371D01*
X1271253Y799980D01*
X1268811Y800992D01*
X1266190Y801337D01*
D02*
G37*
G36*
X1240790D02*
X1238169Y800992D01*
X1235727Y799980D01*
X1233629Y798371D01*
X1232020Y796273D01*
X1231008Y793831D01*
X1230663Y791210D01*
X1231008Y788589D01*
X1232020Y786147D01*
X1233629Y784049D01*
X1235727Y782440D01*
X1238169Y781428D01*
X1240790Y781083D01*
X1243411Y781428D01*
X1245853Y782440D01*
X1247951Y784049D01*
X1249560Y786147D01*
X1250572Y788589D01*
X1250917Y791210D01*
X1250572Y793831D01*
X1249560Y796273D01*
X1247951Y798371D01*
X1245853Y799980D01*
X1243411Y800992D01*
X1240790Y801337D01*
D02*
G37*
%LPD*%
G36*
X1627382Y1338254D02*
X1627604Y1338237D01*
X1627825Y1338208D01*
X1628044Y1338167D01*
X1628260Y1338115D01*
X1628473Y1338052D01*
X1628683Y1337978D01*
X1628889Y1337892D01*
X1629090Y1337797D01*
X1629285Y1337691D01*
X1629475Y1337574D01*
X1629658Y1337448D01*
X1629835Y1337313D01*
X1630004Y1337168D01*
X1630165Y1337015D01*
X1630318Y1336854D01*
X1630463Y1336685D01*
X1630598Y1336508D01*
X1630724Y1336325D01*
X1630841Y1336135D01*
X1630947Y1335939D01*
X1631043Y1335739D01*
X1631128Y1335533D01*
X1631202Y1335323D01*
X1631265Y1335110D01*
X1631317Y1334894D01*
X1631358Y1334675D01*
X1631387Y1334454D01*
X1631404Y1334232D01*
X1631410Y1334010D01*
X1631404Y1333788D01*
X1631387Y1333566D01*
X1631358Y1333345D01*
X1631317Y1333126D01*
X1631265Y1332910D01*
X1631202Y1332697D01*
X1631128Y1332487D01*
X1631043Y1332281D01*
X1630947Y1332081D01*
X1630841Y1331885D01*
X1630724Y1331695D01*
X1630598Y1331512D01*
X1630463Y1331335D01*
X1630318Y1331166D01*
X1630165Y1331005D01*
X1630004Y1330852D01*
X1629835Y1330707D01*
X1629658Y1330572D01*
X1629475Y1330446D01*
X1629285Y1330329D01*
X1629090Y1330223D01*
X1628889Y1330127D01*
X1628683Y1330042D01*
X1628473Y1329968D01*
X1628260Y1329905D01*
X1628044Y1329853D01*
X1627825Y1329812D01*
X1627604Y1329783D01*
X1627382Y1329766D01*
X1627160Y1329760D01*
X1625160D01*
X1624938Y1329766D01*
X1624716Y1329783D01*
X1624495Y1329812D01*
X1624276Y1329853D01*
X1624060Y1329905D01*
X1623847Y1329968D01*
X1623637Y1330042D01*
X1623431Y1330127D01*
X1623231Y1330223D01*
X1623035Y1330329D01*
X1622845Y1330446D01*
X1622662Y1330572D01*
X1622485Y1330707D01*
X1622316Y1330852D01*
X1622155Y1331005D01*
X1622002Y1331166D01*
X1621857Y1331335D01*
X1621722Y1331512D01*
X1621596Y1331695D01*
X1621479Y1331885D01*
X1621373Y1332081D01*
X1621277Y1332281D01*
X1621192Y1332487D01*
X1621118Y1332697D01*
X1621055Y1332910D01*
X1621003Y1333126D01*
X1620962Y1333345D01*
X1620933Y1333566D01*
X1620916Y1333788D01*
X1620910Y1334010D01*
X1620916Y1334232D01*
X1620933Y1334454D01*
X1620962Y1334675D01*
X1621003Y1334894D01*
X1621055Y1335110D01*
X1621118Y1335323D01*
X1621192Y1335533D01*
X1621277Y1335739D01*
X1621373Y1335939D01*
X1621479Y1336135D01*
X1621596Y1336325D01*
X1621722Y1336508D01*
X1621857Y1336685D01*
X1622002Y1336854D01*
X1622155Y1337015D01*
X1622316Y1337168D01*
X1622485Y1337313D01*
X1622662Y1337448D01*
X1622845Y1337574D01*
X1623035Y1337691D01*
X1623231Y1337797D01*
X1623431Y1337892D01*
X1623637Y1337978D01*
X1623847Y1338052D01*
X1624060Y1338115D01*
X1624276Y1338167D01*
X1624495Y1338208D01*
X1624716Y1338237D01*
X1624938Y1338254D01*
X1625160Y1338260D01*
X1627160D01*
X1627382Y1338254D01*
D02*
G37*
%LPC*%
G36*
X1627160Y1337260D02*
X1625160D01*
X1624990Y1337256D01*
X1624820Y1337242D01*
X1624652Y1337220D01*
X1624484Y1337189D01*
X1624319Y1337149D01*
X1624156Y1337101D01*
X1623995Y1337044D01*
X1623838Y1336979D01*
X1623685Y1336906D01*
X1623535Y1336825D01*
X1623390Y1336736D01*
X1623250Y1336639D01*
X1623115Y1336536D01*
X1622985Y1336425D01*
X1622862Y1336308D01*
X1622745Y1336185D01*
X1622634Y1336055D01*
X1622531Y1335920D01*
X1622434Y1335780D01*
X1622345Y1335635D01*
X1622264Y1335486D01*
X1622191Y1335332D01*
X1622126Y1335175D01*
X1622069Y1335014D01*
X1622021Y1334851D01*
X1621981Y1334686D01*
X1621950Y1334518D01*
X1621928Y1334350D01*
X1621915Y1334180D01*
X1621910Y1334010D01*
X1621915Y1333840D01*
X1621928Y1333670D01*
X1621950Y1333502D01*
X1621981Y1333334D01*
X1622021Y1333169D01*
X1622069Y1333006D01*
X1622126Y1332845D01*
X1622191Y1332688D01*
X1622264Y1332534D01*
X1622345Y1332385D01*
X1622434Y1332240D01*
X1622531Y1332100D01*
X1622634Y1331965D01*
X1622745Y1331835D01*
X1622862Y1331712D01*
X1622985Y1331595D01*
X1623115Y1331484D01*
X1623250Y1331381D01*
X1623390Y1331284D01*
X1623535Y1331195D01*
X1623685Y1331114D01*
X1623838Y1331041D01*
X1623995Y1330976D01*
X1624156Y1330919D01*
X1624319Y1330871D01*
X1624484Y1330831D01*
X1624652Y1330800D01*
X1624820Y1330778D01*
X1624990Y1330764D01*
X1625160Y1330760D01*
X1627160D01*
X1627330Y1330764D01*
X1627500Y1330778D01*
X1627668Y1330800D01*
X1627836Y1330831D01*
X1628001Y1330871D01*
X1628164Y1330919D01*
X1628325Y1330976D01*
X1628482Y1331041D01*
X1628636Y1331114D01*
X1628785Y1331195D01*
X1628930Y1331284D01*
X1629070Y1331381D01*
X1629205Y1331484D01*
X1629335Y1331595D01*
X1629458Y1331712D01*
X1629575Y1331835D01*
X1629686Y1331965D01*
X1629789Y1332100D01*
X1629886Y1332240D01*
X1629975Y1332385D01*
X1630056Y1332534D01*
X1630129Y1332688D01*
X1630194Y1332845D01*
X1630251Y1333006D01*
X1630299Y1333169D01*
X1630339Y1333334D01*
X1630370Y1333502D01*
X1630392Y1333670D01*
X1630406Y1333840D01*
X1630410Y1334010D01*
X1630406Y1334180D01*
X1630392Y1334350D01*
X1630370Y1334518D01*
X1630339Y1334686D01*
X1630299Y1334851D01*
X1630251Y1335014D01*
X1630194Y1335175D01*
X1630129Y1335332D01*
X1630056Y1335486D01*
X1629975Y1335635D01*
X1629886Y1335780D01*
X1629789Y1335920D01*
X1629686Y1336055D01*
X1629575Y1336185D01*
X1629458Y1336308D01*
X1629335Y1336425D01*
X1629205Y1336536D01*
X1629070Y1336639D01*
X1628930Y1336736D01*
X1628785Y1336825D01*
X1628636Y1336906D01*
X1628482Y1336979D01*
X1628325Y1337044D01*
X1628164Y1337101D01*
X1628001Y1337149D01*
X1627836Y1337189D01*
X1627668Y1337220D01*
X1627500Y1337242D01*
X1627330Y1337256D01*
X1627160Y1337260D01*
D02*
G37*
%LPD*%
G36*
X1627382Y1293754D02*
X1627604Y1293737D01*
X1627825Y1293708D01*
X1628044Y1293667D01*
X1628260Y1293615D01*
X1628473Y1293552D01*
X1628683Y1293478D01*
X1628889Y1293393D01*
X1629090Y1293297D01*
X1629285Y1293191D01*
X1629475Y1293074D01*
X1629658Y1292948D01*
X1629835Y1292813D01*
X1630004Y1292668D01*
X1630165Y1292515D01*
X1630318Y1292354D01*
X1630463Y1292185D01*
X1630598Y1292008D01*
X1630724Y1291825D01*
X1630841Y1291635D01*
X1630947Y1291440D01*
X1631043Y1291239D01*
X1631128Y1291033D01*
X1631202Y1290823D01*
X1631265Y1290610D01*
X1631317Y1290394D01*
X1631358Y1290175D01*
X1631387Y1289954D01*
X1631404Y1289732D01*
X1631410Y1289510D01*
X1631404Y1289288D01*
X1631387Y1289066D01*
X1631358Y1288845D01*
X1631317Y1288626D01*
X1631265Y1288410D01*
X1631202Y1288197D01*
X1631128Y1287987D01*
X1631043Y1287781D01*
X1630947Y1287581D01*
X1630841Y1287385D01*
X1630724Y1287195D01*
X1630598Y1287012D01*
X1630463Y1286835D01*
X1630318Y1286666D01*
X1630165Y1286505D01*
X1630004Y1286352D01*
X1629835Y1286207D01*
X1629658Y1286072D01*
X1629475Y1285946D01*
X1629285Y1285829D01*
X1629090Y1285723D01*
X1628889Y1285627D01*
X1628683Y1285542D01*
X1628473Y1285468D01*
X1628260Y1285405D01*
X1628044Y1285353D01*
X1627825Y1285312D01*
X1627604Y1285283D01*
X1627382Y1285266D01*
X1627160Y1285260D01*
X1625160D01*
X1624938Y1285266D01*
X1624716Y1285283D01*
X1624495Y1285312D01*
X1624276Y1285353D01*
X1624060Y1285405D01*
X1623847Y1285468D01*
X1623637Y1285542D01*
X1623431Y1285627D01*
X1623231Y1285723D01*
X1623035Y1285829D01*
X1622845Y1285946D01*
X1622662Y1286072D01*
X1622485Y1286207D01*
X1622316Y1286352D01*
X1622155Y1286505D01*
X1622002Y1286666D01*
X1621857Y1286835D01*
X1621722Y1287012D01*
X1621596Y1287195D01*
X1621479Y1287385D01*
X1621373Y1287581D01*
X1621277Y1287781D01*
X1621192Y1287987D01*
X1621118Y1288197D01*
X1621055Y1288410D01*
X1621003Y1288626D01*
X1620962Y1288845D01*
X1620933Y1289066D01*
X1620916Y1289288D01*
X1620910Y1289510D01*
X1620916Y1289732D01*
X1620933Y1289954D01*
X1620962Y1290175D01*
X1621003Y1290394D01*
X1621055Y1290610D01*
X1621118Y1290823D01*
X1621192Y1291033D01*
X1621277Y1291239D01*
X1621373Y1291440D01*
X1621479Y1291635D01*
X1621596Y1291825D01*
X1621722Y1292008D01*
X1621857Y1292185D01*
X1622002Y1292354D01*
X1622155Y1292515D01*
X1622316Y1292668D01*
X1622485Y1292813D01*
X1622662Y1292948D01*
X1622845Y1293074D01*
X1623035Y1293191D01*
X1623231Y1293297D01*
X1623431Y1293393D01*
X1623637Y1293478D01*
X1623847Y1293552D01*
X1624060Y1293615D01*
X1624276Y1293667D01*
X1624495Y1293708D01*
X1624716Y1293737D01*
X1624938Y1293754D01*
X1625160Y1293760D01*
X1627160D01*
X1627382Y1293754D01*
D02*
G37*
%LPC*%
G36*
X1627160Y1292760D02*
X1625160D01*
X1624990Y1292755D01*
X1624820Y1292742D01*
X1624652Y1292720D01*
X1624484Y1292689D01*
X1624319Y1292649D01*
X1624156Y1292601D01*
X1623995Y1292544D01*
X1623838Y1292479D01*
X1623685Y1292406D01*
X1623535Y1292325D01*
X1623390Y1292236D01*
X1623250Y1292139D01*
X1623115Y1292036D01*
X1622985Y1291925D01*
X1622862Y1291808D01*
X1622745Y1291685D01*
X1622634Y1291555D01*
X1622531Y1291420D01*
X1622434Y1291280D01*
X1622345Y1291135D01*
X1622264Y1290986D01*
X1622191Y1290832D01*
X1622126Y1290675D01*
X1622069Y1290514D01*
X1622021Y1290351D01*
X1621981Y1290186D01*
X1621950Y1290018D01*
X1621928Y1289850D01*
X1621915Y1289680D01*
X1621910Y1289510D01*
X1621915Y1289340D01*
X1621928Y1289170D01*
X1621950Y1289002D01*
X1621981Y1288834D01*
X1622021Y1288669D01*
X1622069Y1288506D01*
X1622126Y1288345D01*
X1622191Y1288188D01*
X1622264Y1288035D01*
X1622345Y1287885D01*
X1622434Y1287740D01*
X1622531Y1287600D01*
X1622634Y1287465D01*
X1622745Y1287335D01*
X1622862Y1287212D01*
X1622985Y1287095D01*
X1623115Y1286984D01*
X1623250Y1286881D01*
X1623390Y1286784D01*
X1623535Y1286695D01*
X1623685Y1286614D01*
X1623838Y1286541D01*
X1623995Y1286476D01*
X1624156Y1286419D01*
X1624319Y1286371D01*
X1624484Y1286331D01*
X1624652Y1286300D01*
X1624820Y1286278D01*
X1624990Y1286264D01*
X1625160Y1286260D01*
X1627160D01*
X1627330Y1286264D01*
X1627500Y1286278D01*
X1627668Y1286300D01*
X1627836Y1286331D01*
X1628001Y1286371D01*
X1628164Y1286419D01*
X1628325Y1286476D01*
X1628482Y1286541D01*
X1628636Y1286614D01*
X1628785Y1286695D01*
X1628930Y1286784D01*
X1629070Y1286881D01*
X1629205Y1286984D01*
X1629335Y1287095D01*
X1629458Y1287212D01*
X1629575Y1287335D01*
X1629686Y1287465D01*
X1629789Y1287600D01*
X1629886Y1287740D01*
X1629975Y1287885D01*
X1630056Y1288035D01*
X1630129Y1288188D01*
X1630194Y1288345D01*
X1630251Y1288506D01*
X1630299Y1288669D01*
X1630339Y1288834D01*
X1630370Y1289002D01*
X1630392Y1289170D01*
X1630406Y1289340D01*
X1630410Y1289510D01*
X1630406Y1289680D01*
X1630392Y1289850D01*
X1630370Y1290018D01*
X1630339Y1290186D01*
X1630299Y1290351D01*
X1630251Y1290514D01*
X1630194Y1290675D01*
X1630129Y1290832D01*
X1630056Y1290986D01*
X1629975Y1291135D01*
X1629886Y1291280D01*
X1629789Y1291420D01*
X1629686Y1291555D01*
X1629575Y1291685D01*
X1629458Y1291808D01*
X1629335Y1291925D01*
X1629205Y1292036D01*
X1629070Y1292139D01*
X1628930Y1292236D01*
X1628785Y1292325D01*
X1628636Y1292406D01*
X1628482Y1292479D01*
X1628325Y1292544D01*
X1628164Y1292601D01*
X1628001Y1292649D01*
X1627836Y1292689D01*
X1627668Y1292720D01*
X1627500Y1292742D01*
X1627330Y1292755D01*
X1627160Y1292760D01*
D02*
G37*
%LPD*%
G36*
X1319986Y1360051D02*
Y1332230D01*
X1317117D01*
Y1299210D01*
X1329563D01*
Y1299210D01*
X1329817D01*
Y1299210D01*
X1341247D01*
X1342263Y1299210D01*
X1343533Y1299210D01*
X1353947D01*
X1354963Y1299210D01*
X1356233Y1299210D01*
X1366647D01*
X1367663Y1299210D01*
X1368933Y1299210D01*
X1380363D01*
Y1332230D01*
X1377495D01*
Y1338461D01*
X1381879Y1342845D01*
X1390037D01*
X1390505Y1341717D01*
X1391930Y1339860D01*
X1393787Y1338435D01*
X1395949Y1337539D01*
X1398270Y1337233D01*
X1400591Y1337539D01*
X1402753Y1338435D01*
X1404610Y1339860D01*
X1406035Y1341717D01*
X1406931Y1343879D01*
X1407237Y1346200D01*
X1406931Y1348521D01*
X1406035Y1350683D01*
X1404610Y1352540D01*
X1402753Y1353965D01*
X1400591Y1354861D01*
X1398270Y1355167D01*
X1395949Y1354861D01*
X1393787Y1353965D01*
X1391930Y1352540D01*
X1390505Y1350683D01*
X1390037Y1349554D01*
X1380490D01*
X1379206Y1349299D01*
X1378118Y1348572D01*
X1371768Y1342222D01*
X1371041Y1341134D01*
X1370786Y1339850D01*
Y1333128D01*
X1369888Y1332230D01*
X1367917Y1332230D01*
X1366647Y1332230D01*
X1356233D01*
X1355217Y1332230D01*
X1353947Y1332230D01*
X1343533D01*
X1342517Y1332230D01*
X1341247Y1332230D01*
X1339395D01*
Y1354971D01*
X1343779Y1359355D01*
X1422280D01*
X1430475Y1351160D01*
Y1245415D01*
X1339850D01*
X1338566Y1245159D01*
X1337478Y1244432D01*
X1323548Y1230502D01*
X1322821Y1229414D01*
X1322566Y1228130D01*
Y1209868D01*
X1321392Y1209382D01*
X1313012Y1217762D01*
X1311924Y1218489D01*
X1310640Y1218745D01*
X1279009D01*
X1260655Y1237100D01*
Y1346080D01*
X1279009Y1364435D01*
X1315600D01*
X1319986Y1360051D01*
D02*
G37*
%LPC*%
G36*
X1287780Y1309279D02*
Y1301750D01*
X1295309D01*
X1295171Y1302801D01*
X1294275Y1304963D01*
X1292850Y1306820D01*
X1290993Y1308245D01*
X1288831Y1309141D01*
X1287780Y1309279D01*
D02*
G37*
G36*
X1285240D02*
X1284189Y1309141D01*
X1282027Y1308245D01*
X1280170Y1306820D01*
X1278745Y1304963D01*
X1277849Y1302801D01*
X1277710Y1301750D01*
X1285240D01*
Y1309279D01*
D02*
G37*
G36*
X1295309Y1299210D02*
X1287780D01*
Y1291680D01*
X1288831Y1291819D01*
X1290993Y1292715D01*
X1292850Y1294140D01*
X1294275Y1295997D01*
X1295171Y1298159D01*
X1295309Y1299210D01*
D02*
G37*
G36*
X1285240D02*
X1277710D01*
X1277849Y1298159D01*
X1278745Y1295997D01*
X1280170Y1294140D01*
X1282027Y1292715D01*
X1284189Y1291819D01*
X1285240Y1291680D01*
Y1299210D01*
D02*
G37*
G36*
X1367917Y1291590D02*
X1366647Y1291590D01*
X1356233D01*
X1355217Y1291590D01*
X1353947Y1291590D01*
X1350010D01*
Y1275080D01*
Y1258570D01*
X1353947D01*
X1354963Y1258570D01*
X1356233Y1258570D01*
X1366647D01*
X1367663Y1258570D01*
X1368933Y1258570D01*
X1380363D01*
Y1291590D01*
X1368933D01*
X1367917Y1291590D01*
D02*
G37*
G36*
X1342517D02*
X1341247Y1291590D01*
X1337310D01*
Y1275080D01*
Y1258570D01*
X1341247D01*
X1342263Y1258570D01*
X1343533Y1258570D01*
X1347470D01*
Y1275080D01*
Y1291590D01*
X1343533D01*
X1342517Y1291590D01*
D02*
G37*
G36*
X1403350Y1274989D02*
Y1267460D01*
X1410880D01*
X1410741Y1268511D01*
X1409845Y1270673D01*
X1408420Y1272530D01*
X1406563Y1273955D01*
X1404401Y1274851D01*
X1403350Y1274989D01*
D02*
G37*
G36*
X1400810D02*
X1399759Y1274851D01*
X1397597Y1273955D01*
X1395740Y1272530D01*
X1394315Y1270673D01*
X1393419Y1268511D01*
X1393280Y1267460D01*
X1400810D01*
Y1274989D01*
D02*
G37*
G36*
X1329817Y1291590D02*
X1328547Y1291590D01*
X1317117D01*
Y1258570D01*
X1319986D01*
Y1254880D01*
X1315600Y1250495D01*
X1311253D01*
X1310785Y1251623D01*
X1309360Y1253480D01*
X1307503Y1254905D01*
X1305341Y1255801D01*
X1303020Y1256107D01*
X1300699Y1255801D01*
X1298537Y1254905D01*
X1296680Y1253480D01*
X1295255Y1251623D01*
X1294359Y1249461D01*
X1294053Y1247140D01*
X1294359Y1244819D01*
X1295255Y1242657D01*
X1296680Y1240800D01*
X1298537Y1239375D01*
X1300699Y1238479D01*
X1303020Y1238173D01*
X1305341Y1238479D01*
X1307503Y1239375D01*
X1309360Y1240800D01*
X1310785Y1242657D01*
X1311253Y1243785D01*
X1316990D01*
X1318274Y1244041D01*
X1319362Y1244768D01*
X1325712Y1251118D01*
X1326439Y1252206D01*
X1326694Y1253490D01*
Y1257672D01*
X1327592Y1258570D01*
X1329563Y1258570D01*
X1330833Y1258570D01*
X1334770D01*
Y1275080D01*
Y1291590D01*
X1330833D01*
X1329817Y1291590D01*
D02*
G37*
G36*
X1410880Y1264920D02*
X1403350D01*
Y1257391D01*
X1404401Y1257529D01*
X1406563Y1258425D01*
X1408420Y1259850D01*
X1409845Y1261707D01*
X1410741Y1263869D01*
X1410880Y1264920D01*
D02*
G37*
G36*
X1400810D02*
X1393280D01*
X1393419Y1263869D01*
X1394315Y1261707D01*
X1395740Y1259850D01*
X1397597Y1258425D01*
X1399759Y1257529D01*
X1400810Y1257391D01*
Y1264920D01*
D02*
G37*
%LPD*%
G36*
X1459085Y1177887D02*
X1460510Y1176030D01*
X1462367Y1174605D01*
X1464529Y1173709D01*
X1466850Y1173403D01*
X1469171Y1173709D01*
X1470300Y1174176D01*
X1477440Y1167036D01*
X1476774Y1165906D01*
X1474689Y1165631D01*
X1472527Y1164735D01*
X1470670Y1163310D01*
X1469245Y1161453D01*
X1468349Y1159291D01*
X1468043Y1156970D01*
X1468349Y1154649D01*
X1469245Y1152487D01*
X1470670Y1150630D01*
X1472527Y1149205D01*
X1473656Y1148737D01*
Y1131570D01*
X1473911Y1130286D01*
X1474638Y1129198D01*
X1481954Y1121882D01*
X1481661Y1120387D01*
X1481417Y1120285D01*
X1479560Y1118860D01*
X1478135Y1117003D01*
X1477239Y1114841D01*
X1476933Y1112520D01*
X1477239Y1110199D01*
X1477660Y1109183D01*
X1476583Y1108464D01*
X1465125Y1119922D01*
Y1127147D01*
X1466253Y1127615D01*
X1468110Y1129040D01*
X1469535Y1130897D01*
X1470431Y1133059D01*
X1470737Y1135380D01*
X1470431Y1137701D01*
X1469535Y1139863D01*
X1468110Y1141720D01*
X1466253Y1143145D01*
X1464091Y1144041D01*
X1461770Y1144347D01*
X1459449Y1144041D01*
X1457287Y1143145D01*
X1455430Y1141720D01*
X1454005Y1139863D01*
X1453109Y1137701D01*
X1452803Y1135380D01*
X1453109Y1133059D01*
X1453204Y1132828D01*
X1450891Y1130515D01*
X1419615D01*
X1419532Y1131785D01*
X1419641Y1131799D01*
X1421803Y1132695D01*
X1423660Y1134120D01*
X1425085Y1135977D01*
X1425981Y1138139D01*
X1426120Y1139190D01*
X1408521D01*
X1408659Y1138139D01*
X1409555Y1135977D01*
X1410980Y1134120D01*
X1412837Y1132695D01*
X1414999Y1131799D01*
X1415108Y1131785D01*
X1415025Y1130515D01*
X1393729D01*
X1393134Y1130912D01*
X1391870Y1131163D01*
X1380137D01*
X1379651Y1132337D01*
X1405722Y1158408D01*
X1406449Y1159496D01*
X1406572Y1160112D01*
X1407833Y1160635D01*
X1409690Y1162060D01*
X1411115Y1163917D01*
X1412011Y1166079D01*
X1412317Y1168400D01*
X1412011Y1170721D01*
X1411115Y1172883D01*
X1409690Y1174740D01*
X1407833Y1176165D01*
X1405671Y1177061D01*
X1403350Y1177367D01*
X1401029Y1177061D01*
X1398867Y1176165D01*
X1397010Y1174740D01*
X1395585Y1172883D01*
X1394689Y1170721D01*
X1394383Y1168400D01*
X1394689Y1166079D01*
X1395585Y1163917D01*
X1397010Y1162060D01*
X1397873Y1161397D01*
X1397956Y1160130D01*
X1382409Y1144583D01*
X1381239Y1145209D01*
X1381304Y1145540D01*
Y1161437D01*
X1382433Y1161905D01*
X1384290Y1163330D01*
X1385715Y1165187D01*
X1386611Y1167349D01*
X1386917Y1169670D01*
X1386611Y1171991D01*
X1385715Y1174153D01*
X1384290Y1176010D01*
X1382433Y1177435D01*
X1381685Y1177746D01*
X1381937Y1179016D01*
X1458617D01*
X1459085Y1177887D01*
D02*
G37*
G36*
X1520645Y1054914D02*
Y958969D01*
X1507981Y946304D01*
X1438454D01*
Y1012581D01*
X1438199Y1013865D01*
X1437472Y1014953D01*
X1436593Y1015832D01*
X1435505Y1016559D01*
X1434221Y1016814D01*
X1405435D01*
Y1049422D01*
X1406608Y1049908D01*
X1445715Y1010800D01*
Y976963D01*
X1445270Y976620D01*
X1443845Y974763D01*
X1442949Y972601D01*
X1442643Y970280D01*
X1442949Y967959D01*
X1443845Y965797D01*
X1445270Y963940D01*
X1447127Y962515D01*
X1449289Y961619D01*
X1451610Y961313D01*
X1453931Y961619D01*
X1456093Y962515D01*
X1457950Y963940D01*
X1459375Y965797D01*
X1460271Y967959D01*
X1460577Y970280D01*
X1460271Y972601D01*
X1459375Y974763D01*
X1457950Y976620D01*
X1456093Y978045D01*
X1453931Y978941D01*
X1452424Y979139D01*
Y998043D01*
X1453694Y998295D01*
X1454005Y997547D01*
X1455430Y995690D01*
X1457287Y994265D01*
X1459449Y993369D01*
X1461770Y993063D01*
X1464091Y993369D01*
X1466253Y994265D01*
X1468110Y995690D01*
X1469535Y997547D01*
X1470431Y999709D01*
X1470737Y1002030D01*
X1470431Y1004351D01*
X1469535Y1006513D01*
X1468110Y1008370D01*
X1466253Y1009795D01*
X1464091Y1010691D01*
X1462585Y1010890D01*
Y1016000D01*
X1462329Y1017284D01*
X1461602Y1018372D01*
X1427793Y1052181D01*
X1428418Y1053352D01*
X1428750Y1053286D01*
X1437520D01*
X1458656Y1032150D01*
X1458189Y1031021D01*
X1457883Y1028700D01*
X1458189Y1026379D01*
X1459085Y1024217D01*
X1460510Y1022360D01*
X1462367Y1020935D01*
X1464529Y1020039D01*
X1466850Y1019733D01*
X1469171Y1020039D01*
X1471333Y1020935D01*
X1473190Y1022360D01*
X1474615Y1024217D01*
X1475511Y1026379D01*
X1475817Y1028700D01*
X1475511Y1031021D01*
X1474615Y1033183D01*
X1473190Y1035040D01*
X1471333Y1036465D01*
X1469171Y1037361D01*
X1466850Y1037667D01*
X1464529Y1037361D01*
X1463400Y1036894D01*
X1443159Y1057135D01*
X1443577Y1058513D01*
X1443699Y1058537D01*
X1461938Y1040298D01*
X1463026Y1039571D01*
X1464310Y1039315D01*
X1477467D01*
X1478305Y1038361D01*
X1478203Y1037590D01*
X1478509Y1035269D01*
X1479405Y1033107D01*
X1480830Y1031250D01*
X1482687Y1029825D01*
X1484849Y1028929D01*
X1487170Y1028623D01*
X1489491Y1028929D01*
X1491653Y1029825D01*
X1493510Y1031250D01*
X1494935Y1033107D01*
X1495831Y1035269D01*
X1496137Y1037590D01*
X1495831Y1039911D01*
X1494935Y1042073D01*
X1493510Y1043930D01*
X1493368Y1044040D01*
X1493871Y1045254D01*
X1494790Y1045133D01*
X1497111Y1045439D01*
X1499273Y1046335D01*
X1501130Y1047760D01*
X1502555Y1049617D01*
X1503451Y1051779D01*
X1503757Y1054100D01*
X1503451Y1056421D01*
X1502555Y1058583D01*
X1501130Y1060440D01*
X1499273Y1061865D01*
X1497111Y1062761D01*
X1494790Y1063067D01*
X1492469Y1062761D01*
X1490307Y1061865D01*
X1488450Y1060440D01*
X1487265Y1060824D01*
X1486714Y1061345D01*
Y1073150D01*
X1486459Y1074434D01*
X1485732Y1075522D01*
X1475572Y1085682D01*
X1474484Y1086409D01*
X1473200Y1086665D01*
X1463159D01*
X1459062Y1090762D01*
X1457974Y1091489D01*
X1456690Y1091745D01*
X1446649D01*
X1438022Y1100372D01*
X1438508Y1101545D01*
X1453537D01*
X1454005Y1100417D01*
X1455430Y1098560D01*
X1457287Y1097135D01*
X1459449Y1096239D01*
X1461770Y1095933D01*
X1464091Y1096239D01*
X1466253Y1097135D01*
X1468110Y1098560D01*
X1469535Y1100417D01*
X1470431Y1102579D01*
X1470540Y1103408D01*
X1471743Y1103816D01*
X1520645Y1054914D01*
D02*
G37*
%LPC*%
G36*
X1418590Y1149259D02*
Y1141730D01*
X1426120D01*
X1425981Y1142781D01*
X1425085Y1144943D01*
X1423660Y1146800D01*
X1421803Y1148225D01*
X1419641Y1149121D01*
X1418590Y1149259D01*
D02*
G37*
G36*
X1416050D02*
X1414999Y1149121D01*
X1412837Y1148225D01*
X1410980Y1146800D01*
X1409555Y1144943D01*
X1408659Y1142781D01*
X1408521Y1141730D01*
X1416050D01*
Y1149259D01*
D02*
G37*
G36*
X1510030Y1046389D02*
Y1038860D01*
X1517560D01*
X1517421Y1039911D01*
X1516525Y1042073D01*
X1515100Y1043930D01*
X1513243Y1045355D01*
X1511081Y1046251D01*
X1510030Y1046389D01*
D02*
G37*
G36*
X1507490D02*
X1506439Y1046251D01*
X1504277Y1045355D01*
X1502420Y1043930D01*
X1500995Y1042073D01*
X1500099Y1039911D01*
X1499960Y1038860D01*
X1507490D01*
Y1046389D01*
D02*
G37*
G36*
X1517560Y1036320D02*
X1510030D01*
Y1028791D01*
X1511081Y1028929D01*
X1513243Y1029825D01*
X1515100Y1031250D01*
X1516525Y1033107D01*
X1517421Y1035269D01*
X1517560Y1036320D01*
D02*
G37*
G36*
X1507490D02*
X1499960D01*
X1500099Y1035269D01*
X1500995Y1033107D01*
X1502420Y1031250D01*
X1504277Y1029825D01*
X1506439Y1028929D01*
X1507490Y1028791D01*
Y1036320D01*
D02*
G37*
%LPD*%
D16*
X1116330Y943610D02*
X1118870Y946150D01*
X1113790Y941070D02*
X1116330Y943610D01*
X1300480Y904240D02*
X1308460Y912220D01*
X1093470Y904240D02*
X1300480D01*
X1073150Y924560D02*
X1093470Y904240D01*
X1073150Y1033500D02*
X1084860Y1045210D01*
X1073150Y924560D02*
Y1033500D01*
X1118870Y946150D02*
Y979170D01*
X1135380Y995680D01*
X1096010Y925830D02*
Y943610D01*
X1109980Y957580D02*
Y1003300D01*
X1096010Y943610D02*
X1109980Y957580D01*
X1130300Y928370D02*
X1131570Y929640D01*
Y970280D01*
X1183640Y1022350D01*
X1206500Y1037590D02*
X1206500D01*
X1216660Y1047750D02*
Y1047750D01*
X1206500Y1037590D02*
X1216660Y1047750D01*
X1183640Y1022350D02*
Y1027430D01*
X1220470Y1064260D02*
Y1065530D01*
X1183640Y1027430D02*
X1220470Y1064260D01*
X1149350Y928370D02*
Y980440D01*
X1172210Y928370D02*
Y997587D01*
X1190623Y1016000D02*
X1223401D01*
X1172210Y997587D02*
X1190623Y1016000D01*
X1149350Y980440D02*
X1206500Y1037590D01*
X1188720Y1008380D02*
X1228090D01*
X1186180Y937260D02*
Y1005840D01*
X1188720Y1008380D01*
X1435100Y942950D02*
X1509370D01*
X1434440D02*
X1435100D01*
X1186180Y937260D02*
X1192530Y930910D01*
X1010906Y994424D02*
X1010920Y994410D01*
X928356Y994424D02*
X1010906D01*
X928343Y994437D02*
X928356Y994424D01*
X914400Y1019810D02*
X1010920D01*
X1009015Y1047115D02*
X1010920Y1045210D01*
X899795Y1047115D02*
X1009015D01*
X897890Y1049020D02*
X899795Y1047115D01*
X1184910Y1045210D02*
X1231210Y1091510D01*
X1154550Y1045210D02*
X1184910D01*
X1154550Y1044863D02*
Y1062990D01*
X1208000Y1088390D02*
X1219200Y1099590D01*
X1202690Y1088390D02*
X1208000D01*
X1253433Y1091510D02*
X1254123Y1092200D01*
X1231210Y1091510D02*
X1253433D01*
X1257653Y1107160D02*
X1271720D01*
X1250083Y1099590D02*
X1257653Y1107160D01*
X1200150Y1068070D02*
X1227630Y1095550D01*
X1251760D01*
X1254123Y1092200D02*
X1271680D01*
X1251760Y1095550D02*
X1258370Y1102160D01*
X1219200Y1099590D02*
X1250083D01*
X1154550Y1029970D02*
Y1044863D01*
X1119860Y1045210D02*
X1154202D01*
X1154550Y1044863D01*
Y1062990D02*
X1155820Y1064260D01*
X1191260Y1068070D02*
X1200150D01*
X1258370Y1102160D02*
X1271720D01*
X1242100Y1087160D02*
X1271720D01*
X1220470Y1065530D02*
X1242100Y1087160D01*
X1201420Y1103630D02*
X1248410D01*
X1256940Y1112160D01*
X1178560Y1080770D02*
X1201420Y1103630D01*
X1242290Y1107670D02*
X1251780Y1117160D01*
X1199110Y1107670D02*
X1242290D01*
X1188720Y1097280D02*
X1199110Y1107670D01*
X1251070Y1082160D02*
X1271720D01*
X1216660Y1047750D02*
X1251070Y1082160D01*
X1202690Y996950D02*
X1203960Y998220D01*
X1223643D02*
X1236750Y1011327D01*
X1203960Y998220D02*
X1223643D01*
X1240790Y1007110D02*
Y1042673D01*
X1220470Y986790D02*
X1240790Y1007110D01*
X1234440Y986790D02*
X1250950Y1003300D01*
X1234440Y976630D02*
Y986790D01*
X1250950Y1003300D02*
Y1047120D01*
X1224280Y1016879D02*
Y1043303D01*
X1223401Y1016000D02*
X1224280Y1016879D01*
Y1043303D02*
X1258137Y1077160D01*
X1230630Y1010920D02*
Y1043940D01*
X1258850Y1072160D02*
X1271720D01*
X1258137Y1077160D02*
X1271720D01*
X1230630Y1043940D02*
X1258850Y1072160D01*
X1228090Y1008380D02*
X1230630Y1010920D01*
X1236750Y1044347D02*
X1259563Y1067160D01*
X1236750Y1011327D02*
Y1044347D01*
X1254990Y986560D02*
X1256030Y985520D01*
X1240790Y1042673D02*
X1260277Y1062160D01*
X1259563Y1067160D02*
X1271720D01*
X1262020Y1052160D02*
X1271720D01*
X1254990Y1045130D02*
X1262020Y1052160D01*
X1260990Y1057160D02*
X1271720D01*
X1250950Y1047120D02*
X1260990Y1057160D01*
X1260277Y1062160D02*
X1271720D01*
X1254990Y986560D02*
Y1045130D01*
X1257300Y1235710D02*
X1277620Y1215390D01*
X1257300Y1347470D02*
X1277620Y1367790D01*
X1257300Y1235710D02*
Y1347470D01*
X1268730Y967740D02*
Y991870D01*
X1290920Y1014060D01*
X1596390Y791210D02*
Y820420D01*
X1560830Y855980D02*
X1596390Y820420D01*
X1471944Y856859D02*
Y857236D01*
Y856859D02*
X1472822Y855980D01*
X1560830D01*
X1407160Y922020D02*
X1471944Y857236D01*
X1570990Y791210D02*
Y794863D01*
X1567501Y798352D02*
X1570990Y794863D01*
X1567501Y798352D02*
Y798509D01*
X1527810Y838200D02*
X1567501Y798509D01*
X1465580Y838200D02*
X1527810D01*
X1544730Y792070D02*
X1545590Y791210D01*
X1544730Y792070D02*
Y800960D01*
X1449705Y823595D02*
X1522095D01*
X1544730Y800960D01*
X1380490Y892810D02*
X1449705Y823595D01*
X1377950Y892810D02*
X1380490D01*
X1501775Y809625D02*
X1520190Y791210D01*
X1434465Y809625D02*
X1501775D01*
X1210310Y1179830D02*
X1230630D01*
X1010920Y1172210D02*
X1026160D01*
X1010920Y1197610D02*
X1060450D01*
X1502410Y1377950D02*
X1504950Y1380490D01*
X1482090Y1377950D02*
X1502410D01*
X1450340Y1363980D02*
X1468120D01*
X1482090Y1377950D01*
X1355920Y1113350D02*
X1403350Y1160780D01*
Y1168400D01*
X1377950Y1145540D02*
Y1169670D01*
X1355920Y1032960D02*
Y1113350D01*
X1350920Y1114700D02*
X1374140Y1137920D01*
Y1141730D01*
X1350920Y1032960D02*
Y1114700D01*
X1374140Y1141730D02*
X1377950Y1145540D01*
X1212850Y1200150D02*
X1219200D01*
X1211580Y1201420D02*
X1212850Y1200150D01*
X1290920Y1146360D02*
Y1157131D01*
X1252450Y1158010D02*
X1290041D01*
X1290920Y1157131D01*
X1257300Y1162050D02*
X1294130D01*
X1219200Y1200150D02*
X1257300Y1162050D01*
X1230630Y1179830D02*
X1252450Y1158010D01*
X1215390Y1223010D02*
X1270000Y1168400D01*
X1299210D01*
X1300920Y1166690D01*
X1295920Y1146360D02*
Y1160260D01*
X1294130Y1162050D02*
X1295920Y1160260D01*
X1234440Y1240790D02*
X1305920Y1169310D01*
X1300920Y1146360D02*
Y1166690D01*
X1026160Y1172210D02*
X1117600Y1080770D01*
X1060450Y1197610D02*
X1097280Y1160780D01*
X1452280Y1127160D02*
X1460500Y1135380D01*
X1385120Y1127160D02*
X1452280D01*
X1518920Y1134110D02*
X1519853D01*
X1555750Y1098213D01*
Y1069340D02*
Y1098213D01*
X1477010Y1131570D02*
X1485900Y1122680D01*
Y1112520D02*
Y1122680D01*
X1461770Y1118533D02*
X1524000Y1056303D01*
X1461770Y1118533D02*
Y1135380D01*
X1524000Y957580D02*
Y1056303D01*
X1460500Y1135380D02*
X1461770D01*
X1432560Y1066800D02*
X1461770D01*
X1466850Y1061720D01*
X1520190Y1115060D02*
X1525270D01*
X1436760Y1104900D02*
X1461770D01*
X1424500Y1117160D02*
X1436760Y1104900D01*
X1406911Y1087350D02*
X1417723D01*
X1428113Y1076960D01*
X1397101Y1097160D02*
X1406911Y1087350D01*
X1404620Y1083310D02*
X1413510D01*
X1397814Y1102160D02*
X1408584Y1091390D01*
X1427316D02*
X1427628Y1091078D01*
X1408584Y1091390D02*
X1427316D01*
X1413510Y1083310D02*
X1414780Y1082040D01*
X1396674Y1091256D02*
X1404620Y1083310D01*
X1414780Y1082040D02*
X1417320D01*
X1385120Y1077160D02*
X1415217D01*
X1429617Y1062760D01*
X1417320Y1082040D02*
X1432560Y1066800D01*
X1444220Y1062760D02*
X1464310Y1042670D01*
X1429617Y1062760D02*
X1444220D01*
X1428113Y1076960D02*
X1445260D01*
X1385120Y1092160D02*
X1395795D01*
X1396674Y1091281D01*
Y1091256D02*
Y1091281D01*
X1412240Y1101090D02*
X1412379Y1101229D01*
X1385120Y1097160D02*
X1397101D01*
X1398528Y1107160D02*
X1404598Y1101090D01*
X1412240D01*
X1385120Y1102160D02*
X1397814D01*
X1385120Y1107160D02*
X1398528D01*
X1493520Y1055370D02*
X1494790Y1054100D01*
X1487170Y1055370D02*
X1493520D01*
X1483360Y1059180D02*
X1487170Y1055370D01*
X1483360Y1059180D02*
Y1073150D01*
X1461770Y1083310D02*
X1473200D01*
X1483360Y1073150D01*
X1456690Y1088390D02*
X1461770Y1083310D01*
X1421490Y1112160D02*
X1445260Y1088390D01*
X1456690D01*
X1385120Y1112160D02*
X1421490D01*
X1385120Y1117160D02*
X1424500D01*
X1399540Y995920D02*
X1402080Y993380D01*
X1403470Y963930D02*
Y991990D01*
X1477010Y1131570D02*
Y1156970D01*
X1357630Y886460D02*
X1434465Y809625D01*
X1357630Y886460D02*
Y895350D01*
X1395730Y908050D02*
X1465580Y838200D01*
X1407160Y922020D02*
Y923290D01*
X1310640Y933450D02*
Y957580D01*
Y914400D02*
Y933450D01*
X1310640Y933450D02*
X1326000D01*
X1310640Y933450D02*
X1310640Y933450D01*
Y957580D02*
X1326000D01*
X1310640Y957580D02*
X1310640Y957580D01*
X1376680Y982980D02*
Y1005840D01*
X1370330Y1012190D02*
X1376680Y1005840D01*
X1354050Y1012190D02*
X1370330D01*
X1343660Y1013460D02*
X1347067D01*
X1359767Y1000760D02*
X1361440D01*
X1347067Y1013460D02*
X1359767Y1000760D01*
X1345920Y1020320D02*
X1354050Y1012190D01*
X1345920Y1020320D02*
Y1032960D01*
X1340920Y1016200D02*
X1343660Y1013460D01*
X1335920Y1015487D02*
X1348740Y1002667D01*
X1340920Y1016200D02*
Y1032960D01*
X1335920Y1015487D02*
Y1032960D01*
X1348740Y984250D02*
Y1002667D01*
X1336040Y1000760D02*
Y1002682D01*
X1330920Y1007802D02*
X1336040Y1002682D01*
X1330920Y1007802D02*
Y1032960D01*
X1310640Y957580D02*
Y1032680D01*
X1308460Y912220D02*
X1310640Y914400D01*
X1308460Y912220D02*
X1372979D01*
X1403710Y942950D02*
X1434440D01*
X1372979Y912220D02*
X1403710Y942950D01*
X1509370D02*
X1524000Y957580D01*
X1252220Y981710D02*
X1256030Y985520D01*
X1428750Y1056640D02*
X1438910D01*
X1466850Y1028700D01*
X1418590Y1056640D02*
X1459230Y1016000D01*
X1416050Y1056640D02*
X1418590D01*
X1459230Y1003300D02*
X1459627Y1003697D01*
X1459230Y1008509D02*
Y1016000D01*
X1459627Y1003697D02*
Y1008112D01*
X1459230Y1008509D02*
X1459627Y1008112D01*
X1402080Y1013460D02*
Y1052830D01*
Y993380D02*
Y1013460D01*
Y993380D02*
X1403470Y991990D01*
X1385120Y1057160D02*
X1397750D01*
X1402080Y1052830D01*
X1449070Y971550D02*
Y1012190D01*
X1410970Y1061720D02*
X1416050Y1056640D01*
X1400450Y1067160D02*
X1405890Y1061720D01*
X1410970D01*
X1385120Y1062160D02*
X1399100D01*
X1449070Y1012190D01*
X1422400Y1062990D02*
X1428750Y1056640D01*
X1385120Y1067160D02*
X1400450D01*
X1407160Y1068070D02*
X1411605D01*
X1416685Y1062990D01*
X1422400D01*
X1385120Y1072160D02*
X1403070D01*
X1407160Y1068070D01*
X1482090Y1042670D02*
X1487170Y1037590D01*
X1464310Y1042670D02*
X1482090D01*
X1402080Y1013460D02*
X1434221D01*
X1435100Y1012581D01*
Y943610D02*
Y1012581D01*
X1434440Y942950D02*
X1435100Y943610D01*
X1229360Y938530D02*
Y939800D01*
Y937260D02*
Y938530D01*
X1291590Y937260D02*
X1300480Y946150D01*
X1291590Y925830D02*
Y937260D01*
X1270000Y927100D02*
Y932180D01*
X1278890Y957580D02*
Y985520D01*
X1295920Y1002550D01*
X1300480Y946150D02*
Y979170D01*
X1305920Y984610D02*
Y1032960D01*
X1300480Y979170D02*
X1305920Y984610D01*
X1291590Y953770D02*
Y984250D01*
X1270000Y932180D02*
X1291590Y953770D01*
X1300920Y993580D02*
Y1032960D01*
X1291590Y984250D02*
X1300920Y993580D01*
X1249680Y935990D02*
X1257300Y943610D01*
X1249680Y923290D02*
Y935990D01*
X1257300Y943610D02*
X1264920D01*
X1278890Y957580D01*
X1295920Y1002550D02*
Y1032960D01*
X1228090Y935990D02*
X1229360Y937260D01*
Y939800D02*
X1238250Y948690D01*
X1249680D01*
X1268730Y967740D01*
X1290920Y1014060D02*
Y1032960D01*
X1544320Y993140D02*
X1591310D01*
X1595120Y989330D01*
X1570990Y1013460D02*
X1591310Y993140D01*
X1117600Y1080770D02*
X1178560D01*
X1176020Y1097280D02*
X1188720D01*
X1165860Y1087120D02*
X1176020Y1097280D01*
X1256940Y1112160D02*
X1271720D01*
X1097280Y1115060D02*
Y1160780D01*
Y1115060D02*
X1125220Y1087120D01*
X1165860D01*
X1154310Y1102360D02*
X1179830D01*
X1184910Y1107440D01*
X1251780Y1117160D02*
X1271720D01*
X1305920Y1146360D02*
Y1169310D01*
X1626870Y965310D02*
Y976630D01*
X1615440Y988060D02*
X1626870Y976630D01*
X1616319Y1037470D02*
X1629410D01*
X1615440Y1036591D02*
X1616319Y1037470D01*
X1615440Y988060D02*
Y1036591D01*
X1595120Y946150D02*
Y989330D01*
X1570990Y1013460D02*
Y1137920D01*
X1501140Y1148080D02*
X1560830D01*
X1570990Y1137920D01*
X1305560Y1247140D02*
X1316990D01*
X1323340Y1253490D02*
Y1275080D01*
X1316990Y1247140D02*
X1323340Y1253490D01*
X1374140Y1339850D02*
X1380490Y1346200D01*
X1398270D01*
X1374140Y1315720D02*
Y1339850D01*
X1336040Y1315720D02*
Y1356360D01*
X1342390Y1362710D02*
X1423670D01*
X1336040Y1356360D02*
X1342390Y1362710D01*
X1433830Y1242939D02*
Y1352550D01*
X1423670Y1362710D02*
X1433830Y1352550D01*
X1316990Y1367790D02*
X1323340Y1361440D01*
Y1315720D02*
Y1361440D01*
X1277620Y1367790D02*
X1316990D01*
X1629410Y1037470D02*
X1659770D01*
X1670050Y1047750D01*
X1629410Y1037470D02*
Y1059790D01*
X1628750Y1060450D02*
X1629410Y1059790D01*
X1596390Y1228090D02*
X1596781D01*
X1597540Y1192530D02*
X1597660Y1192650D01*
Y1227211D01*
X1596781Y1228090D02*
X1597660Y1227211D01*
X1584960Y1239520D02*
X1596390Y1228090D01*
X1535430Y1239520D02*
X1584960D01*
X1515110Y1259840D02*
X1535430Y1239520D01*
X1463040Y1260719D02*
Y1261110D01*
Y1260719D02*
X1463919Y1259840D01*
X1515110D01*
X1602740Y1263650D02*
X1610360Y1271270D01*
X1541780Y1263650D02*
X1602740D01*
X1534160Y1271270D02*
X1541780Y1263650D01*
X1454150Y1270000D02*
X1463040Y1261110D01*
X1454150Y1270000D02*
Y1314450D01*
X1459230Y1319530D01*
X1478280D01*
X1604476Y1312639D02*
Y1312714D01*
Y1312639D02*
X1605355Y1311760D01*
X1597660Y1319530D02*
X1604476Y1312714D01*
X1605355Y1311760D02*
X1629410D01*
X1595993Y1298813D02*
X1602440Y1305260D01*
X1629410D01*
X1589643Y1298813D02*
X1595993D01*
X1587500Y1296670D02*
X1589643Y1298813D01*
X1586230Y1319530D02*
X1597660D01*
X1616260Y1298760D02*
X1629410D01*
X1610360Y1292860D02*
X1616260Y1298760D01*
X1610360Y1271270D02*
Y1292860D01*
X1534160Y1271270D02*
Y1314450D01*
X1527810Y1320800D02*
X1534160Y1314450D01*
X1507490Y1320800D02*
X1527810D01*
X1506220Y1319530D02*
X1507490Y1320800D01*
X1629260Y1324610D02*
X1629410Y1324760D01*
X1606550Y1327150D02*
X1609090Y1324610D01*
X1629260D01*
X1598930Y1343660D02*
X1606550Y1336040D01*
Y1327150D02*
Y1336040D01*
X1499870Y1343660D02*
X1598930D01*
X1493520Y1337310D02*
X1499870Y1343660D01*
X1493520Y1295400D02*
Y1337310D01*
Y1295400D02*
X1494790Y1294130D01*
X1506220D01*
X1598419Y1132840D02*
X1606550D01*
X1597540Y1133719D02*
X1598419Y1132840D01*
X1597540Y1133719D02*
Y1155700D01*
X1447680Y1203960D02*
X1499870D01*
X1310640Y1032680D02*
X1310920Y1032960D01*
X1356360Y1192530D02*
X1446801D01*
X1447680Y1193409D02*
Y1203960D01*
X1446801Y1192530D02*
X1447680Y1193409D01*
X1410790Y1196570D02*
X1418180Y1203960D01*
X1354687Y1196570D02*
X1410790D01*
X1336040Y1177923D02*
X1354687Y1196570D01*
X1336040Y1146480D02*
Y1177923D01*
X1340920Y1177090D02*
X1356360Y1192530D01*
X1340920Y1146360D02*
Y1177090D01*
X1360170Y1182370D02*
X1466850D01*
X1350920Y1146360D02*
Y1173120D01*
X1360170Y1182370D01*
X1602740Y1014730D02*
Y1057910D01*
X1619250Y1074420D02*
Y1115885D01*
X1602740Y1057910D02*
X1619250Y1074420D01*
X1315920Y1008580D02*
Y1032960D01*
X1315720Y1008380D02*
X1315920Y1008580D01*
X1385120Y1014280D02*
Y1052160D01*
X1597540Y1155700D02*
X1621790D01*
X1629410Y1116545D02*
Y1148080D01*
X1621790Y1155700D02*
X1629410Y1148080D01*
X1597540Y1155700D02*
Y1192530D01*
X1662430Y1130300D02*
X1663700Y1131570D01*
X1335920Y1146360D02*
X1336040Y1146480D01*
X1418180Y1203960D02*
X1432680D01*
X1271680Y1092200D02*
X1271720Y1092160D01*
X1628750Y1060450D02*
X1653540D01*
X1662430Y1069340D02*
Y1130300D01*
X1653540Y1060450D02*
X1662430Y1069340D01*
X1662540Y1148410D02*
Y1189990D01*
X1662430Y1148300D02*
X1662540Y1148410D01*
X1628750Y1060450D02*
Y1088835D01*
X1625710Y946150D02*
X1626870Y947310D01*
X1595120Y946150D02*
X1625710D01*
X1330920Y1184870D02*
X1357630Y1211580D01*
X1404620D01*
X1330920Y1146360D02*
Y1184870D01*
X1325920Y1146360D02*
Y1228130D01*
X1339850Y1242060D02*
X1432951D01*
X1325920Y1228130D02*
X1339850Y1242060D01*
X1432951D02*
X1433830Y1242939D01*
X1466850Y1182370D02*
X1501140Y1148080D01*
X1320920Y1146360D02*
Y1205110D01*
X1310640Y1215390D02*
X1320920Y1205110D01*
X1277620Y1215390D02*
X1310640D01*
X1246620Y1122160D02*
X1271720D01*
X1242060Y1117600D02*
X1246620Y1122160D01*
X1210310Y1117600D02*
X1242060D01*
X1271120Y1127760D02*
X1271720Y1127160D01*
X1244600Y1127760D02*
X1271120D01*
X1210310Y1132200D02*
X1240160D01*
X1244600Y1127760D01*
X1188720Y1117600D02*
X1210310D01*
X1184910Y1113790D02*
X1188720Y1117600D01*
X1184910Y1107440D02*
Y1113790D01*
X1209670Y1132840D02*
X1210310Y1132200D01*
X1183640Y1132840D02*
X1209670D01*
X1153040Y1139190D02*
X1177290D01*
X1183640Y1132840D01*
X1628750Y1115885D02*
X1629410Y1116545D01*
X1609750Y1115885D02*
Y1129640D01*
X1606550Y1132840D02*
X1609750Y1129640D01*
D20*
X1170820Y1064260D02*
D03*
X1155820D02*
D03*
X1169550Y1029970D02*
D03*
X1154550D02*
D03*
X1154310Y1102360D02*
D03*
X1139310D02*
D03*
X1153040Y1139190D02*
D03*
X1138040D02*
D03*
X1597540Y1192530D02*
D03*
X1582540D02*
D03*
X1432680Y1203960D02*
D03*
X1447680D02*
D03*
X1403470Y963930D02*
D03*
X1418470D02*
D03*
X1326000Y957580D02*
D03*
X1341000D02*
D03*
X1326000Y933450D02*
D03*
X1341000D02*
D03*
X1403590Y991870D02*
D03*
X1418590D02*
D03*
D21*
X1084860Y1045210D02*
D03*
X1119860D02*
D03*
D22*
X1656160Y1343627D02*
D03*
Y1279893D02*
D03*
D23*
Y1300260D02*
D03*
Y1323260D02*
D03*
D24*
X1629410Y1298760D02*
D03*
Y1305260D02*
D03*
Y1324760D02*
D03*
Y1318260D02*
D03*
Y1311760D02*
D03*
D25*
X1290920Y1146360D02*
D03*
X1295920D02*
D03*
X1300920D02*
D03*
X1305920D02*
D03*
X1310920D02*
D03*
X1315920D02*
D03*
X1320920D02*
D03*
X1325920D02*
D03*
X1330920D02*
D03*
X1335920D02*
D03*
X1340920D02*
D03*
X1345920D02*
D03*
X1350920D02*
D03*
X1355920D02*
D03*
X1360920D02*
D03*
X1365920D02*
D03*
Y1032960D02*
D03*
X1360920D02*
D03*
X1355920D02*
D03*
X1350920D02*
D03*
X1345920D02*
D03*
X1340920D02*
D03*
X1335920D02*
D03*
X1330920D02*
D03*
X1325920D02*
D03*
X1320920D02*
D03*
X1315920D02*
D03*
X1310920D02*
D03*
X1305920D02*
D03*
X1300920D02*
D03*
X1295920D02*
D03*
X1290920D02*
D03*
D26*
X1385120Y1127160D02*
D03*
Y1122160D02*
D03*
Y1117160D02*
D03*
Y1112160D02*
D03*
Y1107160D02*
D03*
Y1102160D02*
D03*
Y1097160D02*
D03*
Y1092160D02*
D03*
Y1087160D02*
D03*
Y1082160D02*
D03*
Y1077160D02*
D03*
Y1072160D02*
D03*
Y1067160D02*
D03*
Y1062160D02*
D03*
Y1057160D02*
D03*
Y1052160D02*
D03*
X1271720D02*
D03*
Y1057160D02*
D03*
Y1062160D02*
D03*
Y1067160D02*
D03*
Y1072160D02*
D03*
Y1077160D02*
D03*
Y1082160D02*
D03*
Y1087160D02*
D03*
Y1092160D02*
D03*
Y1097160D02*
D03*
Y1102160D02*
D03*
Y1107160D02*
D03*
Y1112160D02*
D03*
Y1117160D02*
D03*
Y1122160D02*
D03*
Y1127160D02*
D03*
D27*
X1210310Y1117600D02*
D03*
Y1132200D02*
D03*
D28*
X1323340Y1275080D02*
D03*
Y1315720D02*
D03*
X1336040Y1275080D02*
D03*
Y1315720D02*
D03*
X1348740Y1275080D02*
D03*
Y1315720D02*
D03*
X1361440Y1275080D02*
D03*
Y1315720D02*
D03*
X1374140Y1275080D02*
D03*
Y1315720D02*
D03*
D29*
X1626870Y947310D02*
D03*
Y965310D02*
D03*
X1662430Y1148300D02*
D03*
Y1130300D02*
D03*
D30*
X1644540Y1189990D02*
D03*
X1662540D02*
D03*
D31*
X1628750Y1115885D02*
D03*
X1619250D02*
D03*
X1609750D02*
D03*
Y1088835D02*
D03*
X1628750D02*
D03*
D32*
X1629410Y1037470D02*
D03*
Y1022470D02*
D03*
D51*
X1010920Y1197610D02*
D03*
X1506220Y1294130D02*
D03*
X1544320Y993140D02*
D03*
X1478280Y1319530D02*
D03*
D52*
X1010920Y1172210D02*
D03*
Y1146810D02*
D03*
Y1121410D02*
D03*
Y1096010D02*
D03*
Y1070610D02*
D03*
Y1045210D02*
D03*
Y1019810D02*
D03*
Y994410D02*
D03*
Y969010D02*
D03*
Y943610D02*
D03*
Y918210D02*
D03*
Y892810D02*
D03*
Y867410D02*
D03*
Y842010D02*
D03*
Y816610D02*
D03*
X1189990Y1353820D02*
D03*
X1504950Y1380490D02*
D03*
X1240790Y791210D02*
D03*
X1266190D02*
D03*
X1291590D02*
D03*
X1316990D02*
D03*
X1342390D02*
D03*
X1367790D02*
D03*
X1393190D02*
D03*
X1418590D02*
D03*
X1443990D02*
D03*
X1469390D02*
D03*
X1494790D02*
D03*
X1520190D02*
D03*
X1545590D02*
D03*
X1570990D02*
D03*
X1596390D02*
D03*
X1506220Y1319530D02*
D03*
X1544320Y967740D02*
D03*
X1478280Y1294130D02*
D03*
D53*
X1215390Y1353820D02*
D03*
X1530350Y1380490D02*
D03*
X1215390Y791210D02*
D03*
D54*
X1656160Y1353510D02*
D03*
Y1270010D02*
D03*
D55*
X1626160Y1334010D02*
D03*
Y1289510D02*
D03*
D56*
X1055370Y986790D02*
D03*
X1116330Y943610D02*
D03*
X1096010Y925830D02*
D03*
X1130300Y928370D02*
D03*
X1109980Y1003300D02*
D03*
X1135380Y995680D02*
D03*
X1149350Y928370D02*
D03*
X1172210D02*
D03*
X1195070Y929640D02*
D03*
X928343Y994437D02*
D03*
X914400Y1019810D02*
D03*
X897890Y1049020D02*
D03*
X1202690Y1088390D02*
D03*
X1191260Y1068070D02*
D03*
X1220470Y1065530D02*
D03*
X1202690Y996950D02*
D03*
X1220470Y986790D02*
D03*
X1234440Y976630D02*
D03*
X1316990Y872490D02*
D03*
X1268730Y1009650D02*
D03*
X1075690Y1102360D02*
D03*
X1323340Y981710D02*
D03*
X1493520Y1137920D02*
D03*
X1450340Y1363980D02*
D03*
X1403350Y1168400D02*
D03*
X1377950Y1169670D02*
D03*
X1234440Y1240790D02*
D03*
X1215390Y1223010D02*
D03*
X1212850Y1200150D02*
D03*
Y1177290D02*
D03*
X1178560Y1184910D02*
D03*
X1518920Y1134110D02*
D03*
X1555750Y1069340D02*
D03*
X1485900Y1112520D02*
D03*
X1461770Y1135380D02*
D03*
X1544320Y1045210D02*
D03*
X1466850Y1061720D02*
D03*
X1520190Y1115060D02*
D03*
X1461770Y1104900D02*
D03*
X1445260Y1076960D02*
D03*
X1427628Y1091078D02*
D03*
X1412379Y1101229D02*
D03*
X1494790Y1054100D02*
D03*
X1357630Y895350D02*
D03*
X1377950Y892810D02*
D03*
X1395730Y908050D02*
D03*
X1407160Y923290D02*
D03*
X1336040Y1000760D02*
D03*
X1376680Y982980D02*
D03*
X1361440Y1000760D02*
D03*
X1348740Y984250D02*
D03*
X1508760Y1037590D02*
D03*
X1592580Y1027430D02*
D03*
X1581150Y1370330D02*
D03*
X1402080Y1266190D02*
D03*
X1286510Y1300480D02*
D03*
X1210310Y948690D02*
D03*
X1626870Y1240790D02*
D03*
X1569720Y938530D02*
D03*
X1417320Y1140460D02*
D03*
X1504950Y1214120D02*
D03*
X1236980Y1306830D02*
D03*
X1239520Y1217930D02*
D03*
X1451610Y970280D02*
D03*
X1461770Y1002030D02*
D03*
X1466850Y1028700D02*
D03*
X1487170Y1037590D02*
D03*
X1291590Y925830D02*
D03*
X1270000Y927100D02*
D03*
X1249680Y923290D02*
D03*
X1229360Y938530D02*
D03*
X1254760Y986790D02*
D03*
X1303020Y1247140D02*
D03*
X1398270Y1346200D02*
D03*
X1477010Y1156970D02*
D03*
X1670050Y1047750D02*
D03*
X1587500Y1296670D02*
D03*
X1586230Y1319530D02*
D03*
X1404620Y1211580D02*
D03*
X1466850Y1182370D02*
D03*
M02*
