G04*
G04 #@! TF.GenerationSoftware,Altium Limited,Altium Designer,20.1.14 (287)*
G04*
G04 Layer_Color=128*
%FSLAX44Y44*%
%MOMM*%
G71*
G04*
G04 #@! TF.SameCoordinates,20106440-3F2D-40E8-AC6D-39A368FF7A92*
G04*
G04*
G04 #@! TF.FilePolarity,Positive*
G04*
G01*
G75*
%ADD57C,0.0508*%
D57*
X1090240Y1348740D02*
X1099240D01*
X1094740Y1344240D02*
Y1353240D01*
X1064840Y1348740D02*
X1073840D01*
X1069340Y1344240D02*
Y1353240D01*
X1006420Y969010D02*
X1015420D01*
X1010920Y964510D02*
Y973510D01*
X1006420Y994410D02*
X1015420D01*
X1010920Y989910D02*
Y998910D01*
X1006420Y1019810D02*
X1015420D01*
X1010920Y1015310D02*
Y1024310D01*
X1006420Y1045210D02*
X1015420D01*
X1010920Y1040710D02*
Y1049710D01*
X1006420Y1070610D02*
X1015420D01*
X1010920Y1066110D02*
Y1075110D01*
X1006420Y1096010D02*
X1015420D01*
X1010920Y1091510D02*
Y1100510D01*
X1006420Y1121410D02*
X1015420D01*
X1010920Y1116910D02*
Y1125910D01*
X1006420Y1146810D02*
X1015420D01*
X1010920Y1142310D02*
Y1151310D01*
X1006420Y1172210D02*
X1015420D01*
X1010920Y1167710D02*
Y1176710D01*
X1006420Y1197610D02*
X1015420D01*
X1010920Y1193110D02*
Y1202110D01*
X1525850Y1380490D02*
X1534850D01*
X1530350Y1375990D02*
Y1384990D01*
X1500450Y1380490D02*
X1509450D01*
X1504950Y1375990D02*
Y1384990D01*
X1210890Y791210D02*
X1219890D01*
X1215390Y786710D02*
Y795710D01*
X1236290Y791210D02*
X1245290D01*
X1240790Y786710D02*
Y795710D01*
X1261690Y791210D02*
X1270690D01*
X1266190Y786710D02*
Y795710D01*
X1287090Y791210D02*
X1296090D01*
X1291590Y786710D02*
Y795710D01*
X1312490Y791210D02*
X1321490D01*
X1316990Y786710D02*
Y795710D01*
X1337890Y791210D02*
X1346890D01*
X1342390Y786710D02*
Y795710D01*
X1363290Y791210D02*
X1372290D01*
X1367790Y786710D02*
Y795710D01*
X1388690Y791210D02*
X1397690D01*
X1393190Y786710D02*
Y795710D01*
X1414090Y791210D02*
X1423090D01*
X1418590Y786710D02*
Y795710D01*
X1439490Y791210D02*
X1448490D01*
X1443990Y786710D02*
Y795710D01*
X1464890Y791210D02*
X1473890D01*
X1469390Y786710D02*
Y795710D01*
X1490290Y791210D02*
X1499290D01*
X1494790Y786710D02*
Y795710D01*
X1515690Y791210D02*
X1524690D01*
X1520190Y786710D02*
Y795710D01*
X1541090Y791210D02*
X1550090D01*
X1545590Y786710D02*
Y795710D01*
X1566490Y791210D02*
X1575490D01*
X1570990Y786710D02*
Y795710D01*
X1591890Y791210D02*
X1600890D01*
X1596390Y786710D02*
Y795710D01*
X1650660Y1353510D02*
X1661660D01*
X1656160Y1348010D02*
Y1359010D01*
X1650660Y1270010D02*
X1661660D01*
X1656160Y1264510D02*
Y1275510D01*
X1622160Y1334010D02*
X1630160D01*
X1626160Y1330010D02*
Y1338010D01*
X1622160Y1289510D02*
X1630160D01*
X1626160Y1285510D02*
Y1293510D01*
X1501720Y1294130D02*
X1510720D01*
X1506220Y1289630D02*
Y1298630D01*
X1501720Y1319530D02*
X1510720D01*
X1506220Y1315030D02*
Y1324030D01*
X1539820Y993140D02*
X1548820D01*
X1544320Y988640D02*
Y997640D01*
X1539820Y967740D02*
X1548820D01*
X1544320Y963240D02*
Y972240D01*
X1473780Y1319530D02*
X1482780D01*
X1478280Y1315030D02*
Y1324030D01*
X1473780Y1294130D02*
X1482780D01*
X1478280Y1289630D02*
Y1298630D01*
X1313434Y872490D02*
X1320546D01*
X1316990Y868934D02*
Y876046D01*
X1265174Y1009650D02*
X1272286D01*
X1268730Y1006094D02*
Y1013206D01*
X1241044Y1078230D02*
X1248156D01*
X1244600Y1074674D02*
Y1081786D01*
X1073404Y1087120D02*
X1080516D01*
X1076960Y1083564D02*
Y1090676D01*
X1319784Y981710D02*
X1326896D01*
X1323340Y978154D02*
Y985266D01*
X1489964Y1137920D02*
X1497076D01*
X1493520Y1134364D02*
Y1141476D01*
X1446784Y1363980D02*
X1453896D01*
X1450340Y1360424D02*
Y1367536D01*
X1399794Y1168400D02*
X1406906D01*
X1403350Y1164844D02*
Y1171956D01*
X1374394Y1169670D02*
X1381506D01*
X1377950Y1166114D02*
Y1173226D01*
X1230884Y1240790D02*
X1237996D01*
X1234440Y1237234D02*
Y1244346D01*
X1211834Y1223010D02*
X1218946D01*
X1215390Y1219454D02*
Y1226566D01*
X1209294Y1200150D02*
X1216406D01*
X1212850Y1196594D02*
Y1203706D01*
X1209294Y1177290D02*
X1216406D01*
X1212850Y1173734D02*
Y1180846D01*
X1175004Y1184910D02*
X1182116D01*
X1178560Y1181354D02*
Y1188466D01*
X1515364Y1134110D02*
X1522476D01*
X1518920Y1130554D02*
Y1137666D01*
X1552194Y1069340D02*
X1559306D01*
X1555750Y1065784D02*
Y1072896D01*
X1482344Y1112520D02*
X1489456D01*
X1485900Y1108964D02*
Y1116076D01*
X1458214Y1135380D02*
X1465326D01*
X1461770Y1131824D02*
Y1138936D01*
X1540764Y1045210D02*
X1547876D01*
X1544320Y1041654D02*
Y1048766D01*
X1463294Y1061720D02*
X1470406D01*
X1466850Y1058164D02*
Y1065276D01*
X1516634Y1115060D02*
X1523746D01*
X1520190Y1111504D02*
Y1118616D01*
X1458214Y1104900D02*
X1465326D01*
X1461770Y1101344D02*
Y1108456D01*
X1441704Y1076960D02*
X1448816D01*
X1445260Y1073404D02*
Y1080516D01*
X1424072Y1091078D02*
X1431184D01*
X1427628Y1087522D02*
Y1094634D01*
X1408823Y1101229D02*
X1415935D01*
X1412379Y1097673D02*
Y1104785D01*
X1491234Y1054100D02*
X1498346D01*
X1494790Y1050544D02*
Y1057656D01*
X1354074Y895350D02*
X1361186D01*
X1357630Y891794D02*
Y898906D01*
X1374394Y892810D02*
X1381506D01*
X1377950Y889254D02*
Y896366D01*
X1392174Y908050D02*
X1399286D01*
X1395730Y904494D02*
Y911606D01*
X1403604Y923290D02*
X1410716D01*
X1407160Y919734D02*
Y926846D01*
X1332484Y1000760D02*
X1339596D01*
X1336040Y997204D02*
Y1004316D01*
X1373124Y982980D02*
X1380236D01*
X1376680Y979424D02*
Y986536D01*
X1357884Y1000760D02*
X1364996D01*
X1361440Y997204D02*
Y1004316D01*
X1345184Y984250D02*
X1352296D01*
X1348740Y980694D02*
Y987806D01*
X1505204Y1037590D02*
X1512316D01*
X1508760Y1034034D02*
Y1041146D01*
X1589024Y1027430D02*
X1596136D01*
X1592580Y1023874D02*
Y1030986D01*
X1577594Y1370330D02*
X1584706D01*
X1581150Y1366774D02*
Y1373886D01*
X1398524Y1266190D02*
X1405636D01*
X1402080Y1262634D02*
Y1269746D01*
X1282954Y1300480D02*
X1290066D01*
X1286510Y1296924D02*
Y1304036D01*
X1206754Y948690D02*
X1213866D01*
X1210310Y945134D02*
Y952246D01*
X1623314Y1240790D02*
X1630426D01*
X1626870Y1237234D02*
Y1244346D01*
X1566164Y938530D02*
X1573276D01*
X1569720Y934974D02*
Y942086D01*
X1413764Y1140460D02*
X1420876D01*
X1417320Y1136904D02*
Y1144016D01*
X1501394Y1214120D02*
X1508506D01*
X1504950Y1210564D02*
Y1217676D01*
X1233424Y1306830D02*
X1240536D01*
X1236980Y1303274D02*
Y1310386D01*
X1235964Y1217930D02*
X1243076D01*
X1239520Y1214374D02*
Y1221486D01*
X1448054Y970280D02*
X1455166D01*
X1451610Y966724D02*
Y973836D01*
X1458214Y1002030D02*
X1465326D01*
X1461770Y998474D02*
Y1005586D01*
X1463294Y1028700D02*
X1470406D01*
X1466850Y1025144D02*
Y1032256D01*
X1483614Y1037590D02*
X1490726D01*
X1487170Y1034034D02*
Y1041146D01*
X1288034Y925830D02*
X1295146D01*
X1291590Y922274D02*
Y929386D01*
X1266444Y927100D02*
X1273556D01*
X1270000Y923544D02*
Y930656D01*
X1246124Y923290D02*
X1253236D01*
X1249680Y919734D02*
Y926846D01*
X1225804Y938530D02*
X1232916D01*
X1229360Y934974D02*
Y942086D01*
X1251204Y986790D02*
X1258316D01*
X1254760Y983234D02*
Y990346D01*
X1213104Y986790D02*
X1220216D01*
X1216660Y983234D02*
Y990346D01*
X1188974Y990600D02*
X1196086D01*
X1192530Y987044D02*
Y994156D01*
X1167384Y999490D02*
X1174496D01*
X1170940Y995934D02*
Y1003046D01*
X1299464Y1247140D02*
X1306576D01*
X1303020Y1243584D02*
Y1250696D01*
X1394714Y1346200D02*
X1401826D01*
X1398270Y1342644D02*
Y1349756D01*
X1473454Y1156970D02*
X1480566D01*
X1477010Y1153414D02*
Y1160526D01*
X1666494Y1047750D02*
X1673606D01*
X1670050Y1044194D02*
Y1051306D01*
X1583944Y1296670D02*
X1591056D01*
X1587500Y1293114D02*
Y1300226D01*
X1582674Y1319530D02*
X1589786D01*
X1586230Y1315974D02*
Y1323086D01*
X1401064Y1211580D02*
X1408176D01*
X1404620Y1208024D02*
Y1215136D01*
X1463294Y1182370D02*
X1470406D01*
X1466850Y1178814D02*
Y1185926D01*
M02*
