G04*
G04 #@! TF.GenerationSoftware,Altium Limited,Altium Designer,20.1.14 (287)*
G04*
G04 Layer_Color=8388736*
%FSLAX44Y44*%
%MOMM*%
G71*
G04*
G04 #@! TF.SameCoordinates,20106440-3F2D-40E8-AC6D-39A368FF7A92*
G04*
G04*
G04 #@! TF.FilePolarity,Negative*
G04*
G01*
G75*
%ADD11C,0.2000*%
%ADD18C,0.3000*%
%ADD29R,0.5080X1.0033*%
%ADD33R,2.1032X1.3782*%
%ADD34R,2.1032X2.0032*%
%ADD35R,1.5532X0.6032*%
G04:AMPARAMS|DCode=36|XSize=1.6932mm|YSize=0.4832mm|CornerRadius=0.1716mm|HoleSize=0mm|Usage=FLASHONLY|Rotation=270.000|XOffset=0mm|YOffset=0mm|HoleType=Round|Shape=RoundedRectangle|*
%AMROUNDEDRECTD36*
21,1,1.6932,0.1400,0,0,270.0*
21,1,1.3500,0.4832,0,0,270.0*
1,1,0.3432,-0.0700,-0.6750*
1,1,0.3432,-0.0700,0.6750*
1,1,0.3432,0.0700,0.6750*
1,1,0.3432,0.0700,-0.6750*
%
%ADD36ROUNDEDRECTD36*%
G04:AMPARAMS|DCode=37|XSize=1.6932mm|YSize=0.4832mm|CornerRadius=0.1716mm|HoleSize=0mm|Usage=FLASHONLY|Rotation=180.000|XOffset=0mm|YOffset=0mm|HoleType=Round|Shape=RoundedRectangle|*
%AMROUNDEDRECTD37*
21,1,1.6932,0.1400,0,0,180.0*
21,1,1.3500,0.4832,0,0,180.0*
1,1,0.3432,-0.6750,0.0700*
1,1,0.3432,0.6750,0.0700*
1,1,0.3432,0.6750,-0.0700*
1,1,0.3432,-0.6750,-0.0700*
%
%ADD37ROUNDEDRECTD37*%
%ADD38R,1.6032X0.9532*%
%ADD39R,0.8382X2.8956*%
%ADD40R,1.6032X1.4032*%
%ADD41R,1.4032X1.6032*%
%ADD42R,1.7032X2.7032*%
%ADD43R,1.3032X1.6032*%
%ADD44R,1.6032X1.3032*%
%ADD45R,1.7032X1.7032*%
%ADD46C,1.7032*%
%ADD47R,1.7032X1.7032*%
G04:AMPARAMS|DCode=48|XSize=0.7032mm|YSize=1.3032mm|CornerRadius=0.2266mm|HoleSize=0mm|Usage=FLASHONLY|Rotation=90.000|XOffset=0mm|YOffset=0mm|HoleType=Round|Shape=RoundedRectangle|*
%AMROUNDEDRECTD48*
21,1,0.7032,0.8500,0,0,90.0*
21,1,0.2500,1.3032,0,0,90.0*
1,1,0.4532,0.4250,0.1250*
1,1,0.4532,0.4250,-0.1250*
1,1,0.4532,-0.4250,-0.1250*
1,1,0.4532,-0.4250,0.1250*
%
%ADD48ROUNDEDRECTD48*%
G04:AMPARAMS|DCode=49|XSize=0.9032mm|YSize=1.0032mm|CornerRadius=0.3641mm|HoleSize=0mm|Usage=FLASHONLY|Rotation=90.000|XOffset=0mm|YOffset=0mm|HoleType=Round|Shape=RoundedRectangle|*
%AMROUNDEDRECTD49*
21,1,0.9032,0.2750,0,0,90.0*
21,1,0.1750,1.0032,0,0,90.0*
1,1,0.7282,0.1375,0.0875*
1,1,0.7282,0.1375,-0.0875*
1,1,0.7282,-0.1375,-0.0875*
1,1,0.7282,-0.1375,0.0875*
%
%ADD49ROUNDEDRECTD49*%
%ADD50C,1.4732*%
D11*
X1665660Y1356010D02*
G03*
X1663160Y1358510I-2500J0D01*
G01*
X1649160D02*
G03*
X1646660Y1356010I0J-2500D01*
G01*
X1663160Y1265010D02*
G03*
X1665660Y1267510I0J2500D01*
G01*
X1646660D02*
G03*
X1649160Y1265010I2500J0D01*
G01*
X1620910Y1334010D02*
G03*
X1625160Y1329760I4250J0D01*
G01*
X1627160D02*
G03*
X1631410Y1334010I0J4250D01*
G01*
D02*
G03*
X1627160Y1338260I-4250J0D01*
G01*
X1625160D02*
G03*
X1620910Y1334010I0J-4250D01*
G01*
Y1289510D02*
G03*
X1625160Y1285260I4250J0D01*
G01*
X1627160D02*
G03*
X1631410Y1289510I0J4250D01*
G01*
D02*
G03*
X1627160Y1293760I-4250J0D01*
G01*
X1625160D02*
G03*
X1620910Y1289510I0J-4250D01*
G01*
X1646660Y1348510D02*
X1665660D01*
Y1356010D01*
X1649160Y1358510D02*
X1663160D01*
X1646660Y1348510D02*
Y1356010D01*
Y1275010D02*
X1665660D01*
Y1267510D02*
Y1275010D01*
X1649160Y1265010D02*
X1663160D01*
X1646660Y1267510D02*
Y1275010D01*
X1625160Y1329760D02*
X1627160D01*
X1625160Y1338260D02*
X1627160D01*
X1625160Y1285260D02*
X1627160D01*
X1625160Y1293760D02*
X1627160D01*
D18*
X1652660Y1358010D02*
G03*
X1648160Y1353510I0J-4500D01*
G01*
X1664160D02*
G03*
X1659660Y1358010I-4500J0D01*
G01*
Y1349010D02*
G03*
X1664160Y1353510I0J4500D01*
G01*
X1648160D02*
G03*
X1652660Y1349010I4500J0D01*
G01*
X1648160Y1270010D02*
G03*
X1652660Y1265510I4500J0D01*
G01*
X1659660D02*
G03*
X1664160Y1270010I0J4500D01*
G01*
D02*
G03*
X1659660Y1274510I-4500J0D01*
G01*
X1652660D02*
G03*
X1648160Y1270010I0J-4500D01*
G01*
X1652660Y1358010D02*
X1659660D01*
X1652660Y1349010D02*
X1659660D01*
X1652660Y1265510D02*
X1659660D01*
X1652660Y1274510D02*
X1659660D01*
D29*
X1628750Y1115885D02*
D03*
X1619250D02*
D03*
X1609750D02*
D03*
Y1088835D02*
D03*
X1628750D02*
D03*
D33*
X1656160Y1343627D02*
D03*
Y1279893D02*
D03*
D34*
Y1300260D02*
D03*
Y1323260D02*
D03*
D35*
X1629410Y1298760D02*
D03*
Y1305260D02*
D03*
Y1324760D02*
D03*
Y1318260D02*
D03*
Y1311760D02*
D03*
D36*
X1290920Y1146360D02*
D03*
X1295920D02*
D03*
X1300920D02*
D03*
X1305920D02*
D03*
X1310920D02*
D03*
X1315920D02*
D03*
X1320920D02*
D03*
X1325920D02*
D03*
X1330920D02*
D03*
X1335920D02*
D03*
X1340920D02*
D03*
X1345920D02*
D03*
X1350920D02*
D03*
X1355920D02*
D03*
X1360920D02*
D03*
X1365920D02*
D03*
Y1032960D02*
D03*
X1360920D02*
D03*
X1355920D02*
D03*
X1350920D02*
D03*
X1345920D02*
D03*
X1340920D02*
D03*
X1335920D02*
D03*
X1330920D02*
D03*
X1325920D02*
D03*
X1320920D02*
D03*
X1315920D02*
D03*
X1310920D02*
D03*
X1305920D02*
D03*
X1300920D02*
D03*
X1295920D02*
D03*
X1290920D02*
D03*
D37*
X1385120Y1127160D02*
D03*
Y1122160D02*
D03*
Y1117160D02*
D03*
Y1112160D02*
D03*
Y1107160D02*
D03*
Y1102160D02*
D03*
Y1097160D02*
D03*
Y1092160D02*
D03*
Y1087160D02*
D03*
Y1082160D02*
D03*
Y1077160D02*
D03*
Y1072160D02*
D03*
Y1067160D02*
D03*
Y1062160D02*
D03*
Y1057160D02*
D03*
Y1052160D02*
D03*
X1271720D02*
D03*
Y1057160D02*
D03*
Y1062160D02*
D03*
Y1067160D02*
D03*
Y1072160D02*
D03*
Y1077160D02*
D03*
Y1082160D02*
D03*
Y1087160D02*
D03*
Y1092160D02*
D03*
Y1097160D02*
D03*
Y1102160D02*
D03*
Y1107160D02*
D03*
Y1112160D02*
D03*
Y1117160D02*
D03*
Y1122160D02*
D03*
Y1127160D02*
D03*
D38*
X1210310Y1117600D02*
D03*
Y1132200D02*
D03*
D39*
X1323340Y1275080D02*
D03*
Y1315720D02*
D03*
X1336040Y1275080D02*
D03*
Y1315720D02*
D03*
X1348740Y1275080D02*
D03*
Y1315720D02*
D03*
X1361440Y1275080D02*
D03*
Y1315720D02*
D03*
X1374140Y1275080D02*
D03*
Y1315720D02*
D03*
D40*
X1626870Y947310D02*
D03*
Y965310D02*
D03*
X1662430Y1148300D02*
D03*
Y1130300D02*
D03*
D41*
X1644540Y1189990D02*
D03*
X1662540D02*
D03*
D42*
X1152880Y1047750D02*
D03*
X1117880D02*
D03*
D43*
X1154310Y1102360D02*
D03*
X1139310D02*
D03*
X1153040Y1139190D02*
D03*
X1138040D02*
D03*
X1597540Y1192530D02*
D03*
X1582540D02*
D03*
X1432680Y1203960D02*
D03*
X1447680D02*
D03*
X1403470Y963930D02*
D03*
X1418470D02*
D03*
X1326000Y957580D02*
D03*
X1341000D02*
D03*
X1326000Y933450D02*
D03*
X1341000D02*
D03*
X1205350Y1073150D02*
D03*
X1220350D02*
D03*
X1201540Y1033780D02*
D03*
X1216540D02*
D03*
X1403590Y991870D02*
D03*
X1418590D02*
D03*
D44*
X1629410Y1037470D02*
D03*
Y1022470D02*
D03*
D45*
X1094740Y1348740D02*
D03*
X1530350Y1380490D02*
D03*
X1215390Y791210D02*
D03*
D46*
X1069340Y1348740D02*
D03*
X1010920Y969010D02*
D03*
Y994410D02*
D03*
Y1019810D02*
D03*
Y1045210D02*
D03*
Y1070610D02*
D03*
Y1096010D02*
D03*
Y1121410D02*
D03*
Y1146810D02*
D03*
Y1172210D02*
D03*
X1504950Y1380490D02*
D03*
X1240790Y791210D02*
D03*
X1266190D02*
D03*
X1291590D02*
D03*
X1316990D02*
D03*
X1342390D02*
D03*
X1367790D02*
D03*
X1393190D02*
D03*
X1418590D02*
D03*
X1443990D02*
D03*
X1469390D02*
D03*
X1494790D02*
D03*
X1520190D02*
D03*
X1545590D02*
D03*
X1570990D02*
D03*
X1596390D02*
D03*
X1506220Y1319530D02*
D03*
X1544320Y967740D02*
D03*
X1478280Y1294130D02*
D03*
D47*
X1010920Y1197610D02*
D03*
X1506220Y1294130D02*
D03*
X1544320Y993140D02*
D03*
X1478280Y1319530D02*
D03*
D48*
X1656160Y1353510D02*
D03*
Y1270010D02*
D03*
D49*
X1626160Y1334010D02*
D03*
Y1289510D02*
D03*
D50*
X1316990Y872490D02*
D03*
X1268730Y1009650D02*
D03*
X1244600Y1078230D02*
D03*
X1076960Y1087120D02*
D03*
X1323340Y981710D02*
D03*
X1493520Y1137920D02*
D03*
X1450340Y1363980D02*
D03*
X1403350Y1168400D02*
D03*
X1377950Y1169670D02*
D03*
X1234440Y1240790D02*
D03*
X1215390Y1223010D02*
D03*
X1212850Y1200150D02*
D03*
Y1177290D02*
D03*
X1178560Y1184910D02*
D03*
X1518920Y1134110D02*
D03*
X1555750Y1069340D02*
D03*
X1485900Y1112520D02*
D03*
X1461770Y1135380D02*
D03*
X1544320Y1045210D02*
D03*
X1466850Y1061720D02*
D03*
X1520190Y1115060D02*
D03*
X1461770Y1104900D02*
D03*
X1445260Y1076960D02*
D03*
X1427628Y1091078D02*
D03*
X1412379Y1101229D02*
D03*
X1494790Y1054100D02*
D03*
X1357630Y895350D02*
D03*
X1377950Y892810D02*
D03*
X1395730Y908050D02*
D03*
X1407160Y923290D02*
D03*
X1336040Y1000760D02*
D03*
X1376680Y982980D02*
D03*
X1361440Y1000760D02*
D03*
X1348740Y984250D02*
D03*
X1508760Y1037590D02*
D03*
X1592580Y1027430D02*
D03*
X1581150Y1370330D02*
D03*
X1402080Y1266190D02*
D03*
X1286510Y1300480D02*
D03*
X1210310Y948690D02*
D03*
X1626870Y1240790D02*
D03*
X1569720Y938530D02*
D03*
X1417320Y1140460D02*
D03*
X1504950Y1214120D02*
D03*
X1236980Y1306830D02*
D03*
X1239520Y1217930D02*
D03*
X1451610Y970280D02*
D03*
X1461770Y1002030D02*
D03*
X1466850Y1028700D02*
D03*
X1487170Y1037590D02*
D03*
X1291590Y925830D02*
D03*
X1270000Y927100D02*
D03*
X1249680Y923290D02*
D03*
X1229360Y938530D02*
D03*
X1254760Y986790D02*
D03*
X1216660D02*
D03*
X1192530Y990600D02*
D03*
X1170940Y999490D02*
D03*
X1303020Y1247140D02*
D03*
X1398270Y1346200D02*
D03*
X1477010Y1156970D02*
D03*
X1670050Y1047750D02*
D03*
X1587500Y1296670D02*
D03*
X1586230Y1319530D02*
D03*
X1404620Y1211580D02*
D03*
X1466850Y1182370D02*
D03*
M02*
