G04*
G04 #@! TF.GenerationSoftware,Altium Limited,Altium Designer,20.1.14 (287)*
G04*
G04 Layer_Color=65535*
%FSLAX44Y44*%
%MOMM*%
G71*
G04*
G04 #@! TF.SameCoordinates,DEFACEA9-F4D7-4AEA-A9FD-1AB281C9BDDB*
G04*
G04*
G04 #@! TF.FilePolarity,Positive*
G04*
G01*
G75*
%ADD10C,0.0000*%
%ADD11C,0.2000*%
%ADD12C,0.0500*%
%ADD13C,0.2540*%
%ADD14C,0.1270*%
%ADD15C,0.1524*%
%ADD16C,0.1500*%
%ADD17C,0.0762*%
D10*
X1619930Y1294260D02*
G03*
X1619930Y1294260I-1270J0D01*
G01*
D11*
X1259223Y1134160D02*
G03*
X1259223Y1134160I-1803J0D01*
G01*
X1056640Y1336040D02*
Y1361440D01*
X1107440D01*
Y1336040D02*
Y1361440D01*
X1056640Y1336040D02*
X1107440D01*
X998220Y956310D02*
Y1191260D01*
X993987Y1210310D02*
X998220Y1206077D01*
Y1191260D02*
Y1210310D01*
X951653Y964777D02*
X985520D01*
X947420Y969010D02*
X951653Y964777D01*
X947420Y969010D02*
X951653Y973243D01*
X985520D01*
X951653Y990177D02*
X985520D01*
X947420Y994410D02*
X951653Y990177D01*
X947420Y994410D02*
X951653Y998643D01*
X985520D01*
X951653Y1015577D02*
X985520D01*
X947420Y1019810D02*
X951653Y1015577D01*
X947420Y1019810D02*
X951653Y1024043D01*
X985520D01*
X951653Y1040977D02*
X985520D01*
X947420Y1045210D02*
X951653Y1040977D01*
X947420Y1045210D02*
X951653Y1049443D01*
X985520D01*
X951653Y1066377D02*
X985520D01*
X947420Y1070610D02*
X951653Y1066377D01*
X947420Y1070610D02*
X951653Y1074843D01*
X985520D01*
X951653Y1091777D02*
X985520D01*
X947420Y1096010D02*
X951653Y1091777D01*
X947420Y1096010D02*
X951653Y1100243D01*
X985520D01*
X951653Y1117177D02*
X985520D01*
X947420Y1121410D02*
X951653Y1117177D01*
X947420Y1121410D02*
X951653Y1125643D01*
X985520D01*
X951653Y1142577D02*
X985520D01*
X947420Y1146810D02*
X951653Y1142577D01*
X947420Y1146810D02*
X951653Y1151043D01*
X985520D01*
X951653Y1167977D02*
X985520D01*
X947420Y1172210D02*
X951653Y1167977D01*
X947420Y1172210D02*
X951653Y1176443D01*
X985520D01*
X951653Y1193377D02*
X985520D01*
X947420Y1197610D02*
X951653Y1193377D01*
X947420Y1197610D02*
X951653Y1201843D01*
X985520D01*
Y956310D02*
X998220D01*
X985520D02*
Y1210310D01*
X998220D01*
X1492250Y1367790D02*
Y1393190D01*
X1543050D01*
Y1367790D02*
Y1393190D01*
X1492250Y1367790D02*
X1543050D01*
X1202690Y765810D02*
Y778510D01*
Y765810D02*
X1609090D01*
Y778510D01*
X1211157Y731943D02*
Y765810D01*
Y731943D02*
X1215390Y727710D01*
X1219623Y731943D01*
Y765810D01*
X1236557Y731943D02*
Y765810D01*
Y731943D02*
X1240790Y727710D01*
X1245023Y731943D01*
Y765810D01*
X1261957Y731943D02*
Y765810D01*
Y731943D02*
X1266190Y727710D01*
X1270423Y731943D01*
Y765810D01*
X1287357Y731943D02*
Y765810D01*
Y731943D02*
X1291590Y727710D01*
X1295823Y731943D01*
Y765810D01*
X1312757Y731943D02*
Y765810D01*
Y731943D02*
X1316990Y727710D01*
X1321223Y731943D01*
Y765810D01*
X1338157Y731943D02*
Y765810D01*
Y731943D02*
X1342390Y727710D01*
X1346623Y731943D01*
Y765810D01*
X1363557Y731943D02*
Y765810D01*
Y731943D02*
X1367790Y727710D01*
X1372023Y731943D01*
Y765810D01*
X1388957Y731943D02*
Y765810D01*
Y731943D02*
X1393190Y727710D01*
X1397423Y731943D01*
Y765810D01*
X1414357Y731943D02*
Y765810D01*
Y731943D02*
X1418590Y727710D01*
X1422823Y731943D01*
Y765810D01*
X1439757Y731943D02*
Y765810D01*
Y731943D02*
X1443990Y727710D01*
X1448223Y731943D01*
Y765810D01*
X1465157Y731943D02*
Y765810D01*
Y731943D02*
X1469390Y727710D01*
X1473623Y731943D01*
Y765810D01*
X1490557Y731943D02*
Y765810D01*
Y731943D02*
X1494790Y727710D01*
X1499023Y731943D01*
Y765810D01*
X1515957Y731943D02*
Y765810D01*
Y731943D02*
X1520190Y727710D01*
X1524423Y731943D01*
Y765810D01*
X1541357Y731943D02*
Y765810D01*
Y731943D02*
X1545590Y727710D01*
X1549823Y731943D01*
Y765810D01*
X1566757Y731943D02*
Y765810D01*
Y731943D02*
X1570990Y727710D01*
X1575223Y731943D01*
Y765810D01*
X1592157Y731943D02*
Y765810D01*
Y731943D02*
X1596390Y727710D01*
X1600623Y731943D01*
Y765810D01*
X1202690Y778510D02*
X1221740D01*
X1609090D01*
X1531620Y1281430D02*
Y1332230D01*
X1518920D02*
X1531620D01*
X1518920Y1281430D02*
X1531620D01*
X1518920D02*
Y1332230D01*
X1531620Y1289897D02*
X1565487D01*
X1569720Y1294130D01*
X1565487Y1298363D02*
X1569720Y1294130D01*
X1531620Y1298363D02*
X1565487D01*
X1531620Y1315297D02*
X1565487D01*
X1569720Y1319530D01*
X1565487Y1323763D02*
X1569720Y1319530D01*
X1531620Y1323763D02*
X1565487D01*
X1620870Y956310D02*
X1632870D01*
X1653540Y1183990D02*
Y1195990D01*
X1518920Y955040D02*
Y1005840D01*
Y955040D02*
X1531620D01*
X1518920Y1005840D02*
X1531620D01*
Y955040D02*
Y1005840D01*
X1485053Y997373D02*
X1518920D01*
X1480820Y993140D02*
X1485053Y997373D01*
X1480820Y993140D02*
X1485053Y988907D01*
X1485053Y988907D02*
X1518920D01*
X1485053Y971973D02*
X1518920D01*
X1480820Y967740D02*
X1485053Y971973D01*
X1480820Y967740D02*
X1485053Y963507D01*
X1518920D01*
X1452880Y1281430D02*
Y1332230D01*
Y1281430D02*
X1465580D01*
X1452880Y1332230D02*
X1465580D01*
Y1281430D02*
Y1332230D01*
X1419013Y1323763D02*
X1452880D01*
X1414780Y1319530D02*
X1419013Y1323763D01*
X1414780Y1319530D02*
X1419013Y1315297D01*
X1419013Y1315297D02*
X1452880D01*
X1419013Y1298363D02*
X1452880D01*
X1414780Y1294130D02*
X1419013Y1298363D01*
X1414780Y1294130D02*
X1419013Y1289897D01*
X1452880D01*
X1656430Y1139300D02*
X1668430D01*
X1172880Y1047750D02*
Y1072750D01*
X1097880D02*
X1172880D01*
X1097880Y1022750D02*
Y1072750D01*
Y1022750D02*
X1172880D01*
Y1047750D01*
D12*
X1216224Y1139900D02*
G03*
X1216224Y1139900I-1414J0D01*
G01*
D13*
X1703070Y734060D02*
Y737870D01*
Y938530D01*
X1686560Y717550D02*
X1703070Y734060D01*
X956310Y717550D02*
X1686560D01*
X937260Y736600D02*
X956310Y717550D01*
X937260Y1376680D02*
X937260Y736600D01*
X937260Y1376680D02*
X963930Y1403350D01*
X1220470D01*
X1703070Y938530D02*
Y1374775D01*
X1220470Y1403350D02*
X1677670D01*
X1703070Y1377950D01*
Y1371600D02*
Y1377950D01*
X1311910Y1333500D02*
X1385570D01*
Y1257300D02*
Y1333500D01*
X1311910Y1257300D02*
X1385570D01*
X1311910D02*
Y1333500D01*
X1068321Y1382772D02*
X1065781Y1385311D01*
X1060703D01*
X1058164Y1382772D01*
Y1372615D01*
X1060703Y1370076D01*
X1065781D01*
X1068321Y1372615D01*
Y1377693D01*
X1063242D01*
X1073399Y1370076D02*
Y1385311D01*
X1083556Y1370076D01*
Y1385311D01*
X1088634D02*
Y1370076D01*
X1096252D01*
X1098791Y1372615D01*
Y1382772D01*
X1096252Y1385311D01*
X1088634D01*
X946150Y773425D02*
Y758190D01*
X953767D01*
X956307Y760729D01*
Y770886D01*
X953767Y773425D01*
X946150D01*
X963924Y768347D02*
X969003D01*
X971542Y765807D01*
Y758190D01*
X963924D01*
X961385Y760729D01*
X963924Y763268D01*
X971542D01*
X979159Y770886D02*
Y768347D01*
X976620D01*
X981699D01*
X979159D01*
Y760729D01*
X981699Y758190D01*
X996934D02*
X991855D01*
X989316Y760729D01*
Y765807D01*
X991855Y768347D01*
X996934D01*
X999473Y765807D01*
Y763268D01*
X989316D01*
X1004551Y768347D02*
X1007090D01*
Y765807D01*
X1004551D01*
Y768347D01*
Y760729D02*
X1007090D01*
Y758190D01*
X1004551D01*
Y760729D01*
X1042639Y773425D02*
X1037560Y770886D01*
X1032482Y765807D01*
Y760729D01*
X1035021Y758190D01*
X1040100D01*
X1042639Y760729D01*
Y763268D01*
X1040100Y765807D01*
X1032482D01*
X1050256Y770886D02*
Y768347D01*
X1047717D01*
X1052795D01*
X1050256D01*
Y760729D01*
X1052795Y758190D01*
X1060413Y773425D02*
Y758190D01*
Y765807D01*
X1062952Y768347D01*
X1068031D01*
X1070570Y765807D01*
Y758190D01*
X1090883D02*
Y773425D01*
X1101040Y758190D01*
Y773425D01*
X1108657Y758190D02*
X1113736D01*
X1116275Y760729D01*
Y765807D01*
X1113736Y768347D01*
X1108657D01*
X1106118Y765807D01*
Y760729D01*
X1108657Y758190D01*
X1121353Y768347D02*
X1126432Y758190D01*
X1131510Y768347D01*
X1154363Y775964D02*
Y770886D01*
X1151824Y768347D01*
X1172137Y758190D02*
X1161980D01*
X1172137Y768347D01*
Y770886D01*
X1169598Y773425D01*
X1164519D01*
X1161980Y770886D01*
X1177215D02*
X1179754Y773425D01*
X1184833D01*
X1187372Y770886D01*
Y760729D01*
X1184833Y758190D01*
X1179754D01*
X1177215Y760729D01*
Y770886D01*
X963930Y788670D02*
Y798827D01*
X969008Y803905D01*
X974087Y798827D01*
Y788670D01*
Y796288D01*
X963930D01*
X979165Y798827D02*
Y791209D01*
X981704Y788670D01*
X989322D01*
Y798827D01*
X996939Y801366D02*
Y798827D01*
X994400D01*
X999479D01*
X996939D01*
Y791209D01*
X999479Y788670D01*
X1007096Y803905D02*
Y788670D01*
Y796288D01*
X1009635Y798827D01*
X1014714D01*
X1017253Y796288D01*
Y788670D01*
X1024870D02*
X1029949D01*
X1032488Y791209D01*
Y796288D01*
X1029949Y798827D01*
X1024870D01*
X1022331Y796288D01*
Y791209D01*
X1024870Y788670D01*
X1037566Y798827D02*
Y788670D01*
Y793748D01*
X1040105Y796288D01*
X1042645Y798827D01*
X1045184D01*
X1052801D02*
X1055340D01*
Y796288D01*
X1052801D01*
Y798827D01*
Y791209D02*
X1055340D01*
Y788670D01*
X1052801D01*
Y791209D01*
X1080732Y788670D02*
Y803905D01*
X1085811Y798827D01*
X1090889Y803905D01*
Y788670D01*
X1106124Y801366D02*
X1103585Y803905D01*
X1098506D01*
X1095967Y801366D01*
Y798827D01*
X1098506Y796288D01*
X1103585D01*
X1106124Y793748D01*
Y791209D01*
X1103585Y788670D01*
X1098506D01*
X1095967Y791209D01*
X1121359Y801366D02*
X1118820Y803905D01*
X1113742D01*
X1111202Y801366D01*
Y798827D01*
X1113742Y796288D01*
X1118820D01*
X1121359Y793748D01*
Y791209D01*
X1118820Y788670D01*
X1113742D01*
X1111202Y791209D01*
X961390Y834385D02*
Y824228D01*
X966468Y819150D01*
X971547Y824228D01*
Y834385D01*
X984243Y819150D02*
X979164D01*
X976625Y821689D01*
Y826768D01*
X979164Y829307D01*
X984243D01*
X986782Y826768D01*
Y824228D01*
X976625D01*
X991860Y829307D02*
Y819150D01*
Y824228D01*
X994399Y826768D01*
X996938Y829307D01*
X999478D01*
X1007095Y819150D02*
X1014713D01*
X1017252Y821689D01*
X1014713Y824228D01*
X1009634D01*
X1007095Y826768D01*
X1009634Y829307D01*
X1017252D01*
X1022330Y819150D02*
X1027409D01*
X1024870D01*
Y829307D01*
X1022330D01*
X1037565Y819150D02*
X1042644D01*
X1045183Y821689D01*
Y826768D01*
X1042644Y829307D01*
X1037565D01*
X1035026Y826768D01*
Y821689D01*
X1037565Y819150D01*
X1050261D02*
Y829307D01*
X1057879D01*
X1060418Y826768D01*
Y819150D01*
X1065496Y829307D02*
X1068036D01*
Y826768D01*
X1065496D01*
Y829307D01*
Y821689D02*
X1068036D01*
Y819150D01*
X1065496D01*
Y821689D01*
X1093427Y819150D02*
X1098506D01*
X1095966D01*
Y834385D01*
X1093427Y831846D01*
X1106123Y819150D02*
Y821689D01*
X1108662D01*
Y819150D01*
X1106123D01*
X1118819Y831846D02*
X1121358Y834385D01*
X1126437D01*
X1128976Y831846D01*
Y821689D01*
X1126437Y819150D01*
X1121358D01*
X1118819Y821689D01*
Y831846D01*
X972817Y859785D02*
X970277Y862324D01*
X965199D01*
X962660Y859785D01*
Y857246D01*
X965199Y854707D01*
X970277D01*
X972817Y852168D01*
Y849628D01*
X970277Y847089D01*
X965199D01*
X962660Y849628D01*
X977895Y847089D02*
Y857246D01*
X982973Y862324D01*
X988052Y857246D01*
Y847089D01*
Y854707D01*
X977895D01*
X993130Y847089D02*
Y862324D01*
X998208Y857246D01*
X1003287Y862324D01*
Y847089D01*
X1008365Y862324D02*
Y847089D01*
X1015983D01*
X1018522Y849628D01*
Y859785D01*
X1015983Y862324D01*
X1008365D01*
X1033757Y847089D02*
X1023600D01*
X1033757Y857246D01*
Y859785D01*
X1031218Y862324D01*
X1026140D01*
X1023600Y859785D01*
X1038835Y847089D02*
X1043914D01*
X1041375D01*
Y862324D01*
X1038835Y859785D01*
X1051531Y844550D02*
X1061688D01*
X1066766Y847089D02*
X1071845D01*
X1069305D01*
Y862324D01*
X1066766Y859785D01*
X1089619Y862324D02*
X1084541Y859785D01*
X1079462Y854707D01*
Y849628D01*
X1082001Y847089D01*
X1087080D01*
X1089619Y849628D01*
Y852168D01*
X1087080Y854707D01*
X1079462D01*
X1094697Y857246D02*
X1104854Y847089D01*
X1099776Y852168D01*
X1104854Y857246D01*
X1094697Y847089D01*
X1109932D02*
X1115011D01*
X1112471D01*
Y862324D01*
X1109932Y859785D01*
X1122628D02*
X1125167Y862324D01*
X1130246D01*
X1132785Y859785D01*
Y849628D01*
X1130246Y847089D01*
X1125167D01*
X1122628Y849628D01*
Y859785D01*
X948944Y1236721D02*
Y1234182D01*
X954022Y1229103D01*
X959101Y1234182D01*
Y1236721D01*
X954022Y1229103D02*
Y1221486D01*
X964179Y1218947D02*
X974336D01*
X979414Y1236721D02*
Y1221486D01*
X989571D01*
X994649D02*
X999728D01*
X997188D01*
Y1231643D01*
X994649D01*
X1007345Y1221486D02*
Y1231643D01*
X1014963D01*
X1017502Y1229103D01*
Y1221486D01*
X1030198D02*
X1025119D01*
X1022580Y1224025D01*
Y1229103D01*
X1025119Y1231643D01*
X1030198D01*
X1032737Y1229103D01*
Y1226564D01*
X1022580D01*
X1037815Y1221486D02*
X1045433D01*
X1047972Y1224025D01*
X1045433Y1226564D01*
X1040354D01*
X1037815Y1229103D01*
X1040354Y1231643D01*
X1047972D01*
X1380499Y1390647D02*
Y1377952D01*
X1383038Y1375412D01*
X1388117D01*
X1390656Y1377952D01*
Y1390647D01*
X1395734Y1375412D02*
Y1385569D01*
X1400813Y1390647D01*
X1405891Y1385569D01*
Y1375412D01*
Y1383030D01*
X1395734D01*
X1410969Y1375412D02*
Y1390647D01*
X1418587D01*
X1421126Y1388108D01*
Y1383030D01*
X1418587Y1380491D01*
X1410969D01*
X1416048D02*
X1421126Y1375412D01*
X1426204Y1390647D02*
X1436361D01*
X1431283D01*
Y1375412D01*
X1204214Y825241D02*
X1214371Y810006D01*
Y825241D02*
X1204214Y810006D01*
X1219449Y807467D02*
X1229606D01*
X1234684Y810006D02*
X1239762D01*
X1237223D01*
Y825241D01*
X1234684D01*
X1247380Y810006D02*
X1252458D01*
X1249919D01*
Y820163D01*
X1247380D01*
X1260076Y810006D02*
Y820163D01*
X1267693D01*
X1270233Y817624D01*
Y810006D01*
X1282928D02*
X1277850D01*
X1275311Y812545D01*
Y817624D01*
X1277850Y820163D01*
X1282928D01*
X1285468Y817624D01*
Y815084D01*
X1275311D01*
X1290546Y810006D02*
X1298164D01*
X1300703Y812545D01*
X1298164Y815084D01*
X1293085D01*
X1290546Y817624D01*
X1293085Y820163D01*
X1300703D01*
X1236726Y1154171D02*
Y1141475D01*
X1239265Y1138936D01*
X1244343D01*
X1246883Y1141475D01*
Y1154171D01*
X1623062Y1352552D02*
Y1367787D01*
X1630679D01*
X1633218Y1365248D01*
Y1360170D01*
X1630679Y1357631D01*
X1623062D01*
X1181102Y1134108D02*
Y1131568D01*
X1186180Y1126490D01*
X1191258Y1131568D01*
Y1134108D01*
X1186180Y1126490D02*
Y1118873D01*
X1323337Y1355086D02*
X1320797Y1357625D01*
X1315719D01*
X1313180Y1355086D01*
Y1352547D01*
X1315719Y1350007D01*
X1320797D01*
X1323337Y1347468D01*
Y1344929D01*
X1320797Y1342390D01*
X1315719D01*
X1313180Y1344929D01*
X1328415Y1357625D02*
Y1342390D01*
X1333493Y1347468D01*
X1338572Y1342390D01*
Y1357625D01*
X1343650D02*
Y1342390D01*
X1351268D01*
X1353807Y1344929D01*
Y1355086D01*
X1351268Y1357625D01*
X1343650D01*
D14*
X1670660Y1264260D02*
Y1359260D01*
X1370920Y1039160D02*
X1378920D01*
Y1047160D01*
X1277920Y1039160D02*
X1285920D01*
X1277920D02*
Y1047160D01*
X1378920Y1132160D02*
Y1140160D01*
X1370920D02*
X1378920D01*
X1277920Y1132160D02*
Y1140160D01*
X1285920D01*
D15*
X1602486Y1092581D02*
Y1112139D01*
X1615617Y1092581D02*
X1622883D01*
X1636014D02*
Y1112139D01*
D16*
X1484400Y1355320D02*
X1474403D01*
Y1360318D01*
X1476069Y1361985D01*
X1479402D01*
X1481068Y1360318D01*
Y1355320D01*
X1484400Y1365317D02*
X1477735D01*
X1474403Y1368649D01*
X1477735Y1371981D01*
X1484400D01*
X1479402D01*
Y1365317D01*
X1484400Y1375314D02*
Y1378646D01*
Y1376980D01*
X1474403D01*
X1476069Y1375314D01*
Y1383644D02*
X1474403Y1385310D01*
Y1388643D01*
X1476069Y1390309D01*
X1477735D01*
X1479402Y1388643D01*
Y1386976D01*
Y1388643D01*
X1481068Y1390309D01*
X1482734D01*
X1484400Y1388643D01*
Y1385310D01*
X1482734Y1383644D01*
X1561870Y1357860D02*
X1551873D01*
Y1362858D01*
X1553539Y1364525D01*
X1556872D01*
X1558538Y1362858D01*
Y1357860D01*
X1561870Y1367857D02*
X1555206D01*
X1551873Y1371189D01*
X1555206Y1374521D01*
X1561870D01*
X1556872D01*
Y1367857D01*
X1561870Y1377854D02*
Y1381186D01*
Y1379520D01*
X1551873D01*
X1553539Y1377854D01*
X1561870Y1392849D02*
Y1386184D01*
X1555206Y1392849D01*
X1553539D01*
X1551873Y1391183D01*
Y1387850D01*
X1553539Y1386184D01*
X1499649Y1349491D02*
Y1341161D01*
X1501315Y1339495D01*
X1504647D01*
X1506313Y1341161D01*
Y1349491D01*
X1516310Y1347825D02*
X1514644Y1349491D01*
X1511312D01*
X1509646Y1347825D01*
Y1346159D01*
X1511312Y1344493D01*
X1514644D01*
X1516310Y1342827D01*
Y1341161D01*
X1514644Y1339495D01*
X1511312D01*
X1509646Y1341161D01*
X1519643Y1349491D02*
Y1339495D01*
X1524641D01*
X1526307Y1341161D01*
Y1342827D01*
X1524641Y1344493D01*
X1519643D01*
X1524641D01*
X1526307Y1346159D01*
Y1347825D01*
X1524641Y1349491D01*
X1519643D01*
X1529639Y1337829D02*
X1536304D01*
X1539636Y1349491D02*
Y1342827D01*
X1542968Y1339495D01*
X1546301Y1342827D01*
Y1349491D01*
X1549633D02*
Y1339495D01*
X1554631D01*
X1556297Y1341161D01*
Y1342827D01*
X1554631Y1344493D01*
X1549633D01*
X1554631D01*
X1556297Y1346159D01*
Y1347825D01*
X1554631Y1349491D01*
X1549633D01*
X1559630D02*
Y1341161D01*
X1561296Y1339495D01*
X1564628D01*
X1566294Y1341161D01*
Y1349491D01*
X1576291Y1347825D02*
X1574625Y1349491D01*
X1571293D01*
X1569626Y1347825D01*
Y1346159D01*
X1571293Y1344493D01*
X1574625D01*
X1576291Y1342827D01*
Y1341161D01*
X1574625Y1339495D01*
X1571293D01*
X1569626Y1341161D01*
X1646398Y974597D02*
X1656395D01*
Y969598D01*
X1654728Y967932D01*
X1651396D01*
X1649730Y969598D01*
Y974597D01*
Y971264D02*
X1646398Y967932D01*
X1643065Y964600D02*
X1653062D01*
Y959601D01*
X1651396Y957935D01*
X1648064D01*
X1646398Y959601D01*
Y964600D01*
X1653062Y954603D02*
X1648064D01*
X1646398Y952937D01*
Y947939D01*
X1653062D01*
X1646398Y944606D02*
Y941274D01*
Y942940D01*
X1656395D01*
Y944606D01*
X1646398Y936276D02*
Y932943D01*
Y934610D01*
X1656395D01*
Y936276D01*
X1637030Y1206500D02*
Y1216497D01*
X1642028D01*
X1643694Y1214831D01*
Y1211498D01*
X1642028Y1209832D01*
X1637030D01*
X1640362D02*
X1643694Y1206500D01*
X1647027D02*
X1650359D01*
X1648693D01*
Y1216497D01*
X1647027D01*
X1660356Y1206500D02*
X1657024D01*
X1655357Y1208166D01*
Y1211498D01*
X1657024Y1213165D01*
X1660356D01*
X1662022Y1211498D01*
Y1209832D01*
X1655357D01*
X1672019Y1216497D02*
Y1206500D01*
X1667020D01*
X1665354Y1208166D01*
Y1211498D01*
X1667020Y1213165D01*
X1672019D01*
X1481328Y1013460D02*
Y1023457D01*
X1486326D01*
X1487993Y1021791D01*
Y1018458D01*
X1486326Y1016792D01*
X1481328D01*
X1484660D02*
X1487993Y1013460D01*
X1497989Y1023457D02*
X1491325D01*
Y1013460D01*
X1497989D01*
X1491325Y1018458D02*
X1494657D01*
X1507986Y1021791D02*
X1506320Y1023457D01*
X1502988D01*
X1501322Y1021791D01*
Y1020125D01*
X1502988Y1018458D01*
X1506320D01*
X1507986Y1016792D01*
Y1015126D01*
X1506320Y1013460D01*
X1502988D01*
X1501322Y1015126D01*
X1517983Y1023457D02*
X1511318D01*
Y1013460D01*
X1517983D01*
X1511318Y1018458D02*
X1514651D01*
X1521315Y1023457D02*
X1527980D01*
X1524647D01*
Y1013460D01*
X1425744Y1337392D02*
Y1347388D01*
X1430743D01*
X1432409Y1345722D01*
Y1342390D01*
X1430743Y1340724D01*
X1425744D01*
X1440739Y1347388D02*
X1437407D01*
X1435741Y1345722D01*
Y1339058D01*
X1437407Y1337392D01*
X1440739D01*
X1442406Y1339058D01*
Y1345722D01*
X1440739Y1347388D01*
X1445738D02*
Y1337392D01*
X1449070Y1340724D01*
X1452402Y1337392D01*
Y1347388D01*
X1462399D02*
X1455735D01*
Y1337392D01*
X1462399D01*
X1455735Y1342390D02*
X1459067D01*
X1465731Y1337392D02*
Y1347388D01*
X1470730D01*
X1472396Y1345722D01*
Y1342390D01*
X1470730Y1340724D01*
X1465731D01*
X1469064D02*
X1472396Y1337392D01*
X1654048Y1173825D02*
Y1163828D01*
X1660712D01*
X1670709Y1173825D02*
X1664045D01*
Y1163828D01*
X1670709D01*
X1664045Y1168826D02*
X1667377D01*
X1674042Y1173825D02*
Y1163828D01*
X1679040D01*
X1680706Y1165494D01*
Y1172159D01*
X1679040Y1173825D01*
X1674042D01*
X1591228Y1108069D02*
X1581232D01*
Y1101404D01*
X1591228Y1098072D02*
X1581232D01*
Y1093074D01*
X1582898Y1091408D01*
X1589562D01*
X1591228Y1093074D01*
Y1098072D01*
Y1083077D02*
Y1086409D01*
X1589562Y1088075D01*
X1582898D01*
X1581232Y1086409D01*
Y1083077D01*
X1582898Y1081411D01*
X1589562D01*
X1591228Y1083077D01*
X1098296Y1090259D02*
Y1080262D01*
X1104960D01*
X1108293D02*
X1111625D01*
X1109959D01*
Y1090259D01*
X1108293Y1088593D01*
X1140520Y1125677D02*
X1138854Y1127343D01*
X1135522D01*
X1133856Y1125677D01*
Y1119012D01*
X1135522Y1117346D01*
X1138854D01*
X1140520Y1119012D01*
X1143853Y1124010D02*
X1150517Y1117346D01*
X1147185Y1120678D01*
X1150517Y1124010D01*
X1143853Y1117346D01*
X1160514D02*
X1153850D01*
X1160514Y1124010D01*
Y1125677D01*
X1158848Y1127343D01*
X1155516D01*
X1153850Y1125677D01*
X1139250Y1162507D02*
X1137584Y1164173D01*
X1134252D01*
X1132586Y1162507D01*
Y1155842D01*
X1134252Y1154176D01*
X1137584D01*
X1139250Y1155842D01*
X1142583Y1160841D02*
X1149247Y1154176D01*
X1145915Y1157508D01*
X1149247Y1160841D01*
X1142583Y1154176D01*
X1152580D02*
X1155912D01*
X1154246D01*
Y1164173D01*
X1152580Y1162507D01*
X1653458Y1046550D02*
X1655125Y1048216D01*
Y1051548D01*
X1653458Y1053214D01*
X1646794D01*
X1645128Y1051548D01*
Y1048216D01*
X1646794Y1046550D01*
X1655125Y1043217D02*
X1645128D01*
Y1038219D01*
X1646794Y1036553D01*
X1648460D01*
X1650126D01*
X1651792Y1038219D01*
Y1043217D01*
X1641796Y1033221D02*
X1651792D01*
Y1028222D01*
X1650126Y1026556D01*
X1646794D01*
X1645128Y1028222D01*
Y1033221D01*
X1655125Y1018225D02*
Y1021558D01*
X1653458Y1023224D01*
X1646794D01*
X1645128Y1021558D01*
Y1018225D01*
X1646794Y1016559D01*
X1653458D01*
X1655125Y1018225D01*
Y1013227D02*
X1646794D01*
X1645128Y1011561D01*
Y1008229D01*
X1646794Y1006563D01*
X1655125D01*
Y1003230D02*
Y996566D01*
Y999898D01*
X1645128D01*
X1576752Y1219118D02*
X1575086Y1220785D01*
X1571753D01*
X1570087Y1219118D01*
Y1212454D01*
X1571753Y1210788D01*
X1575086D01*
X1576752Y1212454D01*
X1580084Y1220785D02*
Y1210788D01*
X1585082D01*
X1586749Y1212454D01*
Y1214120D01*
Y1215786D01*
X1585082Y1217452D01*
X1580084D01*
X1590081Y1207456D02*
Y1217452D01*
X1595079D01*
X1596745Y1215786D01*
Y1212454D01*
X1595079Y1210788D01*
X1590081D01*
X1600078Y1220785D02*
X1603410D01*
X1601744D01*
Y1210788D01*
X1600078D01*
X1603410D01*
X1608408D02*
Y1220785D01*
X1615073Y1210788D01*
Y1220785D01*
X1433891Y1227277D02*
X1432224Y1228943D01*
X1428892D01*
X1427226Y1227277D01*
Y1220612D01*
X1428892Y1218946D01*
X1432224D01*
X1433891Y1220612D01*
X1437223Y1228943D02*
X1443887D01*
Y1227277D01*
X1437223Y1220612D01*
Y1218946D01*
X1433038Y964804D02*
X1431372Y963138D01*
Y959806D01*
X1433038Y958139D01*
X1439702D01*
X1441368Y959806D01*
Y963138D01*
X1439702Y964804D01*
X1431372Y974801D02*
X1433038Y971468D01*
X1436370Y968136D01*
X1439702D01*
X1441368Y969802D01*
Y973135D01*
X1439702Y974801D01*
X1438036D01*
X1436370Y973135D01*
Y968136D01*
X1304888Y958454D02*
X1303222Y956788D01*
Y953456D01*
X1304888Y951789D01*
X1311552D01*
X1313218Y953456D01*
Y956788D01*
X1311552Y958454D01*
X1303222Y968451D02*
Y961786D01*
X1308220D01*
X1306554Y965118D01*
Y966785D01*
X1308220Y968451D01*
X1311552D01*
X1313218Y966785D01*
Y963452D01*
X1311552Y961786D01*
X1303618Y933054D02*
X1301952Y931388D01*
Y928055D01*
X1303618Y926389D01*
X1310282D01*
X1311948Y928055D01*
Y931388D01*
X1310282Y933054D01*
X1311948Y941385D02*
X1301952D01*
X1306950Y936386D01*
Y943051D01*
X1206561Y1096467D02*
X1204894Y1098133D01*
X1201562D01*
X1199896Y1096467D01*
Y1089802D01*
X1201562Y1088136D01*
X1204894D01*
X1206561Y1089802D01*
X1209893Y1096467D02*
X1211559Y1098133D01*
X1214891D01*
X1216557Y1096467D01*
Y1094800D01*
X1214891Y1093134D01*
X1213225D01*
X1214891D01*
X1216557Y1091468D01*
Y1089802D01*
X1214891Y1088136D01*
X1211559D01*
X1209893Y1089802D01*
X1202750Y1057097D02*
X1201084Y1058763D01*
X1197752D01*
X1196086Y1057097D01*
Y1050432D01*
X1197752Y1048766D01*
X1201084D01*
X1202750Y1050432D01*
X1212747Y1048766D02*
X1206083D01*
X1212747Y1055431D01*
Y1057097D01*
X1211081Y1058763D01*
X1207749D01*
X1206083Y1057097D01*
X1431888Y993140D02*
X1430222Y991474D01*
Y988142D01*
X1431888Y986475D01*
X1438552D01*
X1440218Y988142D01*
Y991474D01*
X1438552Y993140D01*
X1440218Y996472D02*
Y999805D01*
Y998138D01*
X1430222D01*
X1431888Y996472D01*
D17*
X1643140Y1121600D02*
X1634676Y1113137D01*
Y1121600D02*
X1643140Y1113137D01*
X1638908Y1121600D02*
Y1113137D01*
X1634676Y1117368D02*
X1643140D01*
M02*
