G04*
G04 #@! TF.GenerationSoftware,Altium Limited,Altium Designer,20.1.14 (287)*
G04*
G04 Layer_Physical_Order=2*
G04 Layer_Color=16711680*
%FSLAX44Y44*%
%MOMM*%
G71*
G04*
G04 #@! TF.SameCoordinates,DEFACEA9-F4D7-4AEA-A9FD-1AB281C9BDDB*
G04*
G04*
G04 #@! TF.FilePolarity,Positive*
G04*
G01*
G75*
%ADD16C,0.1500*%
%ADD50R,1.5000X1.5000*%
%ADD51C,1.5000*%
%ADD52R,1.5000X1.5000*%
%ADD53C,0.5000*%
%ADD54C,1.2700*%
G36*
X1695450Y1375410D02*
Y735330D01*
X1682750Y722630D01*
X957580D01*
X942340Y737870D01*
Y897890D01*
X942340Y1374140D01*
X965200Y1397000D01*
X1673860D01*
X1695450Y1375410D01*
D02*
G37*
%LPC*%
G36*
X1582420Y1379129D02*
Y1371600D01*
X1589949D01*
X1589811Y1372651D01*
X1588915Y1374813D01*
X1587490Y1376670D01*
X1585633Y1378095D01*
X1583471Y1378991D01*
X1582420Y1379129D01*
D02*
G37*
G36*
X1579880D02*
X1578829Y1378991D01*
X1576667Y1378095D01*
X1574810Y1376670D01*
X1573385Y1374813D01*
X1572489Y1372651D01*
X1572350Y1371600D01*
X1579880D01*
Y1379129D01*
D02*
G37*
G36*
X1504950Y1390617D02*
X1502329Y1390272D01*
X1499887Y1389260D01*
X1497789Y1387651D01*
X1496180Y1385553D01*
X1495168Y1383111D01*
X1494823Y1380490D01*
X1495168Y1377869D01*
X1496180Y1375427D01*
X1497789Y1373329D01*
X1499887Y1371720D01*
X1502329Y1370708D01*
X1504950Y1370363D01*
X1507571Y1370708D01*
X1510013Y1371720D01*
X1512111Y1373329D01*
X1513720Y1375427D01*
X1514732Y1377869D01*
X1515077Y1380490D01*
X1514732Y1383111D01*
X1513720Y1385553D01*
X1512111Y1387651D01*
X1510013Y1389260D01*
X1507571Y1390272D01*
X1504950Y1390617D01*
D02*
G37*
G36*
X1589949Y1369060D02*
X1582420D01*
Y1361530D01*
X1583471Y1361669D01*
X1585633Y1362565D01*
X1587490Y1363990D01*
X1588915Y1365847D01*
X1589811Y1368009D01*
X1589949Y1369060D01*
D02*
G37*
G36*
X1579880D02*
X1572350D01*
X1572489Y1368009D01*
X1573385Y1365847D01*
X1574810Y1363990D01*
X1576667Y1362565D01*
X1578829Y1361669D01*
X1579880Y1361530D01*
Y1369060D01*
D02*
G37*
G36*
X1540390Y1390530D02*
X1520310D01*
Y1370450D01*
X1526996D01*
Y1365370D01*
X1517531Y1355905D01*
X1486019D01*
X1459062Y1382862D01*
X1457974Y1383589D01*
X1456690Y1383844D01*
X1311910D01*
X1310626Y1383589D01*
X1309538Y1382862D01*
X1267628Y1340952D01*
X1266901Y1339864D01*
X1266646Y1338580D01*
Y1238250D01*
X1266901Y1236966D01*
X1267628Y1235878D01*
X1336208Y1167298D01*
X1337296Y1166571D01*
X1338580Y1166316D01*
X1369717D01*
X1370185Y1165187D01*
X1371610Y1163330D01*
X1373467Y1161905D01*
X1375629Y1161009D01*
X1377950Y1160703D01*
X1380271Y1161009D01*
X1382433Y1161905D01*
X1384290Y1163330D01*
X1385715Y1165187D01*
X1386611Y1167349D01*
X1386917Y1169670D01*
X1386611Y1171991D01*
X1385715Y1174153D01*
X1384290Y1176010D01*
X1382433Y1177435D01*
X1380271Y1178331D01*
X1377950Y1178637D01*
X1375629Y1178331D01*
X1373467Y1177435D01*
X1371610Y1176010D01*
X1370185Y1174153D01*
X1369717Y1173025D01*
X1339969D01*
X1273354Y1239640D01*
Y1337191D01*
X1313300Y1377135D01*
X1455300D01*
X1482258Y1350178D01*
X1483346Y1349451D01*
X1484630Y1349196D01*
X1518920D01*
X1520204Y1349451D01*
X1521292Y1350178D01*
X1532722Y1361608D01*
X1533449Y1362696D01*
X1533705Y1363980D01*
Y1370450D01*
X1540390D01*
Y1390530D01*
D02*
G37*
G36*
X1450340Y1372947D02*
X1448019Y1372641D01*
X1445857Y1371745D01*
X1444000Y1370320D01*
X1442575Y1368463D01*
X1441679Y1366301D01*
X1441373Y1363980D01*
X1441569Y1362493D01*
X1438790Y1359715D01*
X1355441D01*
X1354158Y1359459D01*
X1353070Y1358732D01*
X1352782Y1358445D01*
X1306830D01*
X1305546Y1358189D01*
X1304458Y1357462D01*
X1298108Y1351112D01*
X1297381Y1350024D01*
X1297126Y1348740D01*
Y1290697D01*
X1293038Y1286610D01*
X1292225Y1286448D01*
X1291137Y1285721D01*
X1286678Y1281262D01*
X1285951Y1280174D01*
X1285695Y1278890D01*
Y1234440D01*
X1285951Y1233156D01*
X1286678Y1232068D01*
X1299378Y1219368D01*
X1300466Y1218641D01*
X1301750Y1218385D01*
X1348620D01*
X1395156Y1171850D01*
X1394689Y1170721D01*
X1394383Y1168400D01*
X1394689Y1166079D01*
X1395585Y1163917D01*
X1397010Y1162060D01*
X1398867Y1160635D01*
X1401029Y1159739D01*
X1403350Y1159433D01*
X1405671Y1159739D01*
X1407833Y1160635D01*
X1409690Y1162060D01*
X1411115Y1163917D01*
X1412011Y1166079D01*
X1412317Y1168400D01*
X1412011Y1170721D01*
X1411115Y1172883D01*
X1409690Y1174740D01*
X1407833Y1176165D01*
X1405671Y1177061D01*
X1403350Y1177367D01*
X1401029Y1177061D01*
X1399900Y1176594D01*
X1352382Y1224112D01*
X1351294Y1224839D01*
X1350010Y1225095D01*
X1303139D01*
X1292404Y1235829D01*
Y1277501D01*
X1294992Y1280088D01*
X1295805Y1280250D01*
X1296893Y1280977D01*
X1302852Y1286935D01*
X1303579Y1288024D01*
X1303835Y1289307D01*
Y1347350D01*
X1308219Y1351736D01*
X1354171D01*
X1355455Y1351991D01*
X1356543Y1352718D01*
X1356831Y1353006D01*
X1390686D01*
X1391312Y1351736D01*
X1390505Y1350683D01*
X1389609Y1348521D01*
X1389303Y1346200D01*
X1389609Y1343879D01*
X1390505Y1341717D01*
X1391930Y1339860D01*
X1393787Y1338435D01*
X1395949Y1337539D01*
X1398270Y1337233D01*
X1400591Y1337539D01*
X1402753Y1338435D01*
X1404610Y1339860D01*
X1406035Y1341717D01*
X1406503Y1342845D01*
X1412121D01*
X1421586Y1333380D01*
Y1271270D01*
X1421841Y1269986D01*
X1422568Y1268898D01*
X1427648Y1263818D01*
X1428736Y1263091D01*
X1430020Y1262835D01*
X1455300D01*
X1462225Y1255910D01*
Y1190027D01*
X1460510Y1188710D01*
X1459085Y1186853D01*
X1458189Y1184691D01*
X1457883Y1182370D01*
X1458189Y1180049D01*
X1459085Y1177887D01*
X1460510Y1176030D01*
X1462367Y1174605D01*
X1464529Y1173709D01*
X1466850Y1173403D01*
X1469171Y1173709D01*
X1471333Y1174605D01*
X1473190Y1176030D01*
X1474615Y1177887D01*
X1475511Y1180049D01*
X1475817Y1182370D01*
X1475511Y1184691D01*
X1474615Y1186853D01*
X1473190Y1188710D01*
X1471333Y1190135D01*
X1469171Y1191031D01*
X1468934Y1191062D01*
Y1257300D01*
X1468679Y1258584D01*
X1467952Y1259672D01*
X1459062Y1268562D01*
X1457974Y1269289D01*
X1456690Y1269545D01*
X1431409D01*
X1428295Y1272660D01*
Y1334770D01*
X1428039Y1336054D01*
X1427312Y1337142D01*
X1415882Y1348572D01*
X1414794Y1349299D01*
X1413510Y1349554D01*
X1406503D01*
X1406035Y1350683D01*
X1405228Y1351736D01*
X1405854Y1353006D01*
X1440180D01*
X1441464Y1353261D01*
X1442552Y1353988D01*
X1445247Y1356683D01*
X1445857Y1356215D01*
X1448019Y1355319D01*
X1450340Y1355013D01*
X1452661Y1355319D01*
X1454823Y1356215D01*
X1456680Y1357640D01*
X1458105Y1359497D01*
X1459001Y1361659D01*
X1459307Y1363980D01*
X1459001Y1366301D01*
X1458105Y1368463D01*
X1456680Y1370320D01*
X1454823Y1371745D01*
X1452661Y1372641D01*
X1450340Y1372947D01*
D02*
G37*
G36*
X1070610Y1358699D02*
Y1350010D01*
X1079299D01*
X1079122Y1351361D01*
X1078110Y1353803D01*
X1076501Y1355901D01*
X1074403Y1357510D01*
X1071961Y1358522D01*
X1070610Y1358699D01*
D02*
G37*
G36*
X1104780Y1358780D02*
X1096010D01*
Y1350010D01*
X1104780D01*
Y1358780D01*
D02*
G37*
G36*
X1068070Y1358699D02*
X1066719Y1358522D01*
X1064277Y1357510D01*
X1062179Y1355901D01*
X1060570Y1353803D01*
X1059558Y1351361D01*
X1059381Y1350010D01*
X1068070D01*
Y1358699D01*
D02*
G37*
G36*
X1093470Y1358780D02*
X1084700D01*
Y1350010D01*
X1093470D01*
Y1358780D01*
D02*
G37*
G36*
X1656160Y1358649D02*
X1654194Y1358258D01*
X1652526Y1357144D01*
X1651412Y1355477D01*
X1651021Y1353510D01*
X1651412Y1351543D01*
X1652526Y1349876D01*
X1654194Y1348762D01*
X1656160Y1348371D01*
X1658127Y1348762D01*
X1659794Y1349876D01*
X1660908Y1351543D01*
X1661299Y1353510D01*
X1660908Y1355477D01*
X1659794Y1357144D01*
X1658127Y1358258D01*
X1656160Y1358649D01*
D02*
G37*
G36*
X1079299Y1347470D02*
X1070610D01*
Y1338781D01*
X1071961Y1338958D01*
X1074403Y1339970D01*
X1076501Y1341579D01*
X1078110Y1343677D01*
X1079122Y1346119D01*
X1079299Y1347470D01*
D02*
G37*
G36*
X1068070D02*
X1059381D01*
X1059558Y1346119D01*
X1060570Y1343677D01*
X1062179Y1341579D01*
X1064277Y1339970D01*
X1066719Y1338958D01*
X1068070Y1338781D01*
Y1347470D01*
D02*
G37*
G36*
X1104780D02*
X1096010D01*
Y1338700D01*
X1104780D01*
Y1347470D01*
D02*
G37*
G36*
X1093470D02*
X1084700D01*
Y1338700D01*
X1093470D01*
Y1347470D01*
D02*
G37*
G36*
X1626160Y1339149D02*
X1624194Y1338757D01*
X1622526Y1337644D01*
X1621413Y1335977D01*
X1621021Y1334010D01*
X1621413Y1332043D01*
X1622526Y1330376D01*
X1624194Y1329262D01*
X1626160Y1328871D01*
X1628127Y1329262D01*
X1629794Y1330376D01*
X1630908Y1332043D01*
X1631299Y1334010D01*
X1630908Y1335977D01*
X1629794Y1337644D01*
X1628127Y1338757D01*
X1626160Y1339149D01*
D02*
G37*
G36*
X1586230Y1328497D02*
X1583909Y1328191D01*
X1581747Y1327295D01*
X1579890Y1325870D01*
X1578465Y1324013D01*
X1577997Y1322885D01*
X1573530D01*
X1572246Y1322629D01*
X1571158Y1321902D01*
X1550838Y1301582D01*
X1550111Y1300494D01*
X1549855Y1299210D01*
Y1191379D01*
X1518801Y1160324D01*
X1485243D01*
X1484775Y1161453D01*
X1483350Y1163310D01*
X1481493Y1164735D01*
X1479331Y1165631D01*
X1477010Y1165937D01*
X1474689Y1165631D01*
X1472527Y1164735D01*
X1470670Y1163310D01*
X1469245Y1161453D01*
X1468349Y1159291D01*
X1468043Y1156970D01*
X1468349Y1154649D01*
X1469245Y1152487D01*
X1470670Y1150630D01*
X1472527Y1149205D01*
X1474689Y1148309D01*
X1477010Y1148003D01*
X1479331Y1148309D01*
X1481493Y1149205D01*
X1483350Y1150630D01*
X1484775Y1152487D01*
X1485243Y1153615D01*
X1520190D01*
X1521474Y1153871D01*
X1522562Y1154598D01*
X1555582Y1187618D01*
X1556309Y1188706D01*
X1556564Y1189990D01*
Y1297820D01*
X1574919Y1316176D01*
X1577997D01*
X1578465Y1315047D01*
X1579890Y1313190D01*
X1581747Y1311765D01*
X1583909Y1310869D01*
X1586230Y1310563D01*
X1588551Y1310869D01*
X1590713Y1311765D01*
X1592570Y1313190D01*
X1593995Y1315047D01*
X1594891Y1317209D01*
X1595197Y1319530D01*
X1594891Y1321851D01*
X1593995Y1324013D01*
X1592570Y1325870D01*
X1590713Y1327295D01*
X1588551Y1328191D01*
X1586230Y1328497D01*
D02*
G37*
G36*
X1488320Y1329570D02*
X1468240D01*
Y1309490D01*
X1488320D01*
Y1329570D01*
D02*
G37*
G36*
X1506220Y1329657D02*
X1503599Y1329312D01*
X1501157Y1328300D01*
X1499059Y1326691D01*
X1497450Y1324593D01*
X1496438Y1322151D01*
X1496093Y1319530D01*
X1496438Y1316909D01*
X1497450Y1314467D01*
X1499059Y1312369D01*
X1501157Y1310760D01*
X1503599Y1309748D01*
X1506220Y1309403D01*
X1508841Y1309748D01*
X1511283Y1310760D01*
X1513381Y1312369D01*
X1514990Y1314467D01*
X1516002Y1316909D01*
X1516347Y1319530D01*
X1516002Y1322151D01*
X1514990Y1324593D01*
X1513381Y1326691D01*
X1511283Y1328300D01*
X1508841Y1329312D01*
X1506220Y1329657D01*
D02*
G37*
G36*
X1238250Y1315629D02*
Y1308100D01*
X1245779D01*
X1245641Y1309151D01*
X1244745Y1311313D01*
X1243320Y1313170D01*
X1241463Y1314595D01*
X1239301Y1315491D01*
X1238250Y1315629D01*
D02*
G37*
G36*
X1235710D02*
X1234659Y1315491D01*
X1232497Y1314595D01*
X1230640Y1313170D01*
X1229215Y1311313D01*
X1228319Y1309151D01*
X1228180Y1308100D01*
X1235710D01*
Y1315629D01*
D02*
G37*
G36*
X1287780Y1309279D02*
Y1301750D01*
X1295309D01*
X1295171Y1302801D01*
X1294275Y1304963D01*
X1292850Y1306820D01*
X1290993Y1308245D01*
X1288831Y1309141D01*
X1287780Y1309279D01*
D02*
G37*
G36*
X1285240D02*
X1284189Y1309141D01*
X1282027Y1308245D01*
X1280170Y1306820D01*
X1278745Y1304963D01*
X1277849Y1302801D01*
X1277710Y1301750D01*
X1285240D01*
Y1309279D01*
D02*
G37*
G36*
X1245779Y1305560D02*
X1238250D01*
Y1298031D01*
X1239301Y1298169D01*
X1241463Y1299065D01*
X1243320Y1300490D01*
X1244745Y1302347D01*
X1245641Y1304509D01*
X1245779Y1305560D01*
D02*
G37*
G36*
X1235710D02*
X1228180D01*
X1228319Y1304509D01*
X1229215Y1302347D01*
X1230640Y1300490D01*
X1232497Y1299065D01*
X1234659Y1298169D01*
X1235710Y1298031D01*
Y1305560D01*
D02*
G37*
G36*
X1516260Y1304170D02*
X1507490D01*
Y1295400D01*
X1516260D01*
Y1304170D01*
D02*
G37*
G36*
X1479550Y1304089D02*
Y1295400D01*
X1488239D01*
X1488062Y1296751D01*
X1487050Y1299193D01*
X1485441Y1301291D01*
X1483343Y1302900D01*
X1480901Y1303912D01*
X1479550Y1304089D01*
D02*
G37*
G36*
X1477010D02*
X1475659Y1303912D01*
X1473217Y1302900D01*
X1471119Y1301291D01*
X1469510Y1299193D01*
X1468498Y1296751D01*
X1468321Y1295400D01*
X1477010D01*
Y1304089D01*
D02*
G37*
G36*
X1504950Y1304170D02*
X1496180D01*
Y1295400D01*
X1504950D01*
Y1304170D01*
D02*
G37*
G36*
X1295309Y1299210D02*
X1287780D01*
Y1291680D01*
X1288831Y1291819D01*
X1290993Y1292715D01*
X1292850Y1294140D01*
X1294275Y1295997D01*
X1295171Y1298159D01*
X1295309Y1299210D01*
D02*
G37*
G36*
X1285240D02*
X1277710D01*
X1277849Y1298159D01*
X1278745Y1295997D01*
X1280170Y1294140D01*
X1282027Y1292715D01*
X1284189Y1291819D01*
X1285240Y1291680D01*
Y1299210D01*
D02*
G37*
G36*
X1587500Y1305637D02*
X1585179Y1305331D01*
X1583017Y1304435D01*
X1581160Y1303010D01*
X1579735Y1301153D01*
X1578839Y1298991D01*
X1578533Y1296670D01*
X1578839Y1294349D01*
X1579306Y1293220D01*
X1559728Y1273642D01*
X1559001Y1272554D01*
X1558746Y1271270D01*
Y1177410D01*
X1523268Y1141932D01*
X1521241Y1142771D01*
X1518920Y1143077D01*
X1516599Y1142771D01*
X1514437Y1141875D01*
X1512580Y1140450D01*
X1511155Y1138593D01*
X1510259Y1136431D01*
X1509953Y1134110D01*
X1510259Y1131789D01*
X1511155Y1129627D01*
X1511682Y1128940D01*
X1510965Y1127788D01*
X1510780Y1127824D01*
X1494675D01*
X1494592Y1129094D01*
X1495841Y1129259D01*
X1498003Y1130155D01*
X1499860Y1131580D01*
X1501285Y1133437D01*
X1502181Y1135599D01*
X1502319Y1136650D01*
X1484720D01*
X1484859Y1135599D01*
X1485755Y1133437D01*
X1487180Y1131580D01*
X1489037Y1130155D01*
X1491199Y1129259D01*
X1492448Y1129094D01*
X1492365Y1127824D01*
X1485836D01*
X1475909Y1137752D01*
X1474821Y1138479D01*
X1473537Y1138735D01*
X1470003D01*
X1469535Y1139863D01*
X1468110Y1141720D01*
X1466253Y1143145D01*
X1464091Y1144041D01*
X1461770Y1144347D01*
X1459449Y1144041D01*
X1458320Y1143574D01*
X1407975Y1193920D01*
Y1203347D01*
X1409103Y1203815D01*
X1410960Y1205240D01*
X1412385Y1207097D01*
X1413281Y1209259D01*
X1413587Y1211580D01*
X1413281Y1213901D01*
X1412385Y1216063D01*
X1410960Y1217920D01*
X1409103Y1219345D01*
X1406941Y1220241D01*
X1406705Y1220272D01*
Y1226820D01*
X1406449Y1228104D01*
X1405722Y1229192D01*
X1401912Y1233002D01*
X1400824Y1233729D01*
X1399540Y1233985D01*
X1306949D01*
X1306375Y1234559D01*
Y1238907D01*
X1307503Y1239375D01*
X1309360Y1240800D01*
X1310785Y1242657D01*
X1311681Y1244819D01*
X1311987Y1247140D01*
X1311681Y1249461D01*
X1310785Y1251623D01*
X1309360Y1253480D01*
X1307503Y1254905D01*
X1305341Y1255801D01*
X1303020Y1256107D01*
X1300699Y1255801D01*
X1298537Y1254905D01*
X1296680Y1253480D01*
X1295255Y1251623D01*
X1294359Y1249461D01*
X1294053Y1247140D01*
X1294359Y1244819D01*
X1295255Y1242657D01*
X1296680Y1240800D01*
X1298537Y1239375D01*
X1299666Y1238907D01*
Y1233170D01*
X1299921Y1231886D01*
X1300648Y1230798D01*
X1303188Y1228258D01*
X1304276Y1227531D01*
X1305560Y1227275D01*
X1398150D01*
X1399996Y1225431D01*
Y1219237D01*
X1398280Y1217920D01*
X1396855Y1216063D01*
X1395959Y1213901D01*
X1395653Y1211580D01*
X1395959Y1209259D01*
X1396855Y1207097D01*
X1398280Y1205240D01*
X1400137Y1203815D01*
X1401266Y1203347D01*
Y1192530D01*
X1401521Y1191246D01*
X1402248Y1190158D01*
X1453576Y1138830D01*
X1453109Y1137701D01*
X1452803Y1135380D01*
X1453109Y1133059D01*
X1454005Y1130897D01*
X1455430Y1129040D01*
X1457287Y1127615D01*
X1459449Y1126719D01*
X1461770Y1126413D01*
X1464091Y1126719D01*
X1466253Y1127615D01*
X1468110Y1129040D01*
X1469535Y1130897D01*
X1470003Y1132026D01*
X1472148D01*
X1482075Y1122098D01*
X1482228Y1121996D01*
X1482087Y1120563D01*
X1481417Y1120285D01*
X1479560Y1118860D01*
X1478135Y1117003D01*
X1477667Y1115874D01*
X1471930D01*
X1470646Y1115619D01*
X1469558Y1114892D01*
X1466863Y1112197D01*
X1466253Y1112665D01*
X1464091Y1113561D01*
X1461770Y1113867D01*
X1459449Y1113561D01*
X1457287Y1112665D01*
X1455430Y1111240D01*
X1454005Y1109383D01*
X1453109Y1107221D01*
X1452803Y1104900D01*
X1453109Y1102579D01*
X1454005Y1100417D01*
X1455430Y1098560D01*
X1456036Y1098094D01*
X1455605Y1096824D01*
X1453000D01*
X1450172Y1099652D01*
X1449084Y1100379D01*
X1447800Y1100635D01*
X1442840D01*
X1438742Y1104732D01*
X1437654Y1105459D01*
X1436370Y1105714D01*
X1420142D01*
X1418719Y1107569D01*
X1416862Y1108994D01*
X1414700Y1109890D01*
X1412379Y1110195D01*
X1410058Y1109890D01*
X1407895Y1108994D01*
X1406038Y1107569D01*
X1404613Y1105712D01*
X1403717Y1103549D01*
X1403412Y1101229D01*
X1403717Y1098908D01*
X1404613Y1096745D01*
X1406038Y1094888D01*
X1407895Y1093463D01*
X1410058Y1092568D01*
X1412379Y1092262D01*
X1414700Y1092568D01*
X1416862Y1093463D01*
X1417972Y1094315D01*
X1419015Y1093514D01*
X1418967Y1093399D01*
X1418661Y1091078D01*
X1418967Y1088757D01*
X1419863Y1086595D01*
X1421288Y1084738D01*
X1423145Y1083313D01*
X1425307Y1082417D01*
X1427628Y1082112D01*
X1429949Y1082417D01*
X1432112Y1083313D01*
X1433053Y1084035D01*
X1433853Y1083501D01*
X1435137Y1083246D01*
X1437442D01*
X1438004Y1082106D01*
X1437495Y1081443D01*
X1436599Y1079281D01*
X1436293Y1076960D01*
X1436599Y1074639D01*
X1437495Y1072477D01*
X1438920Y1070620D01*
X1440777Y1069195D01*
X1442939Y1068299D01*
X1445260Y1067993D01*
X1447581Y1068299D01*
X1449743Y1069195D01*
X1451600Y1070620D01*
X1452917Y1072336D01*
X1485900D01*
X1486232Y1072402D01*
X1486857Y1071231D01*
X1480701Y1065074D01*
X1475083D01*
X1474615Y1066203D01*
X1473190Y1068060D01*
X1471333Y1069485D01*
X1469171Y1070381D01*
X1466850Y1070687D01*
X1464529Y1070381D01*
X1462367Y1069485D01*
X1460510Y1068060D01*
X1459085Y1066203D01*
X1458189Y1064041D01*
X1457883Y1061720D01*
X1458189Y1059399D01*
X1459085Y1057237D01*
X1460510Y1055380D01*
X1462367Y1053955D01*
X1464529Y1053059D01*
X1466850Y1052753D01*
X1469171Y1053059D01*
X1471333Y1053955D01*
X1473190Y1055380D01*
X1474615Y1057237D01*
X1475083Y1058365D01*
X1482090D01*
X1483374Y1058621D01*
X1484462Y1059348D01*
X1501259Y1076145D01*
X1548166D01*
X1548792Y1074875D01*
X1547985Y1073823D01*
X1547517Y1072694D01*
X1510030D01*
X1508746Y1072439D01*
X1507658Y1071712D01*
X1498240Y1062294D01*
X1497111Y1062761D01*
X1494790Y1063067D01*
X1492469Y1062761D01*
X1490307Y1061865D01*
X1488450Y1060440D01*
X1487025Y1058583D01*
X1486129Y1056421D01*
X1485823Y1054100D01*
X1486129Y1051779D01*
X1487025Y1049617D01*
X1488450Y1047760D01*
X1488592Y1047651D01*
X1488089Y1046436D01*
X1487170Y1046557D01*
X1484849Y1046251D01*
X1482687Y1045355D01*
X1480830Y1043930D01*
X1479405Y1042073D01*
X1478509Y1039911D01*
X1478203Y1037590D01*
X1478509Y1035269D01*
X1479405Y1033107D01*
X1480830Y1031250D01*
X1482687Y1029825D01*
X1484849Y1028929D01*
X1487170Y1028623D01*
X1489491Y1028929D01*
X1490620Y1029396D01*
X1496516Y1023501D01*
Y919600D01*
X1390169Y813253D01*
X1389442Y812165D01*
X1389187Y810881D01*
Y800419D01*
X1388127Y799980D01*
X1386029Y798371D01*
X1384420Y796273D01*
X1383408Y793831D01*
X1383063Y791210D01*
X1383408Y788589D01*
X1384420Y786147D01*
X1386029Y784049D01*
X1388127Y782440D01*
X1390569Y781428D01*
X1393190Y781083D01*
X1395811Y781428D01*
X1398253Y782440D01*
X1400351Y784049D01*
X1401960Y786147D01*
X1402972Y788589D01*
X1403317Y791210D01*
X1402972Y793831D01*
X1401960Y796273D01*
X1400351Y798371D01*
X1398253Y799980D01*
X1395896Y800956D01*
Y809492D01*
X1502242Y915838D01*
X1502969Y916926D01*
X1503224Y918210D01*
Y1024890D01*
X1502969Y1026174D01*
X1502242Y1027262D01*
X1495364Y1034140D01*
X1495831Y1035269D01*
X1496137Y1037590D01*
X1495831Y1039911D01*
X1494935Y1042073D01*
X1493510Y1043930D01*
X1493368Y1044040D01*
X1493871Y1045254D01*
X1494790Y1045133D01*
X1497111Y1045439D01*
X1499273Y1046335D01*
X1501130Y1047760D01*
X1502555Y1049617D01*
X1503451Y1051779D01*
X1503757Y1054100D01*
X1503451Y1056421D01*
X1502984Y1057550D01*
X1511420Y1065985D01*
X1547517D01*
X1547985Y1064857D01*
X1549410Y1063000D01*
X1551267Y1061575D01*
X1553429Y1060679D01*
X1555750Y1060373D01*
X1558071Y1060679D01*
X1560233Y1061575D01*
X1562090Y1063000D01*
X1563515Y1064857D01*
X1564411Y1067019D01*
X1564717Y1069340D01*
X1564411Y1071661D01*
X1563515Y1073823D01*
X1562708Y1074875D01*
X1563334Y1076145D01*
X1570871D01*
X1573985Y1073030D01*
Y1044060D01*
X1573698Y1043772D01*
X1572971Y1042684D01*
X1572715Y1041400D01*
Y1018540D01*
X1572971Y1017256D01*
X1573698Y1016168D01*
X1575026Y1014840D01*
Y949670D01*
X1575281Y948386D01*
X1575863Y947515D01*
X1575708Y946676D01*
X1574417Y946132D01*
X1574203Y946295D01*
X1572041Y947191D01*
X1570990Y947329D01*
Y938530D01*
Y929731D01*
X1572041Y929869D01*
X1574203Y930765D01*
X1574866Y931273D01*
X1576006Y930712D01*
Y883520D01*
X1559440Y866954D01*
X1468120D01*
X1466836Y866699D01*
X1465748Y865972D01*
X1416218Y816442D01*
X1415491Y815354D01*
X1415235Y814070D01*
Y800688D01*
X1413527Y799980D01*
X1411429Y798371D01*
X1409820Y796273D01*
X1408808Y793831D01*
X1408463Y791210D01*
X1408808Y788589D01*
X1409820Y786147D01*
X1411429Y784049D01*
X1413527Y782440D01*
X1415969Y781428D01*
X1418590Y781083D01*
X1421211Y781428D01*
X1423653Y782440D01*
X1425751Y784049D01*
X1427360Y786147D01*
X1428372Y788589D01*
X1428717Y791210D01*
X1428372Y793831D01*
X1427360Y796273D01*
X1425751Y798371D01*
X1423653Y799980D01*
X1421944Y800688D01*
Y812681D01*
X1469509Y860246D01*
X1560830D01*
X1561161Y860312D01*
X1561787Y859141D01*
X1557779Y855133D01*
X1508977D01*
X1508774Y855269D01*
X1507490Y855525D01*
X1506206Y855269D01*
X1505118Y854542D01*
X1449904Y799327D01*
X1449053Y799980D01*
X1446611Y800992D01*
X1443990Y801337D01*
X1441369Y800992D01*
X1438927Y799980D01*
X1436829Y798371D01*
X1435220Y796273D01*
X1434208Y793831D01*
X1433863Y791210D01*
X1434208Y788589D01*
X1435220Y786147D01*
X1436829Y784049D01*
X1438927Y782440D01*
X1441369Y781428D01*
X1443990Y781083D01*
X1446611Y781428D01*
X1449053Y782440D01*
X1451151Y784049D01*
X1452760Y786147D01*
X1453772Y788589D01*
X1454117Y791210D01*
X1453786Y793722D01*
X1508488Y848424D01*
X1520320D01*
X1520706Y847154D01*
X1520358Y846922D01*
X1473720Y800284D01*
X1472011Y800992D01*
X1469390Y801337D01*
X1466769Y800992D01*
X1464327Y799980D01*
X1462229Y798371D01*
X1460620Y796273D01*
X1459608Y793831D01*
X1459263Y791210D01*
X1459608Y788589D01*
X1460620Y786147D01*
X1462229Y784049D01*
X1464327Y782440D01*
X1466769Y781428D01*
X1469390Y781083D01*
X1472011Y781428D01*
X1474453Y782440D01*
X1476551Y784049D01*
X1478160Y786147D01*
X1479172Y788589D01*
X1479517Y791210D01*
X1479172Y793831D01*
X1478464Y795540D01*
X1524120Y841196D01*
X1538372D01*
X1538858Y840022D01*
X1499120Y800284D01*
X1497411Y800992D01*
X1494790Y801337D01*
X1492169Y800992D01*
X1489727Y799980D01*
X1487629Y798371D01*
X1486020Y796273D01*
X1485008Y793831D01*
X1484663Y791210D01*
X1485008Y788589D01*
X1486020Y786147D01*
X1487629Y784049D01*
X1489727Y782440D01*
X1492169Y781428D01*
X1494790Y781083D01*
X1497411Y781428D01*
X1499853Y782440D01*
X1501951Y784049D01*
X1503560Y786147D01*
X1504572Y788589D01*
X1504917Y791210D01*
X1504572Y793831D01*
X1503864Y795540D01*
X1544440Y836115D01*
X1576070D01*
X1577354Y836371D01*
X1578442Y837098D01*
X1614002Y872658D01*
X1614729Y873746D01*
X1614984Y875030D01*
Y915670D01*
X1614729Y916954D01*
X1614002Y918042D01*
X1613714Y918329D01*
Y1043940D01*
X1613459Y1045224D01*
X1612732Y1046312D01*
X1597204Y1061840D01*
Y1089660D01*
X1596949Y1090944D01*
X1596222Y1092032D01*
X1584792Y1103462D01*
X1583704Y1104189D01*
X1582420Y1104445D01*
X1492065D01*
X1491634Y1105714D01*
X1492240Y1106180D01*
X1493665Y1108037D01*
X1494561Y1110199D01*
X1494867Y1112520D01*
X1494561Y1114841D01*
X1493665Y1117003D01*
X1492240Y1118860D01*
X1490957Y1119846D01*
X1491388Y1121115D01*
X1509391D01*
X1511996Y1118510D01*
X1511529Y1117381D01*
X1511223Y1115060D01*
X1511529Y1112739D01*
X1512425Y1110577D01*
X1513850Y1108720D01*
X1515707Y1107295D01*
X1517869Y1106399D01*
X1520190Y1106093D01*
X1522511Y1106399D01*
X1524673Y1107295D01*
X1526530Y1108720D01*
X1527955Y1110577D01*
X1528423Y1111705D01*
X1652151D01*
X1665426Y1098430D01*
Y1055407D01*
X1663710Y1054090D01*
X1662285Y1052233D01*
X1661389Y1050071D01*
X1661083Y1047750D01*
X1661389Y1045429D01*
X1662285Y1043267D01*
X1663710Y1041410D01*
X1665567Y1039985D01*
X1667729Y1039089D01*
X1670050Y1038783D01*
X1672371Y1039089D01*
X1674533Y1039985D01*
X1676390Y1041410D01*
X1677815Y1043267D01*
X1678711Y1045429D01*
X1679017Y1047750D01*
X1678711Y1050071D01*
X1677815Y1052233D01*
X1676390Y1054090D01*
X1674533Y1055515D01*
X1672371Y1056411D01*
X1672135Y1056442D01*
Y1099820D01*
X1671879Y1101104D01*
X1671152Y1102192D01*
X1655912Y1117432D01*
X1654824Y1118159D01*
X1653540Y1118415D01*
X1528423D01*
X1527955Y1119543D01*
X1526530Y1121400D01*
X1524673Y1122825D01*
X1522511Y1123721D01*
X1520190Y1124027D01*
X1517869Y1123721D01*
X1516740Y1123254D01*
X1515439Y1124555D01*
X1516159Y1125631D01*
X1516599Y1125449D01*
X1518920Y1125143D01*
X1521241Y1125449D01*
X1523403Y1126345D01*
X1525260Y1127770D01*
X1526685Y1129627D01*
X1527581Y1131789D01*
X1527887Y1134110D01*
X1527581Y1136431D01*
X1527486Y1136662D01*
X1564472Y1173648D01*
X1565199Y1174736D01*
X1565455Y1176020D01*
Y1269881D01*
X1584050Y1288476D01*
X1585179Y1288009D01*
X1587500Y1287703D01*
X1589821Y1288009D01*
X1591983Y1288905D01*
X1593840Y1290330D01*
X1595265Y1292187D01*
X1596161Y1294349D01*
X1596467Y1296670D01*
X1596161Y1298991D01*
X1595265Y1301153D01*
X1593840Y1303010D01*
X1591983Y1304435D01*
X1589821Y1305331D01*
X1587500Y1305637D01*
D02*
G37*
G36*
X1626160Y1294649D02*
X1624194Y1294258D01*
X1622526Y1293144D01*
X1621413Y1291476D01*
X1621021Y1289510D01*
X1621413Y1287543D01*
X1622526Y1285876D01*
X1624194Y1284762D01*
X1626160Y1284371D01*
X1628127Y1284762D01*
X1629794Y1285876D01*
X1630908Y1287543D01*
X1631299Y1289510D01*
X1630908Y1291476D01*
X1629794Y1293144D01*
X1628127Y1294258D01*
X1626160Y1294649D01*
D02*
G37*
G36*
X1488239Y1292860D02*
X1479550D01*
Y1284171D01*
X1480901Y1284348D01*
X1483343Y1285360D01*
X1485441Y1286969D01*
X1487050Y1289067D01*
X1488062Y1291509D01*
X1488239Y1292860D01*
D02*
G37*
G36*
X1477010D02*
X1468321D01*
X1468498Y1291509D01*
X1469510Y1289067D01*
X1471119Y1286969D01*
X1473217Y1285360D01*
X1475659Y1284348D01*
X1477010Y1284171D01*
Y1292860D01*
D02*
G37*
G36*
X1516260D02*
X1507490D01*
Y1284090D01*
X1516260D01*
Y1292860D01*
D02*
G37*
G36*
X1504950D02*
X1496180D01*
Y1284090D01*
X1504950D01*
Y1292860D01*
D02*
G37*
G36*
X1403350Y1274989D02*
Y1267460D01*
X1410880D01*
X1410741Y1268511D01*
X1409845Y1270673D01*
X1408420Y1272530D01*
X1406563Y1273955D01*
X1404401Y1274851D01*
X1403350Y1274989D01*
D02*
G37*
G36*
X1400810D02*
X1399759Y1274851D01*
X1397597Y1273955D01*
X1395740Y1272530D01*
X1394315Y1270673D01*
X1393419Y1268511D01*
X1393280Y1267460D01*
X1400810D01*
Y1274989D01*
D02*
G37*
G36*
X1656160Y1275149D02*
X1654194Y1274758D01*
X1652526Y1273644D01*
X1651412Y1271976D01*
X1651021Y1270010D01*
X1651412Y1268044D01*
X1652526Y1266376D01*
X1654194Y1265262D01*
X1656160Y1264871D01*
X1658127Y1265262D01*
X1659794Y1266376D01*
X1660908Y1268044D01*
X1661299Y1270010D01*
X1660908Y1271976D01*
X1659794Y1273644D01*
X1658127Y1274758D01*
X1656160Y1275149D01*
D02*
G37*
G36*
X1410880Y1264920D02*
X1403350D01*
Y1257391D01*
X1404401Y1257529D01*
X1406563Y1258425D01*
X1408420Y1259850D01*
X1409845Y1261707D01*
X1410741Y1263869D01*
X1410880Y1264920D01*
D02*
G37*
G36*
X1400810D02*
X1393280D01*
X1393419Y1263869D01*
X1394315Y1261707D01*
X1395740Y1259850D01*
X1397597Y1258425D01*
X1399759Y1257529D01*
X1400810Y1257391D01*
Y1264920D01*
D02*
G37*
G36*
X1628140Y1249589D02*
Y1242060D01*
X1635670D01*
X1635531Y1243111D01*
X1634635Y1245273D01*
X1633210Y1247130D01*
X1631353Y1248555D01*
X1629191Y1249451D01*
X1628140Y1249589D01*
D02*
G37*
G36*
X1625600D02*
X1624549Y1249451D01*
X1622387Y1248555D01*
X1620530Y1247130D01*
X1619105Y1245273D01*
X1618209Y1243111D01*
X1618071Y1242060D01*
X1625600D01*
Y1249589D01*
D02*
G37*
G36*
X1635670Y1239520D02*
X1628140D01*
Y1231991D01*
X1629191Y1232129D01*
X1631353Y1233025D01*
X1633210Y1234450D01*
X1634635Y1236307D01*
X1635531Y1238469D01*
X1635670Y1239520D01*
D02*
G37*
G36*
X1625600D02*
X1618071D01*
X1618209Y1238469D01*
X1619105Y1236307D01*
X1620530Y1234450D01*
X1622387Y1233025D01*
X1624549Y1232129D01*
X1625600Y1231991D01*
Y1239520D01*
D02*
G37*
G36*
X1163320Y1315264D02*
X974090D01*
X972806Y1315009D01*
X971718Y1314282D01*
X947588Y1290152D01*
X946861Y1289064D01*
X946606Y1287780D01*
Y946150D01*
X946861Y944866D01*
X947588Y943778D01*
X967908Y923458D01*
X968996Y922731D01*
X970280Y922476D01*
X1031240D01*
X1032524Y922731D01*
X1033612Y923458D01*
X1047582Y937428D01*
X1048309Y938516D01*
X1048565Y939800D01*
Y974090D01*
X1048309Y975374D01*
X1047582Y976462D01*
X1042215Y981830D01*
Y987192D01*
X1043388Y987678D01*
X1046648Y984418D01*
X1046790Y984323D01*
X1046885Y984181D01*
X1073318Y957748D01*
X1074406Y957021D01*
X1075690Y956766D01*
X1204145D01*
X1204576Y955496D01*
X1203970Y955030D01*
X1202545Y953173D01*
X1201649Y951011D01*
X1201510Y949960D01*
X1219109D01*
X1218971Y951011D01*
X1218075Y953173D01*
X1216650Y955030D01*
X1216044Y955496D01*
X1216475Y956766D01*
X1238250D01*
X1239534Y957021D01*
X1240622Y957748D01*
X1257132Y974258D01*
X1257859Y975346D01*
X1258114Y976630D01*
Y978557D01*
X1259243Y979025D01*
X1261100Y980450D01*
X1262525Y982307D01*
X1263421Y984469D01*
X1263727Y986790D01*
X1263421Y989111D01*
X1262525Y991273D01*
X1261100Y993130D01*
X1259243Y994555D01*
X1257081Y995451D01*
X1254760Y995757D01*
X1252439Y995451D01*
X1250277Y994555D01*
X1248420Y993130D01*
X1246995Y991273D01*
X1246099Y989111D01*
X1245793Y986790D01*
X1246099Y984469D01*
X1246995Y982307D01*
X1248420Y980450D01*
X1250277Y979025D01*
X1250521Y978923D01*
X1250814Y977428D01*
X1236861Y963475D01*
X1077079D01*
X1051629Y988925D01*
X1051487Y989020D01*
X1051392Y989162D01*
X1047294Y993260D01*
Y1036320D01*
X1047039Y1037604D01*
X1046312Y1038692D01*
X1034594Y1050409D01*
Y1060450D01*
X1034339Y1061734D01*
X1033612Y1062822D01*
X1033311Y1063123D01*
X1033845Y1064385D01*
X1033994Y1064382D01*
X1049475Y1048901D01*
Y1010920D01*
X1049731Y1009636D01*
X1050458Y1008548D01*
X1064715Y994290D01*
Y984250D01*
X1064971Y982966D01*
X1065698Y981878D01*
X1078398Y969178D01*
X1079486Y968451D01*
X1080770Y968195D01*
X1214120D01*
X1215404Y968451D01*
X1216492Y969178D01*
X1219032Y971718D01*
X1219759Y972806D01*
X1220014Y974090D01*
Y978557D01*
X1221143Y979025D01*
X1223000Y980450D01*
X1224425Y982307D01*
X1225321Y984469D01*
X1225627Y986790D01*
X1225321Y989111D01*
X1224425Y991273D01*
X1223000Y993130D01*
X1221143Y994555D01*
X1218981Y995451D01*
X1216660Y995757D01*
X1214339Y995451D01*
X1212177Y994555D01*
X1210320Y993130D01*
X1208895Y991273D01*
X1207999Y989111D01*
X1207693Y986790D01*
X1207999Y984469D01*
X1208895Y982307D01*
X1210320Y980450D01*
X1212177Y979025D01*
X1213306Y978557D01*
Y975480D01*
X1212730Y974904D01*
X1082160D01*
X1071424Y985639D01*
Y995680D01*
X1071169Y996964D01*
X1070442Y998052D01*
X1056184Y1012309D01*
Y1050290D01*
X1055929Y1051574D01*
X1055202Y1052662D01*
X1037422Y1070442D01*
X1037134Y1070634D01*
Y1074822D01*
X1038308Y1075308D01*
X1060906Y1052710D01*
Y1019810D01*
X1061161Y1018526D01*
X1061888Y1017438D01*
X1074875Y1004451D01*
Y994019D01*
X1075131Y992735D01*
X1075858Y991647D01*
X1076737Y990768D01*
X1077825Y990041D01*
X1079109Y989786D01*
X1084461D01*
X1089828Y984418D01*
X1090916Y983691D01*
X1092200Y983436D01*
X1186051D01*
X1187014Y983627D01*
X1188047Y982835D01*
X1190209Y981939D01*
X1192530Y981633D01*
X1194851Y981939D01*
X1197013Y982835D01*
X1198870Y984260D01*
X1200295Y986117D01*
X1201191Y988279D01*
X1201497Y990600D01*
X1201191Y992921D01*
X1200295Y995083D01*
X1198870Y996940D01*
X1197013Y998365D01*
X1194851Y999261D01*
X1192530Y999567D01*
X1190209Y999261D01*
X1188047Y998365D01*
X1186190Y996940D01*
X1184765Y995083D01*
X1183869Y992921D01*
X1183563Y990600D01*
X1183164Y990145D01*
X1174927D01*
X1174675Y991414D01*
X1175423Y991725D01*
X1177280Y993150D01*
X1178705Y995007D01*
X1179601Y997169D01*
X1179907Y999490D01*
X1179601Y1001811D01*
X1178705Y1003973D01*
X1177280Y1005830D01*
X1175423Y1007255D01*
X1173261Y1008151D01*
X1170940Y1008457D01*
X1168619Y1008151D01*
X1166457Y1007255D01*
X1164600Y1005830D01*
X1163175Y1003973D01*
X1162707Y1002844D01*
X1099939D01*
X1084125Y1018660D01*
Y1052830D01*
X1083869Y1054114D01*
X1083142Y1055202D01*
X1056184Y1082160D01*
Y1123950D01*
X1055929Y1125234D01*
X1055202Y1126322D01*
X1032342Y1149182D01*
X1031254Y1149909D01*
X1029970Y1150164D01*
X1020398D01*
X1019690Y1151873D01*
X1018081Y1153971D01*
X1015983Y1155580D01*
X1013541Y1156592D01*
X1010920Y1156937D01*
X1008299Y1156592D01*
X1005857Y1155580D01*
X1003759Y1153971D01*
X1002150Y1151873D01*
X1001138Y1149431D01*
X1000793Y1146810D01*
X1001138Y1144189D01*
X1002150Y1141747D01*
X1003759Y1139649D01*
X1005857Y1138040D01*
X1008299Y1137028D01*
X1010920Y1136683D01*
X1013541Y1137028D01*
X1015983Y1138040D01*
X1018081Y1139649D01*
X1019690Y1141747D01*
X1020398Y1143456D01*
X1028580D01*
X1049475Y1122561D01*
Y1080770D01*
X1049731Y1079486D01*
X1050458Y1078398D01*
X1077415Y1051441D01*
Y1017270D01*
X1077671Y1015986D01*
X1078398Y1014898D01*
X1096178Y997118D01*
X1097266Y996391D01*
X1098550Y996135D01*
X1162707D01*
X1163175Y995007D01*
X1164600Y993150D01*
X1166457Y991725D01*
X1167205Y991414D01*
X1166953Y990145D01*
X1093589D01*
X1088222Y995512D01*
X1087134Y996239D01*
X1085850Y996495D01*
X1081584D01*
Y1005840D01*
X1081329Y1007124D01*
X1080602Y1008212D01*
X1067615Y1021199D01*
Y1054100D01*
X1067359Y1055384D01*
X1066632Y1056472D01*
X1042215Y1080890D01*
Y1111250D01*
X1041959Y1112534D01*
X1041232Y1113622D01*
X1033612Y1121242D01*
X1032524Y1121969D01*
X1031240Y1122225D01*
X1020939D01*
X1020702Y1124031D01*
X1019690Y1126473D01*
X1018081Y1128571D01*
X1015983Y1130180D01*
X1013541Y1131192D01*
X1010920Y1131537D01*
X1008299Y1131192D01*
X1005857Y1130180D01*
X1003759Y1128571D01*
X1002150Y1126473D01*
X1001138Y1124031D01*
X1000793Y1121410D01*
X1001138Y1118789D01*
X1002150Y1116347D01*
X1003759Y1114249D01*
X1005857Y1112640D01*
X1008299Y1111628D01*
X1010920Y1111283D01*
X1013541Y1111628D01*
X1015983Y1112640D01*
X1018081Y1114249D01*
X1019052Y1115516D01*
X1029850D01*
X1035506Y1109861D01*
Y1081638D01*
X1034332Y1081152D01*
X1030785Y1084699D01*
Y1089660D01*
X1030529Y1090944D01*
X1029802Y1092032D01*
X1023452Y1098382D01*
X1022364Y1099109D01*
X1021080Y1099364D01*
X1020398D01*
X1019690Y1101073D01*
X1018081Y1103171D01*
X1015983Y1104780D01*
X1013541Y1105792D01*
X1010920Y1106137D01*
X1008299Y1105792D01*
X1005857Y1104780D01*
X1003759Y1103171D01*
X1002150Y1101073D01*
X1001138Y1098631D01*
X1000793Y1096010D01*
X1001138Y1093389D01*
X1002150Y1090947D01*
X1003759Y1088849D01*
X1005857Y1087240D01*
X1008299Y1086228D01*
X1010920Y1085883D01*
X1013541Y1086228D01*
X1015983Y1087240D01*
X1018081Y1088849D01*
X1019652Y1090898D01*
X1019885Y1091126D01*
X1020999Y1091347D01*
X1024075Y1088270D01*
Y1083310D01*
X1024331Y1082026D01*
X1025058Y1080938D01*
X1030425Y1075571D01*
Y1068949D01*
X1030681Y1067665D01*
X1030914Y1067316D01*
X1029928Y1066506D01*
X1023452Y1072982D01*
X1022364Y1073709D01*
X1021080Y1073964D01*
X1020398D01*
X1019690Y1075673D01*
X1018081Y1077771D01*
X1015983Y1079380D01*
X1013541Y1080392D01*
X1010920Y1080737D01*
X1008299Y1080392D01*
X1005857Y1079380D01*
X1003759Y1077771D01*
X1002150Y1075673D01*
X1001138Y1073231D01*
X1000793Y1070610D01*
X1001138Y1067989D01*
X1002150Y1065547D01*
X1003759Y1063449D01*
X1005857Y1061840D01*
X1008299Y1060828D01*
X1010920Y1060483D01*
X1013541Y1060828D01*
X1015983Y1061840D01*
X1018081Y1063449D01*
X1019652Y1065498D01*
X1019885Y1065726D01*
X1020999Y1065947D01*
X1027886Y1059061D01*
Y1049020D01*
X1028141Y1047736D01*
X1028868Y1046648D01*
X1040585Y1034930D01*
Y1013058D01*
X1039412Y1012572D01*
X1030785Y1021199D01*
Y1037590D01*
X1030529Y1038874D01*
X1029802Y1039962D01*
X1023042Y1046722D01*
X1021954Y1047449D01*
X1020720Y1047695D01*
X1020702Y1047831D01*
X1019690Y1050273D01*
X1018081Y1052371D01*
X1015983Y1053980D01*
X1013541Y1054992D01*
X1010920Y1055337D01*
X1008299Y1054992D01*
X1005857Y1053980D01*
X1003759Y1052371D01*
X1002150Y1050273D01*
X1001138Y1047831D01*
X1000793Y1045210D01*
X1001138Y1042589D01*
X1002150Y1040147D01*
X1003759Y1038049D01*
X1005857Y1036440D01*
X1008299Y1035428D01*
X1010920Y1035083D01*
X1013541Y1035428D01*
X1015983Y1036440D01*
X1018081Y1038049D01*
X1019101Y1039379D01*
X1020741Y1039535D01*
X1024075Y1036200D01*
Y1019810D01*
X1024331Y1018526D01*
X1025058Y1017438D01*
X1035506Y1006991D01*
Y1005574D01*
X1034236Y1005048D01*
X1031072Y1008212D01*
X1029984Y1008939D01*
X1028700Y1009194D01*
X1026280D01*
X1019994Y1015480D01*
X1020702Y1017189D01*
X1021047Y1019810D01*
X1020702Y1022431D01*
X1019690Y1024873D01*
X1018081Y1026971D01*
X1015983Y1028580D01*
X1013541Y1029592D01*
X1010920Y1029937D01*
X1008299Y1029592D01*
X1005857Y1028580D01*
X1003759Y1026971D01*
X1002150Y1024873D01*
X1001138Y1022431D01*
X1000793Y1019810D01*
X1001138Y1017189D01*
X1002150Y1014747D01*
X1003759Y1012649D01*
X1005857Y1011040D01*
X1008299Y1010028D01*
X1010920Y1009683D01*
X1013541Y1010028D01*
X1015250Y1010736D01*
X1022518Y1003468D01*
X1023606Y1002741D01*
X1024890Y1002486D01*
X1027310D01*
X1029156Y1000640D01*
Y988928D01*
X1027982Y988442D01*
X1025703Y990721D01*
X1024615Y991448D01*
X1023331Y991703D01*
X1021971D01*
X1020857Y992974D01*
X1021047Y994410D01*
X1020702Y997031D01*
X1019690Y999473D01*
X1018081Y1001571D01*
X1015983Y1003180D01*
X1013541Y1004192D01*
X1010920Y1004537D01*
X1008299Y1004192D01*
X1005857Y1003180D01*
X1003759Y1001571D01*
X1002150Y999473D01*
X1001138Y997031D01*
X1000793Y994410D01*
X1001138Y991789D01*
X1002150Y989347D01*
X1003759Y987249D01*
X1005857Y985640D01*
X1008299Y984628D01*
X1010920Y984283D01*
X1013541Y984628D01*
X1015983Y985640D01*
X1016354Y985925D01*
X1017364Y985250D01*
X1018648Y984995D01*
X1021635D01*
X1021988Y984630D01*
X1022409Y983918D01*
X1021791Y982994D01*
X1021535Y981710D01*
Y972936D01*
X1020266Y972684D01*
X1019690Y974073D01*
X1018081Y976171D01*
X1015983Y977780D01*
X1013541Y978792D01*
X1010920Y979137D01*
X1008299Y978792D01*
X1005857Y977780D01*
X1003759Y976171D01*
X1002150Y974073D01*
X1001442Y972365D01*
X994529D01*
X981255Y985639D01*
Y1221620D01*
X985639Y1226005D01*
X1062870D01*
X1120308Y1168568D01*
X1121396Y1167841D01*
X1122680Y1167586D01*
X1189990D01*
X1191274Y1167841D01*
X1192362Y1168568D01*
X1197729Y1173935D01*
X1204617D01*
X1205085Y1172807D01*
X1206510Y1170950D01*
X1208367Y1169525D01*
X1210529Y1168629D01*
X1212850Y1168323D01*
X1215171Y1168629D01*
X1217333Y1169525D01*
X1219190Y1170950D01*
X1220615Y1172807D01*
X1221511Y1174969D01*
X1221817Y1177290D01*
X1221511Y1179611D01*
X1220615Y1181773D01*
X1219190Y1183630D01*
X1217333Y1185055D01*
X1215171Y1185951D01*
X1212850Y1186257D01*
X1210529Y1185951D01*
X1208367Y1185055D01*
X1206510Y1183630D01*
X1205085Y1181773D01*
X1204617Y1180645D01*
X1196340D01*
X1195056Y1180389D01*
X1193968Y1179662D01*
X1188600Y1174295D01*
X1124070D01*
X1066632Y1231732D01*
X1065544Y1232459D01*
X1064260Y1232714D01*
X984250D01*
X982966Y1232459D01*
X981878Y1231732D01*
X975528Y1225382D01*
X973892Y1225219D01*
X973634Y1225434D01*
Y1247020D01*
X986909Y1260295D01*
X1113671D01*
X1176188Y1197778D01*
X1177276Y1197051D01*
X1178560Y1196796D01*
X1204617D01*
X1205085Y1195667D01*
X1206510Y1193810D01*
X1208367Y1192385D01*
X1210529Y1191489D01*
X1212850Y1191183D01*
X1215171Y1191489D01*
X1217333Y1192385D01*
X1219190Y1193810D01*
X1220615Y1195667D01*
X1221511Y1197829D01*
X1221817Y1200150D01*
X1221511Y1202471D01*
X1220615Y1204633D01*
X1219190Y1206490D01*
X1217333Y1207915D01*
X1215171Y1208811D01*
X1212850Y1209117D01*
X1210529Y1208811D01*
X1208367Y1207915D01*
X1206510Y1206490D01*
X1205085Y1204633D01*
X1204617Y1203504D01*
X1179949D01*
X1117432Y1266022D01*
X1116344Y1266749D01*
X1115060Y1267004D01*
X985520D01*
X984236Y1266749D01*
X983148Y1266022D01*
X967908Y1250782D01*
X967181Y1249694D01*
X966926Y1248410D01*
Y962660D01*
X967181Y961376D01*
X967908Y960288D01*
X983148Y945048D01*
X984236Y944321D01*
X985520Y944065D01*
X1018931D01*
X1020215Y944321D01*
X1021303Y945048D01*
X1022182Y945927D01*
X1022909Y947015D01*
X1023165Y948299D01*
Y949840D01*
X1027262Y953938D01*
X1028898Y954101D01*
X1029156Y953886D01*
Y946270D01*
X1023501Y940614D01*
X981830D01*
X964744Y957700D01*
Y1182370D01*
X964489Y1183654D01*
X964353Y1183857D01*
Y1263139D01*
X985639Y1284426D01*
X1149230D01*
X1207196Y1226460D01*
X1206729Y1225331D01*
X1206423Y1223010D01*
X1206729Y1220689D01*
X1207625Y1218527D01*
X1209050Y1216670D01*
X1210907Y1215245D01*
X1213069Y1214349D01*
X1215390Y1214043D01*
X1217711Y1214349D01*
X1219873Y1215245D01*
X1221730Y1216670D01*
X1223155Y1218527D01*
X1224051Y1220689D01*
X1224357Y1223010D01*
X1224051Y1225331D01*
X1223155Y1227493D01*
X1221730Y1229350D01*
X1219873Y1230775D01*
X1217711Y1231671D01*
X1215390Y1231977D01*
X1213069Y1231671D01*
X1211940Y1231204D01*
X1152992Y1290152D01*
X1151904Y1290879D01*
X1150620Y1291134D01*
X984250D01*
X982966Y1290879D01*
X981878Y1290152D01*
X959753Y1268027D01*
X959715Y1268019D01*
X958627Y1267292D01*
X957900Y1266204D01*
X957644Y1264920D01*
Y1182761D01*
X957900Y1181478D01*
X958036Y1181274D01*
Y956310D01*
X958291Y955026D01*
X959018Y953938D01*
X978068Y934888D01*
X979156Y934161D01*
X980440Y933905D01*
X1024890D01*
X1026174Y934161D01*
X1027262Y934888D01*
X1034882Y942508D01*
X1035609Y943596D01*
X1035864Y944880D01*
Y976896D01*
X1037134Y977422D01*
X1041855Y972701D01*
Y941189D01*
X1029850Y929184D01*
X971669D01*
X953315Y947540D01*
Y1286391D01*
X975480Y1308555D01*
X1161930D01*
X1226246Y1244240D01*
X1225779Y1243111D01*
X1225473Y1240790D01*
X1225779Y1238469D01*
X1226675Y1236307D01*
X1228100Y1234450D01*
X1229957Y1233025D01*
X1232119Y1232129D01*
X1234440Y1231823D01*
X1236761Y1232129D01*
X1238923Y1233025D01*
X1240780Y1234450D01*
X1242205Y1236307D01*
X1243101Y1238469D01*
X1243407Y1240790D01*
X1243101Y1243111D01*
X1242205Y1245273D01*
X1240780Y1247130D01*
X1238923Y1248555D01*
X1236761Y1249451D01*
X1234440Y1249757D01*
X1232119Y1249451D01*
X1230990Y1248984D01*
X1165692Y1314282D01*
X1164604Y1315009D01*
X1163320Y1315264D01*
D02*
G37*
G36*
X1240790Y1226730D02*
Y1219200D01*
X1248319D01*
X1248181Y1220251D01*
X1247285Y1222413D01*
X1245860Y1224270D01*
X1244003Y1225695D01*
X1241841Y1226591D01*
X1240790Y1226730D01*
D02*
G37*
G36*
X1238250D02*
X1237199Y1226591D01*
X1235037Y1225695D01*
X1233180Y1224270D01*
X1231755Y1222413D01*
X1230859Y1220251D01*
X1230721Y1219200D01*
X1238250D01*
Y1226730D01*
D02*
G37*
G36*
X1506220Y1222919D02*
Y1215390D01*
X1513750D01*
X1513611Y1216441D01*
X1512715Y1218603D01*
X1511290Y1220460D01*
X1509433Y1221885D01*
X1507271Y1222781D01*
X1506220Y1222919D01*
D02*
G37*
G36*
X1503680D02*
X1502629Y1222781D01*
X1500467Y1221885D01*
X1498610Y1220460D01*
X1497185Y1218603D01*
X1496289Y1216441D01*
X1496151Y1215390D01*
X1503680D01*
Y1222919D01*
D02*
G37*
G36*
X1248319Y1216660D02*
X1240790D01*
Y1209130D01*
X1241841Y1209269D01*
X1244003Y1210165D01*
X1245860Y1211590D01*
X1247285Y1213447D01*
X1248181Y1215609D01*
X1248319Y1216660D01*
D02*
G37*
G36*
X1238250D02*
X1230721D01*
X1230859Y1215609D01*
X1231755Y1213447D01*
X1233180Y1211590D01*
X1235037Y1210165D01*
X1237199Y1209269D01*
X1238250Y1209130D01*
Y1216660D01*
D02*
G37*
G36*
X1513750Y1212850D02*
X1506220D01*
Y1205321D01*
X1507271Y1205459D01*
X1509433Y1206355D01*
X1511290Y1207780D01*
X1512715Y1209637D01*
X1513611Y1211799D01*
X1513750Y1212850D01*
D02*
G37*
G36*
X1503680D02*
X1496151D01*
X1496289Y1211799D01*
X1497185Y1209637D01*
X1498610Y1207780D01*
X1500467Y1206355D01*
X1502629Y1205459D01*
X1503680Y1205321D01*
Y1212850D01*
D02*
G37*
G36*
X1020960Y1207650D02*
X1000880D01*
Y1187570D01*
X1020960D01*
Y1207650D01*
D02*
G37*
G36*
X1179830Y1193709D02*
Y1186180D01*
X1187359D01*
X1187221Y1187231D01*
X1186325Y1189393D01*
X1184900Y1191250D01*
X1183043Y1192675D01*
X1180881Y1193571D01*
X1179830Y1193709D01*
D02*
G37*
G36*
X1177290D02*
X1176239Y1193571D01*
X1174077Y1192675D01*
X1172220Y1191250D01*
X1170795Y1189393D01*
X1169899Y1187231D01*
X1169761Y1186180D01*
X1177290D01*
Y1193709D01*
D02*
G37*
G36*
X1187359Y1183640D02*
X1179830D01*
Y1176111D01*
X1180881Y1176249D01*
X1183043Y1177145D01*
X1184900Y1178570D01*
X1186325Y1180427D01*
X1187221Y1182589D01*
X1187359Y1183640D01*
D02*
G37*
G36*
X1177290D02*
X1169761D01*
X1169899Y1182589D01*
X1170795Y1180427D01*
X1172220Y1178570D01*
X1174077Y1177145D01*
X1176239Y1176249D01*
X1177290Y1176111D01*
Y1183640D01*
D02*
G37*
G36*
X1010920Y1182337D02*
X1008299Y1181992D01*
X1005857Y1180980D01*
X1003759Y1179371D01*
X1002150Y1177273D01*
X1001138Y1174831D01*
X1000793Y1172210D01*
X1001138Y1169589D01*
X1002150Y1167147D01*
X1003759Y1165049D01*
X1005857Y1163440D01*
X1008299Y1162428D01*
X1010920Y1162083D01*
X1013541Y1162428D01*
X1015983Y1163440D01*
X1018081Y1165049D01*
X1019690Y1167147D01*
X1020702Y1169589D01*
X1021047Y1172210D01*
X1020702Y1174831D01*
X1019690Y1177273D01*
X1018081Y1179371D01*
X1015983Y1180980D01*
X1013541Y1181992D01*
X1010920Y1182337D01*
D02*
G37*
G36*
X1418590Y1149259D02*
Y1141730D01*
X1426120D01*
X1425981Y1142781D01*
X1425085Y1144943D01*
X1423660Y1146800D01*
X1421803Y1148225D01*
X1419641Y1149121D01*
X1418590Y1149259D01*
D02*
G37*
G36*
X1416050D02*
X1414999Y1149121D01*
X1412837Y1148225D01*
X1410980Y1146800D01*
X1409555Y1144943D01*
X1408659Y1142781D01*
X1408521Y1141730D01*
X1416050D01*
Y1149259D01*
D02*
G37*
G36*
X1494790Y1146720D02*
Y1139190D01*
X1502319D01*
X1502181Y1140241D01*
X1501285Y1142403D01*
X1499860Y1144260D01*
X1498003Y1145685D01*
X1495841Y1146581D01*
X1494790Y1146720D01*
D02*
G37*
G36*
X1492250D02*
X1491199Y1146581D01*
X1489037Y1145685D01*
X1487180Y1144260D01*
X1485755Y1142403D01*
X1484859Y1140241D01*
X1484720Y1139190D01*
X1492250D01*
Y1146720D01*
D02*
G37*
G36*
X1426120Y1139190D02*
X1418590D01*
Y1131661D01*
X1419641Y1131799D01*
X1421803Y1132695D01*
X1423660Y1134120D01*
X1425085Y1135977D01*
X1425981Y1138139D01*
X1426120Y1139190D01*
D02*
G37*
G36*
X1416050D02*
X1408521D01*
X1408659Y1138139D01*
X1409555Y1135977D01*
X1410980Y1134120D01*
X1412837Y1132695D01*
X1414999Y1131799D01*
X1416050Y1131661D01*
Y1139190D01*
D02*
G37*
G36*
X1078230Y1095919D02*
Y1088390D01*
X1085760D01*
X1085621Y1089441D01*
X1084725Y1091603D01*
X1083300Y1093460D01*
X1081443Y1094885D01*
X1079281Y1095781D01*
X1078230Y1095919D01*
D02*
G37*
G36*
X1075690D02*
X1074639Y1095781D01*
X1072477Y1094885D01*
X1070620Y1093460D01*
X1069195Y1091603D01*
X1068299Y1089441D01*
X1068160Y1088390D01*
X1075690D01*
Y1095919D01*
D02*
G37*
G36*
X1245870Y1087029D02*
Y1079500D01*
X1253400D01*
X1253261Y1080551D01*
X1252365Y1082713D01*
X1250940Y1084570D01*
X1249083Y1085995D01*
X1246921Y1086891D01*
X1245870Y1087029D01*
D02*
G37*
G36*
X1243330D02*
X1242279Y1086891D01*
X1240117Y1085995D01*
X1238260Y1084570D01*
X1236835Y1082713D01*
X1235939Y1080551D01*
X1235800Y1079500D01*
X1243330D01*
Y1087029D01*
D02*
G37*
G36*
X1085760Y1085850D02*
X1078230D01*
Y1078320D01*
X1079281Y1078459D01*
X1081443Y1079355D01*
X1083300Y1080780D01*
X1084725Y1082637D01*
X1085621Y1084799D01*
X1085760Y1085850D01*
D02*
G37*
G36*
X1075690D02*
X1068160D01*
X1068299Y1084799D01*
X1069195Y1082637D01*
X1070620Y1080780D01*
X1072477Y1079355D01*
X1074639Y1078459D01*
X1075690Y1078320D01*
Y1085850D01*
D02*
G37*
G36*
X1253400Y1076960D02*
X1245870D01*
Y1069430D01*
X1246921Y1069569D01*
X1249083Y1070465D01*
X1250940Y1071890D01*
X1252365Y1073747D01*
X1253261Y1075909D01*
X1253400Y1076960D01*
D02*
G37*
G36*
X1243330D02*
X1235800D01*
X1235939Y1075909D01*
X1236835Y1073747D01*
X1238260Y1071890D01*
X1240117Y1070465D01*
X1242279Y1069569D01*
X1243330Y1069430D01*
Y1076960D01*
D02*
G37*
G36*
X1545590Y1054009D02*
Y1046480D01*
X1553120D01*
X1552981Y1047531D01*
X1552085Y1049693D01*
X1550660Y1051550D01*
X1548803Y1052975D01*
X1546641Y1053871D01*
X1545590Y1054009D01*
D02*
G37*
G36*
X1543050D02*
X1541999Y1053871D01*
X1539837Y1052975D01*
X1537980Y1051550D01*
X1536555Y1049693D01*
X1535659Y1047531D01*
X1535520Y1046480D01*
X1543050D01*
Y1054009D01*
D02*
G37*
G36*
X1510030Y1046389D02*
Y1038860D01*
X1517560D01*
X1517421Y1039911D01*
X1516525Y1042073D01*
X1515100Y1043930D01*
X1513243Y1045355D01*
X1511081Y1046251D01*
X1510030Y1046389D01*
D02*
G37*
G36*
X1507490D02*
X1506439Y1046251D01*
X1504277Y1045355D01*
X1502420Y1043930D01*
X1500995Y1042073D01*
X1500099Y1039911D01*
X1499960Y1038860D01*
X1507490D01*
Y1046389D01*
D02*
G37*
G36*
X1553120Y1043940D02*
X1545590D01*
Y1036411D01*
X1546641Y1036549D01*
X1548803Y1037445D01*
X1550660Y1038870D01*
X1552085Y1040727D01*
X1552981Y1042889D01*
X1553120Y1043940D01*
D02*
G37*
G36*
X1543050D02*
X1535520D01*
X1535659Y1042889D01*
X1536555Y1040727D01*
X1537980Y1038870D01*
X1539837Y1037445D01*
X1541999Y1036549D01*
X1543050Y1036411D01*
Y1043940D01*
D02*
G37*
G36*
X1517560Y1036320D02*
X1510030D01*
Y1028791D01*
X1511081Y1028929D01*
X1513243Y1029825D01*
X1515100Y1031250D01*
X1516525Y1033107D01*
X1517421Y1035269D01*
X1517560Y1036320D01*
D02*
G37*
G36*
X1507490D02*
X1499960D01*
X1500099Y1035269D01*
X1500995Y1033107D01*
X1502420Y1031250D01*
X1504277Y1029825D01*
X1506439Y1028929D01*
X1507490Y1028791D01*
Y1036320D01*
D02*
G37*
G36*
X1270000Y1018449D02*
Y1010920D01*
X1277530D01*
X1277391Y1011971D01*
X1276495Y1014133D01*
X1275070Y1015990D01*
X1273213Y1017415D01*
X1271051Y1018311D01*
X1270000Y1018449D01*
D02*
G37*
G36*
X1267460D02*
X1266409Y1018311D01*
X1264247Y1017415D01*
X1262390Y1015990D01*
X1260965Y1014133D01*
X1260069Y1011971D01*
X1259930Y1010920D01*
X1267460D01*
Y1018449D01*
D02*
G37*
G36*
X1277530Y1008380D02*
X1270000D01*
Y1000851D01*
X1271051Y1000989D01*
X1273213Y1001885D01*
X1275070Y1003310D01*
X1276495Y1005167D01*
X1277391Y1007329D01*
X1277530Y1008380D01*
D02*
G37*
G36*
X1267460D02*
X1259930D01*
X1260069Y1007329D01*
X1260965Y1005167D01*
X1262390Y1003310D01*
X1264247Y1001885D01*
X1266409Y1000989D01*
X1267460Y1000851D01*
Y1008380D01*
D02*
G37*
G36*
X1554360Y1003180D02*
X1534280D01*
Y983100D01*
X1554360D01*
Y1003180D01*
D02*
G37*
G36*
X1322070Y990509D02*
X1321019Y990371D01*
X1318857Y989475D01*
X1317000Y988050D01*
X1315575Y986193D01*
X1314679Y984031D01*
X1314541Y982980D01*
X1322070D01*
Y990509D01*
D02*
G37*
G36*
X1361440Y1009727D02*
X1359119Y1009421D01*
X1356957Y1008525D01*
X1355100Y1007100D01*
X1353675Y1005243D01*
X1352779Y1003081D01*
X1352473Y1000760D01*
X1352779Y998439D01*
X1353675Y996277D01*
X1355100Y994420D01*
X1356957Y992995D01*
X1358085Y992527D01*
Y989330D01*
X1358341Y988046D01*
X1359068Y986958D01*
X1360625Y985400D01*
Y980049D01*
X1360881Y978765D01*
X1361114Y978416D01*
X1360128Y977606D01*
X1356934Y980800D01*
X1357401Y981929D01*
X1357707Y984250D01*
X1357401Y986571D01*
X1356505Y988733D01*
X1355080Y990590D01*
X1353223Y992015D01*
X1351061Y992911D01*
X1348740Y993217D01*
X1346419Y992911D01*
X1344257Y992015D01*
X1342400Y990590D01*
X1340975Y988733D01*
X1340665Y987985D01*
X1339395Y988237D01*
Y992527D01*
X1340523Y992995D01*
X1342380Y994420D01*
X1343805Y996277D01*
X1344701Y998439D01*
X1345007Y1000760D01*
X1344701Y1003081D01*
X1343805Y1005243D01*
X1342380Y1007100D01*
X1340523Y1008525D01*
X1338361Y1009421D01*
X1336040Y1009727D01*
X1333719Y1009421D01*
X1331557Y1008525D01*
X1329700Y1007100D01*
X1328275Y1005243D01*
X1327379Y1003081D01*
X1327073Y1000760D01*
X1327379Y998439D01*
X1328275Y996277D01*
X1329700Y994420D01*
X1331557Y992995D01*
X1332686Y992527D01*
Y985697D01*
X1331416Y985445D01*
X1331105Y986193D01*
X1329680Y988050D01*
X1327823Y989475D01*
X1325661Y990371D01*
X1324610Y990509D01*
Y981710D01*
Y972911D01*
X1325661Y973049D01*
X1327823Y973945D01*
X1329680Y975370D01*
X1331105Y977227D01*
X1331416Y977975D01*
X1332686Y977723D01*
Y977509D01*
X1332941Y976225D01*
X1333668Y975137D01*
X1334547Y974258D01*
X1335635Y973531D01*
X1335673Y973523D01*
X1337478Y971718D01*
X1338566Y970991D01*
X1339850Y970735D01*
X1346080D01*
X1354276Y962541D01*
Y903583D01*
X1353147Y903115D01*
X1351290Y901690D01*
X1349865Y899833D01*
X1348969Y897671D01*
X1348663Y895350D01*
X1348969Y893029D01*
X1349865Y890867D01*
X1351290Y889010D01*
X1353147Y887585D01*
X1355309Y886689D01*
X1357630Y886383D01*
X1359951Y886689D01*
X1362113Y887585D01*
X1363970Y889010D01*
X1365395Y890867D01*
X1366291Y893029D01*
X1366597Y895350D01*
X1366291Y897671D01*
X1365395Y899833D01*
X1363970Y901690D01*
X1362113Y903115D01*
X1360984Y903583D01*
Y961656D01*
X1362254Y962182D01*
X1368246Y956190D01*
Y924560D01*
X1368501Y923276D01*
X1369228Y922188D01*
X1379675Y911740D01*
Y902798D01*
X1378450Y901711D01*
X1377950Y901777D01*
X1375629Y901471D01*
X1373467Y900575D01*
X1371610Y899150D01*
X1370185Y897293D01*
X1369289Y895131D01*
X1368983Y892810D01*
X1369289Y890489D01*
X1370185Y888327D01*
X1371610Y886470D01*
X1373467Y885045D01*
X1375629Y884149D01*
X1377950Y883843D01*
X1380271Y884149D01*
X1382433Y885045D01*
X1384290Y886470D01*
X1385715Y888327D01*
X1386611Y890489D01*
X1386917Y892810D01*
X1386611Y895131D01*
X1385715Y897293D01*
X1385247Y897903D01*
X1385402Y898058D01*
X1386129Y899146D01*
X1386384Y900430D01*
Y904063D01*
X1387655Y904315D01*
X1387965Y903567D01*
X1389390Y901710D01*
X1391247Y900285D01*
X1393409Y899389D01*
X1395730Y899083D01*
X1398051Y899389D01*
X1400213Y900285D01*
X1402070Y901710D01*
X1403495Y903567D01*
X1404391Y905729D01*
X1404697Y908050D01*
X1404391Y910371D01*
X1403495Y912533D01*
X1402070Y914390D01*
X1401906Y914516D01*
X1402677Y915525D01*
X1404839Y914629D01*
X1407160Y914323D01*
X1409481Y914629D01*
X1411643Y915525D01*
X1413500Y916950D01*
X1414925Y918807D01*
X1415821Y920969D01*
X1416127Y923290D01*
X1415821Y925611D01*
X1414925Y927773D01*
X1413500Y929630D01*
X1411643Y931055D01*
X1409481Y931951D01*
X1407160Y932257D01*
X1404839Y931951D01*
X1402677Y931055D01*
X1401348Y930036D01*
X1392735Y938650D01*
Y979170D01*
X1392479Y980454D01*
X1391752Y981542D01*
X1387942Y985352D01*
X1386854Y986079D01*
X1385570Y986335D01*
X1384913D01*
X1384445Y987463D01*
X1383020Y989320D01*
X1381163Y990745D01*
X1379001Y991641D01*
X1376680Y991947D01*
X1374359Y991641D01*
X1372197Y990745D01*
X1370340Y989320D01*
X1368915Y987463D01*
X1368771Y987117D01*
X1368539Y987070D01*
X1367088Y988028D01*
X1367079Y988074D01*
X1366352Y989162D01*
X1364794Y990720D01*
Y992527D01*
X1365923Y992995D01*
X1367780Y994420D01*
X1369205Y996277D01*
X1370101Y998439D01*
X1370407Y1000760D01*
X1370101Y1003081D01*
X1369205Y1005243D01*
X1367780Y1007100D01*
X1365923Y1008525D01*
X1363761Y1009421D01*
X1361440Y1009727D01*
D02*
G37*
G36*
X1461770Y1010997D02*
X1459449Y1010691D01*
X1457287Y1009795D01*
X1455430Y1008370D01*
X1454005Y1006513D01*
X1453109Y1004351D01*
X1452803Y1002030D01*
X1453109Y999709D01*
X1454005Y997547D01*
X1455430Y995690D01*
X1457287Y994265D01*
X1458416Y993797D01*
Y977864D01*
X1457146Y977238D01*
X1456093Y978045D01*
X1453931Y978941D01*
X1451610Y979247D01*
X1449289Y978941D01*
X1447127Y978045D01*
X1445270Y976620D01*
X1443845Y974763D01*
X1442949Y972601D01*
X1442643Y970280D01*
X1442949Y967959D01*
X1443845Y965797D01*
X1445270Y963940D01*
X1447127Y962515D01*
X1448255Y962047D01*
Y933569D01*
X1374021Y859334D01*
X1350010D01*
X1348726Y859079D01*
X1347638Y858352D01*
X1316871Y827585D01*
X1316599D01*
X1315315Y827329D01*
X1314227Y826602D01*
X1313348Y825723D01*
X1312621Y824635D01*
X1312366Y823351D01*
Y800162D01*
X1311927Y799980D01*
X1309829Y798371D01*
X1308220Y796273D01*
X1307208Y793831D01*
X1306863Y791210D01*
X1307208Y788589D01*
X1308220Y786147D01*
X1309829Y784049D01*
X1311927Y782440D01*
X1314369Y781428D01*
X1316990Y781083D01*
X1319611Y781428D01*
X1322053Y782440D01*
X1324151Y784049D01*
X1325760Y786147D01*
X1326772Y788589D01*
X1327117Y791210D01*
X1326772Y793831D01*
X1325760Y796273D01*
X1324151Y798371D01*
X1322053Y799980D01*
X1319611Y800992D01*
X1319075Y801062D01*
Y821038D01*
X1319544Y821131D01*
X1320632Y821858D01*
X1351400Y852626D01*
X1375410D01*
X1376694Y852881D01*
X1377782Y853608D01*
X1453982Y929808D01*
X1454709Y930896D01*
X1454964Y932180D01*
Y962047D01*
X1456093Y962515D01*
X1457146Y963322D01*
X1458416Y962696D01*
Y917059D01*
X1384180Y842824D01*
X1358900D01*
X1357616Y842569D01*
X1356528Y841842D01*
X1340018Y825332D01*
X1339291Y824244D01*
X1339035Y822960D01*
Y800688D01*
X1337327Y799980D01*
X1335229Y798371D01*
X1333620Y796273D01*
X1332608Y793831D01*
X1332263Y791210D01*
X1332608Y788589D01*
X1333620Y786147D01*
X1335229Y784049D01*
X1337327Y782440D01*
X1339769Y781428D01*
X1342390Y781083D01*
X1345011Y781428D01*
X1347453Y782440D01*
X1349551Y784049D01*
X1351160Y786147D01*
X1352172Y788589D01*
X1352517Y791210D01*
X1352172Y793831D01*
X1351160Y796273D01*
X1349551Y798371D01*
X1347453Y799980D01*
X1345744Y800688D01*
Y821571D01*
X1360289Y836115D01*
X1385570D01*
X1386854Y836371D01*
X1387942Y837098D01*
X1464142Y913298D01*
X1464869Y914386D01*
X1465125Y915670D01*
Y993797D01*
X1466253Y994265D01*
X1468110Y995690D01*
X1469535Y997547D01*
X1470431Y999709D01*
X1470737Y1002030D01*
X1470431Y1004351D01*
X1469535Y1006513D01*
X1468110Y1008370D01*
X1466253Y1009795D01*
X1464091Y1010691D01*
X1461770Y1010997D01*
D02*
G37*
G36*
X1322070Y980440D02*
X1314541D01*
X1314679Y979389D01*
X1315575Y977227D01*
X1317000Y975370D01*
X1318857Y973945D01*
X1321019Y973049D01*
X1322070Y972911D01*
Y980440D01*
D02*
G37*
G36*
X1545590Y977699D02*
Y969010D01*
X1554279D01*
X1554102Y970361D01*
X1553090Y972803D01*
X1551481Y974901D01*
X1549383Y976510D01*
X1546941Y977522D01*
X1545590Y977699D01*
D02*
G37*
G36*
X1543050D02*
X1541699Y977522D01*
X1539257Y976510D01*
X1537159Y974901D01*
X1535550Y972803D01*
X1534538Y970361D01*
X1534361Y969010D01*
X1543050D01*
Y977699D01*
D02*
G37*
G36*
X1554279Y966470D02*
X1545590D01*
Y957781D01*
X1546941Y957958D01*
X1549383Y958970D01*
X1551481Y960579D01*
X1553090Y962677D01*
X1554102Y965119D01*
X1554279Y966470D01*
D02*
G37*
G36*
X1543050D02*
X1534361D01*
X1534538Y965119D01*
X1535550Y962677D01*
X1537159Y960579D01*
X1539257Y958970D01*
X1541699Y957958D01*
X1543050Y957781D01*
Y966470D01*
D02*
G37*
G36*
X1219109Y947420D02*
X1211580D01*
Y939891D01*
X1212631Y940029D01*
X1214793Y940925D01*
X1216650Y942350D01*
X1218075Y944207D01*
X1218971Y946369D01*
X1219109Y947420D01*
D02*
G37*
G36*
X1209040D02*
X1201510D01*
X1201649Y946369D01*
X1202545Y944207D01*
X1203970Y942350D01*
X1205827Y940925D01*
X1207989Y940029D01*
X1209040Y939891D01*
Y947420D01*
D02*
G37*
G36*
X1568450Y947329D02*
X1567399Y947191D01*
X1565237Y946295D01*
X1563380Y944870D01*
X1561955Y943013D01*
X1561059Y940851D01*
X1560921Y939800D01*
X1568450D01*
Y947329D01*
D02*
G37*
G36*
Y937260D02*
X1560921D01*
X1561059Y936209D01*
X1561955Y934047D01*
X1563380Y932190D01*
X1565237Y930765D01*
X1567399Y929869D01*
X1568450Y929731D01*
Y937260D01*
D02*
G37*
G36*
X1318260Y881290D02*
Y873760D01*
X1325789D01*
X1325651Y874811D01*
X1324755Y876973D01*
X1323330Y878830D01*
X1321473Y880255D01*
X1319311Y881151D01*
X1318260Y881290D01*
D02*
G37*
G36*
X1315720D02*
X1314669Y881151D01*
X1312507Y880255D01*
X1310650Y878830D01*
X1309225Y876973D01*
X1308329Y874811D01*
X1308190Y873760D01*
X1315720D01*
Y881290D01*
D02*
G37*
G36*
X1325789Y871220D02*
X1318260D01*
Y863690D01*
X1319311Y863829D01*
X1321473Y864725D01*
X1323330Y866150D01*
X1324755Y868007D01*
X1325651Y870169D01*
X1325789Y871220D01*
D02*
G37*
G36*
X1315720D02*
X1308190D01*
X1308329Y870169D01*
X1309225Y868007D01*
X1310650Y866150D01*
X1312507Y864725D01*
X1314669Y863829D01*
X1315720Y863690D01*
Y871220D01*
D02*
G37*
G36*
X1229360Y947497D02*
X1227039Y947191D01*
X1224877Y946295D01*
X1223020Y944870D01*
X1221595Y943013D01*
X1220699Y940851D01*
X1220393Y938530D01*
X1220699Y936209D01*
X1221595Y934047D01*
X1223020Y932190D01*
X1224877Y930765D01*
X1226005Y930297D01*
Y845939D01*
X1215023Y834957D01*
X1214985Y834949D01*
X1213897Y834222D01*
X1213018Y833343D01*
X1212291Y832255D01*
X1212036Y830971D01*
Y801250D01*
X1205350D01*
Y781170D01*
X1225430D01*
Y801250D01*
X1218745D01*
Y829286D01*
X1219032Y829478D01*
X1231732Y842178D01*
X1232459Y843266D01*
X1232714Y844550D01*
Y930297D01*
X1233843Y930765D01*
X1235700Y932190D01*
X1237125Y934047D01*
X1238021Y936209D01*
X1238327Y938530D01*
X1238021Y940851D01*
X1237125Y943013D01*
X1235700Y944870D01*
X1233843Y946295D01*
X1231681Y947191D01*
X1229360Y947497D01*
D02*
G37*
G36*
X1596390Y801337D02*
X1593769Y800992D01*
X1591327Y799980D01*
X1589229Y798371D01*
X1587620Y796273D01*
X1586608Y793831D01*
X1586263Y791210D01*
X1586608Y788589D01*
X1587620Y786147D01*
X1589229Y784049D01*
X1591327Y782440D01*
X1593769Y781428D01*
X1596390Y781083D01*
X1599011Y781428D01*
X1601453Y782440D01*
X1603551Y784049D01*
X1605160Y786147D01*
X1606172Y788589D01*
X1606517Y791210D01*
X1606172Y793831D01*
X1605160Y796273D01*
X1603551Y798371D01*
X1601453Y799980D01*
X1599011Y800992D01*
X1596390Y801337D01*
D02*
G37*
G36*
X1570990D02*
X1568369Y800992D01*
X1565927Y799980D01*
X1563829Y798371D01*
X1562220Y796273D01*
X1561208Y793831D01*
X1560863Y791210D01*
X1561208Y788589D01*
X1562220Y786147D01*
X1563829Y784049D01*
X1565927Y782440D01*
X1568369Y781428D01*
X1570990Y781083D01*
X1573611Y781428D01*
X1576053Y782440D01*
X1578151Y784049D01*
X1579760Y786147D01*
X1580772Y788589D01*
X1581117Y791210D01*
X1580772Y793831D01*
X1579760Y796273D01*
X1578151Y798371D01*
X1576053Y799980D01*
X1573611Y800992D01*
X1570990Y801337D01*
D02*
G37*
G36*
X1545590D02*
X1542969Y800992D01*
X1540527Y799980D01*
X1538429Y798371D01*
X1536820Y796273D01*
X1535808Y793831D01*
X1535463Y791210D01*
X1535808Y788589D01*
X1536820Y786147D01*
X1538429Y784049D01*
X1540527Y782440D01*
X1542969Y781428D01*
X1545590Y781083D01*
X1548211Y781428D01*
X1550653Y782440D01*
X1552751Y784049D01*
X1554360Y786147D01*
X1555372Y788589D01*
X1555717Y791210D01*
X1555372Y793831D01*
X1554360Y796273D01*
X1552751Y798371D01*
X1550653Y799980D01*
X1548211Y800992D01*
X1545590Y801337D01*
D02*
G37*
G36*
X1520190D02*
X1517569Y800992D01*
X1515127Y799980D01*
X1513029Y798371D01*
X1511420Y796273D01*
X1510408Y793831D01*
X1510063Y791210D01*
X1510408Y788589D01*
X1511420Y786147D01*
X1513029Y784049D01*
X1515127Y782440D01*
X1517569Y781428D01*
X1520190Y781083D01*
X1522811Y781428D01*
X1525253Y782440D01*
X1527351Y784049D01*
X1528960Y786147D01*
X1529972Y788589D01*
X1530317Y791210D01*
X1529972Y793831D01*
X1528960Y796273D01*
X1527351Y798371D01*
X1525253Y799980D01*
X1522811Y800992D01*
X1520190Y801337D01*
D02*
G37*
G36*
X1466850Y1037667D02*
X1464529Y1037361D01*
X1462367Y1036465D01*
X1460510Y1035040D01*
X1459085Y1033183D01*
X1458189Y1031021D01*
X1457883Y1028700D01*
X1458189Y1026379D01*
X1459085Y1024217D01*
X1460510Y1022360D01*
X1462367Y1020935D01*
X1464529Y1020039D01*
X1466850Y1019733D01*
X1469171Y1020039D01*
X1469402Y1020135D01*
X1474926Y1014611D01*
Y913250D01*
X1391801Y830125D01*
X1381760D01*
X1380476Y829869D01*
X1379388Y829142D01*
X1365418Y815172D01*
X1364691Y814084D01*
X1364435Y812800D01*
Y800688D01*
X1362727Y799980D01*
X1360629Y798371D01*
X1359020Y796273D01*
X1358008Y793831D01*
X1357663Y791210D01*
X1358008Y788589D01*
X1359020Y786147D01*
X1360629Y784049D01*
X1362727Y782440D01*
X1365169Y781428D01*
X1367790Y781083D01*
X1370411Y781428D01*
X1372853Y782440D01*
X1374951Y784049D01*
X1376560Y786147D01*
X1377572Y788589D01*
X1377917Y791210D01*
X1377572Y793831D01*
X1376560Y796273D01*
X1374951Y798371D01*
X1372853Y799980D01*
X1371145Y800688D01*
Y811411D01*
X1383150Y823416D01*
X1393190D01*
X1394474Y823671D01*
X1395562Y824398D01*
X1480652Y909488D01*
X1481379Y910576D01*
X1481635Y911860D01*
Y1016000D01*
X1481379Y1017284D01*
X1480652Y1018372D01*
X1474672Y1024352D01*
X1475511Y1026379D01*
X1475817Y1028700D01*
X1475511Y1031021D01*
X1474615Y1033183D01*
X1473190Y1035040D01*
X1471333Y1036465D01*
X1469171Y1037361D01*
X1466850Y1037667D01*
D02*
G37*
G36*
X1291590Y934797D02*
X1289269Y934491D01*
X1287107Y933595D01*
X1285250Y932170D01*
X1283825Y930313D01*
X1282929Y928151D01*
X1282623Y925830D01*
X1282929Y923509D01*
X1283825Y921347D01*
X1285250Y919490D01*
X1287107Y918065D01*
X1288235Y917597D01*
Y800688D01*
X1286527Y799980D01*
X1284429Y798371D01*
X1282820Y796273D01*
X1281808Y793831D01*
X1281463Y791210D01*
X1281808Y788589D01*
X1282820Y786147D01*
X1284429Y784049D01*
X1286527Y782440D01*
X1288969Y781428D01*
X1291590Y781083D01*
X1294211Y781428D01*
X1296653Y782440D01*
X1298751Y784049D01*
X1300360Y786147D01*
X1301372Y788589D01*
X1301717Y791210D01*
X1301372Y793831D01*
X1300360Y796273D01*
X1298751Y798371D01*
X1296653Y799980D01*
X1294944Y800688D01*
Y917597D01*
X1296073Y918065D01*
X1297930Y919490D01*
X1299355Y921347D01*
X1300251Y923509D01*
X1300557Y925830D01*
X1300251Y928151D01*
X1299355Y930313D01*
X1297930Y932170D01*
X1296073Y933595D01*
X1293911Y934491D01*
X1291590Y934797D01*
D02*
G37*
G36*
X1270000Y936067D02*
X1267679Y935761D01*
X1265517Y934865D01*
X1263660Y933440D01*
X1262235Y931583D01*
X1261339Y929421D01*
X1261033Y927100D01*
X1261339Y924779D01*
X1262235Y922617D01*
X1263660Y920760D01*
X1265517Y919335D01*
X1266646Y918867D01*
Y831970D01*
X1263818Y829142D01*
X1263091Y828054D01*
X1262835Y826770D01*
Y800688D01*
X1261127Y799980D01*
X1259029Y798371D01*
X1257420Y796273D01*
X1256408Y793831D01*
X1256063Y791210D01*
X1256408Y788589D01*
X1257420Y786147D01*
X1259029Y784049D01*
X1261127Y782440D01*
X1263569Y781428D01*
X1266190Y781083D01*
X1268811Y781428D01*
X1271253Y782440D01*
X1273351Y784049D01*
X1274960Y786147D01*
X1275972Y788589D01*
X1276317Y791210D01*
X1275972Y793831D01*
X1274960Y796273D01*
X1273351Y798371D01*
X1271253Y799980D01*
X1269545Y800688D01*
Y825380D01*
X1272372Y828208D01*
X1273099Y829296D01*
X1273354Y830580D01*
Y918867D01*
X1274483Y919335D01*
X1276340Y920760D01*
X1277765Y922617D01*
X1278661Y924779D01*
X1278967Y927100D01*
X1278661Y929421D01*
X1277765Y931583D01*
X1276340Y933440D01*
X1274483Y934865D01*
X1272321Y935761D01*
X1270000Y936067D01*
D02*
G37*
G36*
X1249680Y932257D02*
X1247359Y931951D01*
X1245197Y931055D01*
X1243340Y929630D01*
X1241915Y927773D01*
X1241019Y925611D01*
X1240713Y923290D01*
X1241019Y920969D01*
X1241915Y918807D01*
X1243340Y916950D01*
X1245197Y915525D01*
X1246326Y915057D01*
Y838319D01*
X1239688Y831682D01*
X1238961Y830594D01*
X1238706Y829310D01*
Y801062D01*
X1238169Y800992D01*
X1235727Y799980D01*
X1233629Y798371D01*
X1232020Y796273D01*
X1231008Y793831D01*
X1230663Y791210D01*
X1231008Y788589D01*
X1232020Y786147D01*
X1233629Y784049D01*
X1235727Y782440D01*
X1238169Y781428D01*
X1240790Y781083D01*
X1243411Y781428D01*
X1245853Y782440D01*
X1247951Y784049D01*
X1249560Y786147D01*
X1250572Y788589D01*
X1250917Y791210D01*
X1250572Y793831D01*
X1249560Y796273D01*
X1247951Y798371D01*
X1245853Y799980D01*
X1245415Y800162D01*
Y827921D01*
X1252052Y834558D01*
X1252779Y835646D01*
X1253035Y836930D01*
Y915057D01*
X1254163Y915525D01*
X1256020Y916950D01*
X1257445Y918807D01*
X1258341Y920969D01*
X1258647Y923290D01*
X1258341Y925611D01*
X1257445Y927773D01*
X1256020Y929630D01*
X1254163Y931055D01*
X1252001Y931951D01*
X1249680Y932257D01*
D02*
G37*
%LPD*%
G36*
X1602966Y1033891D02*
Y890160D01*
X1587859Y875053D01*
X1586689Y875678D01*
X1586754Y876010D01*
Y950363D01*
X1586499Y951647D01*
X1585775Y952732D01*
Y1019846D01*
X1587045Y1020472D01*
X1588097Y1019665D01*
X1590259Y1018769D01*
X1591310Y1018631D01*
Y1027430D01*
Y1036229D01*
X1590259Y1036091D01*
X1589370Y1035723D01*
X1588315Y1036429D01*
Y1046882D01*
X1589488Y1047368D01*
X1602966Y1033891D01*
D02*
G37*
%LPC*%
G36*
X1593850Y1036229D02*
Y1028700D01*
X1601380D01*
X1601241Y1029751D01*
X1600345Y1031913D01*
X1598920Y1033770D01*
X1597063Y1035195D01*
X1594901Y1036091D01*
X1593850Y1036229D01*
D02*
G37*
G36*
X1601380Y1026160D02*
X1593850D01*
Y1018631D01*
X1594901Y1018769D01*
X1597063Y1019665D01*
X1598920Y1021090D01*
X1600345Y1022947D01*
X1601241Y1025109D01*
X1601380Y1026160D01*
D02*
G37*
%LPD*%
D16*
X1270000Y1238250D02*
X1338580Y1169670D01*
X1270000Y1238250D02*
Y1338580D01*
X1311910Y1380490D01*
X1291590Y791210D02*
Y925830D01*
X1266190Y791210D02*
Y826770D01*
X1270000Y830580D02*
Y927100D01*
X1266190Y826770D02*
X1270000Y830580D01*
X1240790Y791210D02*
X1242060Y792480D01*
Y829310D01*
X1249680Y836930D02*
Y923290D01*
X1242060Y829310D02*
X1249680Y836930D01*
X1216269Y831850D02*
X1216660D01*
X1215390Y791210D02*
Y830971D01*
X1216269Y831850D01*
X1216660D02*
X1229360Y844550D01*
Y938530D01*
X1611630Y875030D02*
Y915670D01*
X1543050Y839470D02*
X1576070D01*
X1611630Y875030D01*
X1606320Y888770D02*
Y1035280D01*
X1522730Y844550D02*
X1562100D01*
X1606320Y888770D01*
X1559169Y851779D02*
X1583400Y876010D01*
Y950363D01*
X1507881Y851779D02*
X1559169D01*
X1494790Y791210D02*
X1543050Y839470D01*
X1469390Y791210D02*
X1522730Y844550D01*
X1446530Y791210D02*
X1507490Y852170D01*
X1507881Y851779D01*
X1443990Y791210D02*
X1446530D01*
X1560830Y863600D02*
X1579360Y882130D01*
Y948690D01*
X1468120Y863600D02*
X1560830D01*
X1418590Y791210D02*
Y814070D01*
X1468120Y863600D01*
X1392541Y810881D02*
X1499870Y918210D01*
Y1024890D01*
X1381760Y826770D02*
X1393190D01*
X1478280Y911860D02*
Y1016000D01*
X1393190Y826770D02*
X1478280Y911860D01*
X1392541Y791859D02*
X1393190Y791210D01*
X1392541Y791859D02*
Y810881D01*
X1367790Y791210D02*
Y812800D01*
X1381760Y826770D01*
X1342390Y791210D02*
Y822960D01*
X1358900Y839470D01*
X1385570D02*
X1461770Y915670D01*
X1358900Y839470D02*
X1385570D01*
X1316599Y824230D02*
X1318260D01*
X1315720Y792480D02*
X1316990Y791210D01*
X1315720Y792480D02*
Y823351D01*
X1316599Y824230D01*
X1318260D02*
X1350010Y855980D01*
X1375410D01*
X1451610Y932180D01*
X1010920Y1045210D02*
X1011780Y1044350D01*
X1020670D01*
X1027430Y1037590D01*
Y1019810D02*
X1038860Y1008380D01*
X1027430Y1019810D02*
Y1037590D01*
X1038860Y980440D02*
Y1008380D01*
X1045210Y939800D02*
Y974090D01*
X1038860Y980440D02*
X1045210Y974090D01*
X1031240Y925830D02*
X1045210Y939800D01*
X970280Y925830D02*
X1031240D01*
X949960Y946150D02*
X970280Y925830D01*
X949960Y946150D02*
Y1287780D01*
X974090Y1311910D02*
X1163320D01*
X949960Y1287780D02*
X974090Y1311910D01*
X1010920Y1019810D02*
X1024890Y1005840D01*
X1028700D01*
X1032510Y944880D02*
Y1002030D01*
X1028700Y1005840D02*
X1032510Y1002030D01*
X1024890Y937260D02*
X1032510Y944880D01*
X980440Y937260D02*
X1024890D01*
X961390Y956310D02*
Y1182370D01*
Y956310D02*
X980440Y937260D01*
X960999Y1182761D02*
X961390Y1182370D01*
X960999Y1182761D02*
Y1264920D01*
X961390D01*
X984250Y1287780D02*
X1150620D01*
X961390Y1264920D02*
X984250Y1287780D01*
X1163320Y1311910D02*
X1234440Y1240790D01*
X1024890Y981710D02*
X1026809Y983629D01*
X1010920Y994410D02*
X1012587D01*
X1018648Y988349D01*
X1023331D01*
X1026809Y984871D01*
Y983629D02*
Y984871D01*
X1024890Y956310D02*
Y981710D01*
X985520Y947420D02*
X1018931D01*
X1019810Y948299D01*
Y951230D01*
X1024890Y956310D01*
X970280Y962660D02*
X985520Y947420D01*
X970280Y962660D02*
Y1248410D01*
X985520Y1263650D01*
X1115060D01*
X993140Y969010D02*
X1010920D01*
X977900Y984250D02*
Y1223010D01*
Y984250D02*
X993140Y969010D01*
X977900Y1223010D02*
X984250Y1229360D01*
X1064260D01*
X1038860Y1079500D02*
Y1111250D01*
X1031240Y1118870D02*
X1038860Y1111250D01*
X1075690Y960120D02*
X1238250D01*
X1049257Y986553D02*
X1075690Y960120D01*
X1043940Y991870D02*
X1049020Y986790D01*
X1043940Y991870D02*
Y1036320D01*
X1031240Y1049020D02*
X1043940Y1036320D01*
X1031240Y1049020D02*
Y1060450D01*
X1021080Y1070610D02*
X1031240Y1060450D01*
X1010920Y1070610D02*
X1021080D01*
X1068070Y984250D02*
X1080770Y971550D01*
X1052830Y1010920D02*
X1068070Y995680D01*
Y984250D02*
Y995680D01*
X1052830Y1010920D02*
Y1050290D01*
X1033780Y1068949D02*
Y1076960D01*
Y1068949D02*
X1034659Y1068070D01*
X1035050D01*
X1052830Y1050290D01*
X1027430Y1083310D02*
Y1089660D01*
Y1083310D02*
X1033780Y1076960D01*
X1010920Y1096010D02*
X1021080D01*
X1027430Y1089660D01*
X1078230Y994019D02*
Y1005840D01*
Y994019D02*
X1079109Y993140D01*
X1085850D01*
X1092200Y986790D01*
X1064260Y1019810D02*
Y1054100D01*
Y1019810D02*
X1078230Y1005840D01*
X1038860Y1079500D02*
X1064260Y1054100D01*
X1013460Y1118870D02*
X1031240D01*
X1010920Y1121410D02*
X1013460Y1118870D01*
X1080770Y1017270D02*
X1098550Y999490D01*
X1080770Y1017270D02*
Y1052830D01*
X1052830Y1080770D02*
X1080770Y1052830D01*
X1052830Y1080770D02*
Y1123950D01*
X1029970Y1146810D02*
X1052830Y1123950D01*
X1010920Y1146810D02*
X1029970D01*
X1447800Y1363980D02*
X1450340D01*
X1440180Y1356360D02*
X1447800Y1363980D01*
X1354171Y1355090D02*
X1355441Y1356360D01*
X1440180D01*
X1456690Y1380490D02*
X1484630Y1352550D01*
X1311910Y1380490D02*
X1456690D01*
X1306830Y1355090D02*
X1354171D01*
X1300480Y1289307D02*
Y1348740D01*
X1306830Y1355090D01*
X1293509Y1283349D02*
X1294521D01*
X1300480Y1289307D01*
X1289050Y1278890D02*
X1293509Y1283349D01*
X1289050Y1234440D02*
Y1278890D01*
X1301750Y1221740D02*
X1350010D01*
X1289050Y1234440D02*
X1301750Y1221740D01*
X1350010D02*
X1403350Y1168400D01*
X1530350Y1363980D02*
Y1380490D01*
X1518920Y1352550D02*
X1530350Y1363980D01*
X1484630Y1352550D02*
X1518920D01*
X1338580Y1169670D02*
X1377950D01*
X1404620Y1192530D02*
X1461770Y1135380D01*
X1404620Y1192530D02*
Y1211580D01*
X1150620Y1287780D02*
X1215390Y1223010D01*
X1115060Y1263650D02*
X1178560Y1200150D01*
X1212850D01*
X1122680Y1170940D02*
X1189990D01*
X1064260Y1229360D02*
X1122680Y1170940D01*
X1196340Y1177290D02*
X1212850D01*
X1189990Y1170940D02*
X1196340Y1177290D01*
X1610360Y916940D02*
X1611630Y915670D01*
X1589810Y1051790D02*
X1606320Y1035280D01*
X1610360Y916940D02*
Y1043940D01*
X1577340Y1042670D02*
Y1074420D01*
X1572260Y1079500D02*
X1577340Y1074420D01*
X1510030Y1069340D02*
X1555750D01*
X1582420Y951343D02*
X1583400Y950363D01*
X1582420Y951343D02*
Y1030903D01*
X1499870Y1079500D02*
X1572260D01*
X1584960Y1033443D02*
Y1078230D01*
X1582420Y1030903D02*
X1584960Y1033443D01*
X1589810Y1051790D02*
Y1084810D01*
X1494790Y1093470D02*
X1581150D01*
X1498600Y1088390D02*
X1574800D01*
X1584960Y1078230D01*
X1581150Y1093470D02*
X1589810Y1084810D01*
X1582420Y1101090D02*
X1593850Y1089660D01*
X1490980Y1101090D02*
X1582420D01*
X1593850Y1060450D02*
X1610360Y1043940D01*
X1593850Y1060450D02*
Y1089660D01*
X1482090Y1092200D02*
X1490980Y1101090D01*
X1474470Y1092200D02*
X1482090D01*
X1473200Y1093470D02*
X1474470Y1092200D01*
X1451610Y1093470D02*
X1473200D01*
X1441450Y1097280D02*
X1447800D01*
X1451610Y1093470D01*
X1413510Y1102360D02*
X1436370D01*
X1441450Y1097280D01*
X1412379Y1101229D02*
X1413510Y1102360D01*
X1464310Y1104900D02*
X1471930Y1112520D01*
X1461770Y1104900D02*
X1464310D01*
X1471930Y1112520D02*
X1485900D01*
X1473537Y1135380D02*
X1484447Y1124470D01*
X1461770Y1135380D02*
X1473537D01*
X1484447Y1124470D02*
X1510780D01*
X1520190Y1115060D01*
X1576070Y1041400D02*
X1577340Y1042670D01*
X1578380Y949670D02*
X1579360Y948690D01*
X1578380Y949670D02*
Y1016230D01*
X1576070Y1018540D02*
X1578380Y1016230D01*
X1576070Y1018540D02*
Y1041400D01*
X1484630Y1083310D02*
X1494790Y1093470D01*
X1459230Y1083310D02*
X1484630D01*
X1427628Y1091078D02*
X1430659D01*
X1435137Y1086600D01*
X1455940D01*
X1459230Y1083310D01*
X1482090Y1061720D02*
X1499870Y1079500D01*
X1485900Y1075690D02*
X1498600Y1088390D01*
X1445260Y1076960D02*
X1446530Y1075690D01*
X1485900D01*
X1466850Y1061720D02*
X1482090D01*
X1653540Y1115060D02*
X1668780Y1099820D01*
X1520190Y1115060D02*
X1653540D01*
X1668780Y1049020D02*
Y1099820D01*
Y1049020D02*
X1670050Y1047750D01*
X1521460Y1135380D02*
X1562100Y1176020D01*
X1520190Y1156970D02*
X1553210Y1189990D01*
X1477010Y1156970D02*
X1520190D01*
X1553210Y1189990D02*
Y1299210D01*
X1562100Y1176020D02*
Y1271270D01*
X1494790Y1054100D02*
X1510030Y1069340D01*
X1357630Y895350D02*
Y963930D01*
Y894080D02*
Y895350D01*
X1339850Y974090D02*
X1347470D01*
X1357630Y963930D01*
X1336040Y977509D02*
Y1000760D01*
Y977509D02*
X1336919Y976630D01*
X1337310D01*
X1339850Y974090D01*
X1383030Y900430D02*
Y913130D01*
X1379220Y896620D02*
X1383030Y900430D01*
X1371600Y924560D02*
Y957580D01*
Y924560D02*
X1383030Y913130D01*
X1363980Y965200D02*
X1371600Y957580D01*
X1348740Y984250D02*
X1363980Y969010D01*
Y965200D02*
Y969010D01*
X1391920Y910590D02*
Y925830D01*
X1381760Y935990D02*
Y969010D01*
Y935990D02*
X1391920Y925830D01*
X1371600Y972820D02*
X1377950D01*
X1381760Y969010D01*
X1363980Y980049D02*
Y986790D01*
Y980049D02*
X1364859Y979170D01*
X1365250D01*
X1371600Y972820D01*
X1361440Y989330D02*
Y1000760D01*
Y989330D02*
X1363980Y986790D01*
X1389380Y937260D02*
X1403350Y923290D01*
X1404620D01*
X1385570Y982980D02*
X1389380Y979170D01*
Y937260D02*
Y979170D01*
X1376680Y982980D02*
X1385570D01*
X1451610Y932180D02*
Y970280D01*
X1461770Y915670D02*
Y1002030D01*
X1487170Y1037590D02*
X1499870Y1024890D01*
X1466850Y1027430D02*
Y1028700D01*
Y1027430D02*
X1478280Y1016000D01*
X1080770Y971550D02*
X1214120D01*
X1098550Y999490D02*
X1170940D01*
X1092200Y986790D02*
X1186051D01*
X1238250Y960120D02*
X1254760Y976630D01*
X1214120Y971550D02*
X1216660Y974090D01*
X1189861Y990600D02*
X1192530D01*
X1186051Y986790D02*
X1189861Y990600D01*
X1254760Y976630D02*
Y986790D01*
X1216660Y974090D02*
Y986790D01*
X1403350Y1212850D02*
X1404620Y1211580D01*
X1403350Y1212850D02*
Y1226820D01*
X1305560Y1230630D02*
X1399540D01*
X1403350Y1226820D01*
X1303020Y1233170D02*
Y1247140D01*
Y1233170D02*
X1305560Y1230630D01*
X1465580Y1183640D02*
X1466850Y1182370D01*
X1465580Y1183640D02*
Y1257300D01*
X1430020Y1266190D02*
X1456690D01*
X1465580Y1257300D01*
X1424940Y1271270D02*
X1430020Y1266190D01*
X1413510Y1346200D02*
X1424940Y1334770D01*
Y1271270D02*
Y1334770D01*
X1398270Y1346200D02*
X1413510D01*
X1562100Y1271270D02*
X1587500Y1296670D01*
X1573530Y1319530D02*
X1586230D01*
X1553210Y1299210D02*
X1573530Y1319530D01*
D50*
X1094740Y1348740D02*
D03*
X1530350Y1380490D02*
D03*
X1215390Y791210D02*
D03*
D51*
X1069340Y1348740D02*
D03*
X1010920Y969010D02*
D03*
Y994410D02*
D03*
Y1019810D02*
D03*
Y1045210D02*
D03*
Y1070610D02*
D03*
Y1096010D02*
D03*
Y1121410D02*
D03*
Y1146810D02*
D03*
Y1172210D02*
D03*
X1504950Y1380490D02*
D03*
X1240790Y791210D02*
D03*
X1266190D02*
D03*
X1291590D02*
D03*
X1316990D02*
D03*
X1342390D02*
D03*
X1367790D02*
D03*
X1393190D02*
D03*
X1418590D02*
D03*
X1443990D02*
D03*
X1469390D02*
D03*
X1494790D02*
D03*
X1520190D02*
D03*
X1545590D02*
D03*
X1570990D02*
D03*
X1596390D02*
D03*
X1506220Y1319530D02*
D03*
X1544320Y967740D02*
D03*
X1478280Y1294130D02*
D03*
D52*
X1010920Y1197610D02*
D03*
X1506220Y1294130D02*
D03*
X1544320Y993140D02*
D03*
X1478280Y1319530D02*
D03*
D53*
X1656160Y1353510D02*
D03*
Y1270010D02*
D03*
X1626160Y1334010D02*
D03*
Y1289510D02*
D03*
D54*
X1316990Y872490D02*
D03*
X1268730Y1009650D02*
D03*
X1244600Y1078230D02*
D03*
X1076960Y1087120D02*
D03*
X1323340Y981710D02*
D03*
X1493520Y1137920D02*
D03*
X1450340Y1363980D02*
D03*
X1403350Y1168400D02*
D03*
X1377950Y1169670D02*
D03*
X1234440Y1240790D02*
D03*
X1215390Y1223010D02*
D03*
X1212850Y1200150D02*
D03*
Y1177290D02*
D03*
X1178560Y1184910D02*
D03*
X1518920Y1134110D02*
D03*
X1555750Y1069340D02*
D03*
X1485900Y1112520D02*
D03*
X1461770Y1135380D02*
D03*
X1544320Y1045210D02*
D03*
X1466850Y1061720D02*
D03*
X1520190Y1115060D02*
D03*
X1461770Y1104900D02*
D03*
X1445260Y1076960D02*
D03*
X1427628Y1091078D02*
D03*
X1412379Y1101229D02*
D03*
X1494790Y1054100D02*
D03*
X1357630Y895350D02*
D03*
X1377950Y892810D02*
D03*
X1395730Y908050D02*
D03*
X1407160Y923290D02*
D03*
X1336040Y1000760D02*
D03*
X1376680Y982980D02*
D03*
X1361440Y1000760D02*
D03*
X1348740Y984250D02*
D03*
X1508760Y1037590D02*
D03*
X1592580Y1027430D02*
D03*
X1581150Y1370330D02*
D03*
X1402080Y1266190D02*
D03*
X1286510Y1300480D02*
D03*
X1210310Y948690D02*
D03*
X1626870Y1240790D02*
D03*
X1569720Y938530D02*
D03*
X1417320Y1140460D02*
D03*
X1504950Y1214120D02*
D03*
X1236980Y1306830D02*
D03*
X1239520Y1217930D02*
D03*
X1451610Y970280D02*
D03*
X1461770Y1002030D02*
D03*
X1466850Y1028700D02*
D03*
X1487170Y1037590D02*
D03*
X1291590Y925830D02*
D03*
X1270000Y927100D02*
D03*
X1249680Y923290D02*
D03*
X1229360Y938530D02*
D03*
X1254760Y986790D02*
D03*
X1216660D02*
D03*
X1192530Y990600D02*
D03*
X1170940Y999490D02*
D03*
X1303020Y1247140D02*
D03*
X1398270Y1346200D02*
D03*
X1477010Y1156970D02*
D03*
X1670050Y1047750D02*
D03*
X1587500Y1296670D02*
D03*
X1586230Y1319530D02*
D03*
X1404620Y1211580D02*
D03*
X1466850Y1182370D02*
D03*
M02*
