M48
;Layer_Color=9474304
;FILE_FORMAT=4:4
METRIC,LZ
;TYPE=PLATED
T1F00S00C0.7112
T2F00S00C0.9000
;TYPE=NON_PLATED
T3F00S00C0.5000
%
T01
X0107696Y0108712
X0117094Y0099949
X0117856Y0118491
X0121285Y0117729
X012446Y0107823
X0126873Y0100965
X0125476Y0098679
X0121666
X0119253Y009906
X0121031Y0094869
X0122936Y0093853
X0124968Y0092329
X0127Y009271
X0129159Y0092583
X0131699Y0087249
X0135763Y0089535
X0137795Y0089281
X0139573Y0090805
X0140716Y0092329
X0137668Y0098298
X0134874Y0098425
X0132334Y0098171
X0133604Y0100076
X0136144
X0146177Y0100203
X0146685Y010287
X0148717Y0103759
X0150876
X0149479Y010541
X0146685Y0106172
X0144526Y0107696
X01427628Y01091078
X01412379Y01101229
X0141732Y0114046
X0140335Y011684
X0137795Y0116967
X0146685Y0118237
X0147701Y0115697
X0149352Y0113792
X0151892Y0113411
X0152019Y0111506
X014859Y0111252
X0146177Y011049
Y0113538
X0155575Y0106934
X0154432Y0104521
X0156972Y0093853
X0145161Y0097028
X0159258Y0102743
X0167005Y0104775
X0162687Y0124079
X015875Y0129667
X0158623Y0131953
X0158115Y0137033
X0145034Y0136398
X0139827Y013462
X0140208Y0126619
X0140462Y0121158
X0150495Y0121412
X0130302Y0124714
X0128651Y0130048
X0123698Y0130683
X0123444Y0124079
X0123952Y0121793
X0121539Y0122301
X0121285Y0120015
T02
X0159639Y0079121
X0157099
X0154559
X0152019
X0149479
X0146939
X0144399
X0141859
X0139319
X0136779
X0134239
X0131699
X0129159
X0126619
X0124079
X0121539
X0101092Y0096901
Y0099441
Y0101981
Y0104521
Y0107061
Y0109601
Y0112141
Y0114681
Y0117221
X0154432Y0099314
Y0096774
X0150622Y0129413
Y0131953
X0147828
Y0129413
X0150495Y0138049
X0153035
X0109474Y0134874
X0106934
X0101092Y0119761
T03
X0162616Y0128951
Y0133401
X0165616Y0135351
Y0127001
M30
