G04*
G04 #@! TF.GenerationSoftware,Altium Limited,Altium Designer,20.1.14 (287)*
G04*
G04 Layer_Color=8421504*
%FSLAX44Y44*%
%MOMM*%
G71*
G04*
G04 #@! TF.SameCoordinates,DEFACEA9-F4D7-4AEA-A9FD-1AB281C9BDDB*
G04*
G04*
G04 #@! TF.FilePolarity,Positive*
G04*
G01*
G75*
%ADD11C,0.2000*%
%ADD18C,0.3000*%
%ADD19C,0.1000*%
%ADD20R,1.9000X1.1750*%
%ADD21R,1.9000X1.8000*%
%ADD22R,1.3500X0.4000*%
G04:AMPARAMS|DCode=23|XSize=1.49mm|YSize=0.28mm|CornerRadius=0.07mm|HoleSize=0mm|Usage=FLASHONLY|Rotation=270.000|XOffset=0mm|YOffset=0mm|HoleType=Round|Shape=RoundedRectangle|*
%AMROUNDEDRECTD23*
21,1,1.4900,0.1400,0,0,270.0*
21,1,1.3500,0.2800,0,0,270.0*
1,1,0.1400,-0.0700,-0.6750*
1,1,0.1400,-0.0700,0.6750*
1,1,0.1400,0.0700,0.6750*
1,1,0.1400,0.0700,-0.6750*
%
%ADD23ROUNDEDRECTD23*%
G04:AMPARAMS|DCode=24|XSize=1.49mm|YSize=0.28mm|CornerRadius=0.07mm|HoleSize=0mm|Usage=FLASHONLY|Rotation=180.000|XOffset=0mm|YOffset=0mm|HoleType=Round|Shape=RoundedRectangle|*
%AMROUNDEDRECTD24*
21,1,1.4900,0.1400,0,0,180.0*
21,1,1.3500,0.2800,0,0,180.0*
1,1,0.1400,-0.6750,0.0700*
1,1,0.1400,0.6750,0.0700*
1,1,0.1400,0.6750,-0.0700*
1,1,0.1400,-0.6750,-0.0700*
%
%ADD24ROUNDEDRECTD24*%
%ADD25R,1.4000X0.7500*%
%ADD26R,0.7366X2.7940*%
%ADD27R,1.4000X1.2000*%
%ADD28R,1.2000X1.4000*%
%ADD29R,0.5080X1.0033*%
%ADD30R,1.5000X2.5000*%
%ADD31R,1.1000X1.4000*%
%ADD32R,1.4000X1.1000*%
D11*
X1664660Y1356010D02*
G03*
X1663160Y1357510I-1500J0D01*
G01*
X1649160D02*
G03*
X1647660Y1356010I0J-1500D01*
G01*
X1652660Y1357510D02*
G03*
X1648660Y1353510I0J-4000D01*
G01*
X1663660D02*
G03*
X1659660Y1357510I-4000J0D01*
G01*
X1663160Y1266010D02*
G03*
X1664660Y1267510I0J1500D01*
G01*
X1647660D02*
G03*
X1649160Y1266010I1500J0D01*
G01*
X1648660Y1270010D02*
G03*
X1652660Y1266010I4000J0D01*
G01*
X1659660D02*
G03*
X1663660Y1270010I0J4000D01*
G01*
X1647660Y1348510D02*
X1664660D01*
Y1356010D01*
X1649160Y1357510D02*
X1663160D01*
X1647660Y1348510D02*
Y1356010D01*
X1652660Y1357510D02*
X1659660D01*
X1647660Y1275010D02*
X1664660D01*
Y1267510D02*
Y1275010D01*
X1649160Y1266010D02*
X1663160D01*
X1647660Y1267510D02*
Y1275010D01*
X1652660Y1266010D02*
X1659660D01*
D18*
Y1349010D02*
G03*
X1664160Y1353510I0J4500D01*
G01*
X1648160D02*
G03*
X1652660Y1349010I4500J0D01*
G01*
X1664160Y1270010D02*
G03*
X1659660Y1274510I-4500J0D01*
G01*
X1652660D02*
G03*
X1648160Y1270010I0J-4500D01*
G01*
X1652660Y1349010D02*
X1659660D01*
X1652660Y1274510D02*
X1659660D01*
D19*
X1621410Y1334010D02*
G03*
X1625160Y1330260I3750J0D01*
G01*
X1627160D02*
G03*
X1630910Y1334010I0J3750D01*
G01*
D02*
G03*
X1627160Y1337760I-3750J0D01*
G01*
X1625160D02*
G03*
X1621410Y1334010I0J-3750D01*
G01*
Y1289510D02*
G03*
X1625160Y1285760I3750J0D01*
G01*
X1627160D02*
G03*
X1630910Y1289510I0J3750D01*
G01*
D02*
G03*
X1627160Y1293260I-3750J0D01*
G01*
X1625160D02*
G03*
X1621410Y1289510I0J-3750D01*
G01*
X1625160Y1330260D02*
X1627160D01*
X1625160Y1337760D02*
X1627160D01*
X1625160Y1285760D02*
X1627160D01*
X1625160Y1293260D02*
X1627160D01*
D20*
X1656160Y1343627D02*
D03*
Y1279893D02*
D03*
D21*
Y1300260D02*
D03*
Y1323260D02*
D03*
D22*
X1629410Y1298760D02*
D03*
Y1305260D02*
D03*
Y1324760D02*
D03*
Y1318260D02*
D03*
Y1311760D02*
D03*
D23*
X1290920Y1146360D02*
D03*
X1295920D02*
D03*
X1300920D02*
D03*
X1305920D02*
D03*
X1310920D02*
D03*
X1315920D02*
D03*
X1320920D02*
D03*
X1325920D02*
D03*
X1330920D02*
D03*
X1335920D02*
D03*
X1340920D02*
D03*
X1345920D02*
D03*
X1350920D02*
D03*
X1355920D02*
D03*
X1360920D02*
D03*
X1365920D02*
D03*
Y1032960D02*
D03*
X1360920D02*
D03*
X1355920D02*
D03*
X1350920D02*
D03*
X1345920D02*
D03*
X1340920D02*
D03*
X1335920D02*
D03*
X1330920D02*
D03*
X1325920D02*
D03*
X1320920D02*
D03*
X1315920D02*
D03*
X1310920D02*
D03*
X1305920D02*
D03*
X1300920D02*
D03*
X1295920D02*
D03*
X1290920D02*
D03*
D24*
X1385120Y1127160D02*
D03*
Y1122160D02*
D03*
Y1117160D02*
D03*
Y1112160D02*
D03*
Y1107160D02*
D03*
Y1102160D02*
D03*
Y1097160D02*
D03*
Y1092160D02*
D03*
Y1087160D02*
D03*
Y1082160D02*
D03*
Y1077160D02*
D03*
Y1072160D02*
D03*
Y1067160D02*
D03*
Y1062160D02*
D03*
Y1057160D02*
D03*
Y1052160D02*
D03*
X1271720D02*
D03*
Y1057160D02*
D03*
Y1062160D02*
D03*
Y1067160D02*
D03*
Y1072160D02*
D03*
Y1077160D02*
D03*
Y1082160D02*
D03*
Y1087160D02*
D03*
Y1092160D02*
D03*
Y1097160D02*
D03*
Y1102160D02*
D03*
Y1107160D02*
D03*
Y1112160D02*
D03*
Y1117160D02*
D03*
Y1122160D02*
D03*
Y1127160D02*
D03*
D25*
X1210310Y1117600D02*
D03*
Y1132200D02*
D03*
D26*
X1323340Y1275080D02*
D03*
Y1315720D02*
D03*
X1336040Y1275080D02*
D03*
Y1315720D02*
D03*
X1348740Y1275080D02*
D03*
Y1315720D02*
D03*
X1361440Y1275080D02*
D03*
Y1315720D02*
D03*
X1374140Y1275080D02*
D03*
Y1315720D02*
D03*
D27*
X1626870Y947310D02*
D03*
Y965310D02*
D03*
X1662430Y1148300D02*
D03*
Y1130300D02*
D03*
D28*
X1644540Y1189990D02*
D03*
X1662540D02*
D03*
D29*
X1628750Y1115885D02*
D03*
X1619250D02*
D03*
X1609750D02*
D03*
Y1088835D02*
D03*
X1628750D02*
D03*
D30*
X1152880Y1047750D02*
D03*
X1117880D02*
D03*
D31*
X1154310Y1102360D02*
D03*
X1139310D02*
D03*
X1153040Y1139190D02*
D03*
X1138040D02*
D03*
X1597540Y1192530D02*
D03*
X1582540D02*
D03*
X1432680Y1203960D02*
D03*
X1447680D02*
D03*
X1403470Y963930D02*
D03*
X1418470D02*
D03*
X1326000Y957580D02*
D03*
X1341000D02*
D03*
X1326000Y933450D02*
D03*
X1341000D02*
D03*
X1205350Y1073150D02*
D03*
X1220350D02*
D03*
X1201540Y1033780D02*
D03*
X1216540D02*
D03*
X1403590Y991870D02*
D03*
X1418590D02*
D03*
D32*
X1629410Y1037470D02*
D03*
Y1022470D02*
D03*
M02*
